<svg xmlns="http://www.w3.org/2000/svg" xmlns:xlink="http://www.w3.org/1999/xlink" width="500" zoomAndPan="magnify" viewBox="0 0 375 374.999991" height="500" preserveAspectRatio="xMidYMid meet" version="1.0"><defs><clipPath id="57ba1e1481"><path d="M 112.5 129.5625 L 262.5 129.5625 L 262.5 245.8125 L 112.5 245.8125 Z M 112.5 129.5625 " clip-rule="nonzero"/></clipPath></defs><g clip-path="url(#57ba1e1481)"><path fill="#040606" d="M 157.566406 218.277344 C 158.933594 211.195312 161.949219 204.707031 166.207031 199.222656 C 161.351562 194.347656 154.632812 191.339844 147.226562 191.339844 C 132.402344 191.339844 120.375 203.402344 120.375 218.277344 Z M 147.226562 184.90625 C 155.855469 184.90625 162.851562 177.890625 162.851562 169.21875 C 162.851562 160.5625 155.855469 153.546875 147.226562 153.546875 C 138.597656 153.546875 131.605469 160.5625 131.605469 169.21875 C 131.605469 177.890625 138.597656 184.90625 147.226562 184.90625 Z M 201.503906 180.617188 C 213.464844 180.617188 223.140625 170.910156 223.140625 158.925781 C 223.140625 146.941406 213.464844 137.21875 201.503906 137.21875 C 189.558594 137.21875 179.878906 146.941406 179.878906 158.925781 C 179.878906 170.910156 189.570312 180.617188 201.503906 180.617188 Z M 210.886719 234.445312 L 164.363281 234.445312 C 160.144531 234.445312 156.730469 231.023438 156.730469 226.789062 C 156.730469 226.507812 156.757812 226.214844 156.757812 225.9375 L 120.375 225.9375 C 116.152344 225.9375 112.742188 222.5 112.742188 218.277344 C 112.742188 204.574219 120.734375 192.695312 132.292969 187.105469 C 127.195312 182.816406 123.972656 176.398438 123.972656 169.234375 C 123.972656 156.355469 134.40625 145.890625 147.226562 145.890625 C 160.050781 145.890625 170.484375 156.355469 170.484375 169.234375 C 170.484375 176.398438 167.257812 182.816406 162.160156 187.105469 C 165.585938 188.753906 168.691406 190.980469 171.371094 193.628906 C 175.820312 189.554688 181.0625 186.359375 186.875 184.335938 C 178.140625 179.246094 172.261719 169.765625 172.261719 158.925781 C 172.261719 142.746094 185.375 129.574219 201.503906 129.574219 C 217.644531 129.574219 230.757812 142.746094 230.757812 158.925781 C 230.757812 169.765625 224.890625 179.246094 216.144531 184.335938 C 220.964844 186.011719 225.410156 188.515625 229.3125 191.644531 C 228.792969 192.042969 228.304688 192.484375 227.8125 192.964844 C 226.457031 194.335938 225.398438 195.917969 224.640625 197.636719 C 218.28125 192.5625 210.25 189.527344 201.503906 189.527344 C 191.722656 189.527344 182.828125 193.324219 176.191406 199.542969 C 174.226562 201.367188 172.460938 203.417969 170.933594 205.640625 C 168.332031 209.410156 166.40625 213.683594 165.332031 218.277344 C 164.761719 220.742188 164.445312 223.300781 164.378906 225.9375 C 164.378906 226.230469 164.351562 226.507812 164.351562 226.800781 L 205.644531 226.800781 C 206.585938 229.851562 208.433594 232.5 210.886719 234.445312 Z M 262.257812 222.488281 C 262.257812 223.910156 261.714844 225.257812 260.703125 226.28125 C 259.683594 227.308594 258.328125 227.867188 256.867188 227.867188 L 244.257812 227.8125 L 244.3125 240.4375 C 244.324219 241.902344 243.769531 243.273438 242.746094 244.300781 C 241.738281 245.3125 240.410156 245.882812 238.976562 245.882812 L 238.960938 245.882812 C 236.015625 245.859375 233.613281 243.421875 233.585938 240.449219 L 233.519531 227.761719 L 220.484375 227.707031 C 217.523438 227.679688 215.082031 225.285156 215.070312 222.328125 C 215.070312 220.890625 215.628906 219.542969 216.621094 218.53125 C 217.644531 217.492188 219.011719 216.933594 220.472656 216.933594 L 233.480469 216.988281 L 233.414062 203.964844 C 233.414062 202.5 233.957031 201.125 234.980469 200.101562 C 235.988281 199.089844 237.328125 198.53125 238.75 198.53125 C 241.722656 198.542969 244.125 200.96875 244.140625 203.964844 L 244.207031 217.039062 L 256.84375 217.105469 C 259.800781 217.105469 262.230469 219.53125 262.257812 222.488281 " fill-opacity="1" fill-rule="nonzero"/></g></svg>