<svg xmlns="http://www.w3.org/2000/svg" xmlns:xlink="http://www.w3.org/1999/xlink" width="500" zoomAndPan="magnify" viewBox="0 0 375 374.999991" height="500" preserveAspectRatio="xMidYMid meet" version="1.0"><defs><clipPath id="7e642cfac9"><path d="M 85 71.183594 L 198 71.183594 L 198 183 L 85 183 Z M 85 71.183594 " clip-rule="nonzero"/></clipPath><clipPath id="e85dccf67d"><path d="M 30 194 L 253 194 L 253 299.933594 L 30 299.933594 Z M 30 194 " clip-rule="nonzero"/></clipPath></defs><g clip-path="url(#7e642cfac9)"><path fill="#000000" d="M 197.054688 127.195312 C 197.054688 96.527344 172.136719 71.578125 141.5 71.578125 C 110.867188 71.578125 85.949219 96.527344 85.949219 127.195312 C 85.949219 157.851562 110.867188 182.796875 141.5 182.796875 C 172.136719 182.796875 197.054688 157.851562 197.054688 127.195312 Z M 105.214844 127.195312 C 105.214844 107.160156 121.492188 90.867188 141.5 90.867188 C 161.507812 90.867188 177.785156 107.160156 177.785156 127.195312 C 177.785156 147.214844 161.507812 163.511719 141.5 163.511719 C 121.492188 163.511719 105.214844 147.214844 105.214844 127.195312 Z M 105.214844 127.195312 " fill-opacity="1" fill-rule="nonzero"/></g><g clip-path="url(#e85dccf67d)"><path fill="#000000" d="M 30.445312 283.09375 C 30.445312 292.664062 38.222656 300.441406 47.78125 300.441406 L 235.226562 300.441406 C 244.785156 300.441406 252.558594 292.664062 252.558594 283.09375 C 252.558594 234.164062 212.785156 194.355469 163.910156 194.355469 L 119.089844 194.355469 C 70.210938 194.355469 30.445312 234.164062 30.445312 283.09375 Z M 119.089844 213.644531 L 163.910156 213.644531 C 201.515625 213.644531 232.234375 243.753906 233.261719 281.152344 L 49.742188 281.152344 C 50.773438 243.753906 81.484375 213.644531 119.089844 213.644531 Z M 119.089844 213.644531 " fill-opacity="1" fill-rule="nonzero"/></g><path fill="#000000" d="M 309.847656 163.511719 L 269.070312 163.511719 L 269.070312 122.691406 C 269.070312 117.359375 264.761719 113.046875 259.4375 113.046875 C 254.109375 113.046875 249.800781 117.359375 249.800781 122.691406 L 249.800781 163.511719 L 209.03125 163.511719 C 203.707031 163.511719 199.398438 167.824219 199.398438 173.152344 C 199.398438 178.484375 203.707031 182.796875 209.03125 182.796875 L 249.800781 182.796875 L 249.800781 223.617188 C 249.800781 228.949219 254.109375 233.261719 259.4375 233.261719 C 264.761719 233.261719 269.070312 228.949219 269.070312 223.617188 L 269.070312 182.796875 L 309.847656 182.796875 C 315.171875 182.796875 319.484375 178.484375 319.484375 173.152344 C 319.484375 167.824219 315.171875 163.511719 309.847656 163.511719 Z M 309.847656 163.511719 " fill-opacity="1" fill-rule="nonzero"/></svg>