<svg xmlns="http://www.w3.org/2000/svg" xmlns:xlink="http://www.w3.org/1999/xlink" width="500" zoomAndPan="magnify" viewBox="0 0 375 374.999991" height="500" preserveAspectRatio="xMidYMid meet" version="1.0"><defs><clipPath id="b310c46562"><path d="M 113 191 L 228 191 L 228 245.90625 L 113 245.90625 Z M 113 191 " clip-rule="nonzero"/></clipPath></defs><path fill="#000000" d="M 198.828125 157.554688 C 198.828125 141.871094 186.050781 129.109375 170.339844 129.109375 C 154.628906 129.109375 141.851562 141.871094 141.851562 157.554688 C 141.851562 173.234375 154.628906 185.996094 170.339844 185.996094 C 186.050781 185.996094 198.828125 173.234375 198.828125 157.554688 Z M 151.734375 157.554688 C 151.734375 147.308594 160.078125 138.972656 170.339844 138.972656 C 180.601562 138.972656 188.949219 147.308594 188.949219 157.554688 C 188.949219 167.796875 180.601562 176.128906 170.339844 176.128906 C 160.078125 176.128906 151.734375 167.796875 151.734375 157.554688 Z M 151.734375 157.554688 " fill-opacity="1" fill-rule="nonzero"/><g clip-path="url(#b310c46562)"><path fill="#000000" d="M 113.390625 237.292969 C 113.390625 242.1875 117.378906 246.167969 122.277344 246.167969 L 218.402344 246.167969 C 223.304688 246.167969 227.292969 242.1875 227.292969 237.292969 C 227.292969 212.269531 206.894531 191.90625 181.832031 191.90625 L 158.847656 191.90625 C 133.78125 191.90625 113.390625 212.269531 113.390625 237.292969 Z M 158.847656 201.769531 L 181.832031 201.769531 C 201.117188 201.769531 216.871094 217.171875 217.394531 236.300781 L 123.285156 236.300781 C 123.8125 217.171875 139.5625 201.769531 158.847656 201.769531 Z M 158.847656 201.769531 " fill-opacity="1" fill-rule="nonzero"/></g><path fill="#000000" d="M 256.671875 176.128906 L 235.757812 176.128906 L 235.757812 155.25 C 235.757812 152.523438 233.550781 150.320312 230.816406 150.320312 C 228.085938 150.320312 225.878906 152.523438 225.878906 155.25 L 225.878906 176.128906 L 204.972656 176.128906 C 202.238281 176.128906 200.03125 178.335938 200.03125 181.0625 C 200.03125 183.789062 202.238281 185.996094 204.972656 185.996094 L 225.878906 185.996094 L 225.878906 206.871094 C 225.878906 209.597656 228.085938 211.804688 230.816406 211.804688 C 233.550781 211.804688 235.757812 209.597656 235.757812 206.871094 L 235.757812 185.996094 L 256.671875 185.996094 C 259.402344 185.996094 261.609375 183.789062 261.609375 181.0625 C 261.609375 178.335938 259.402344 176.128906 256.671875 176.128906 Z M 256.671875 176.128906 " fill-opacity="1" fill-rule="nonzero"/></svg>