<svg xmlns="http://www.w3.org/2000/svg" xmlns:xlink="http://www.w3.org/1999/xlink" width="500" zoomAndPan="magnify" viewBox="0 0 375 374.999991" height="500" preserveAspectRatio="xMidYMid meet" version="1.0"><defs><clipPath id="30c9f6a488"><path d="M 102.160156 102.160156 L 262.660156 102.160156 L 262.660156 262.660156 L 102.160156 262.660156 Z M 102.160156 102.160156 " clip-rule="nonzero"/></clipPath></defs><g clip-path="url(#30c9f6a488)"><path fill="#000000" d="M 182.355469 102.160156 C 182.394531 102.160156 182.4375 102.160156 182.476562 102.160156 C 186.464844 102.179688 190.089844 103.816406 192.714844 106.441406 C 195.355469 109.082031 196.988281 112.730469 196.992188 116.75 L 197 116.75 L 197 167.816406 L 248.066406 167.816406 C 252.082031 167.816406 255.730469 169.457031 258.375 172.101562 C 261.003906 174.734375 262.644531 178.359375 262.660156 182.355469 C 262.660156 182.394531 262.660156 182.4375 262.660156 182.476562 C 262.636719 186.464844 261 190.085938 258.375 192.714844 C 255.734375 195.355469 252.085938 196.988281 248.066406 196.988281 L 248.066406 197 L 197 197 L 197 248.066406 C 197 252.082031 195.359375 255.730469 192.714844 258.375 C 190.085938 261.003906 186.457031 262.644531 182.460938 262.65625 C 182.421875 262.660156 182.378906 262.660156 182.339844 262.65625 C 178.351562 262.636719 174.726562 261 172.101562 258.375 C 169.464844 255.734375 167.828125 252.085938 167.828125 248.066406 L 167.816406 248.066406 L 167.816406 197 L 116.75 197 C 112.734375 197 109.085938 195.359375 106.441406 192.714844 C 103.8125 190.085938 102.171875 186.457031 102.160156 182.460938 C 102.160156 182.421875 102.160156 182.378906 102.160156 182.339844 C 102.179688 178.351562 103.816406 174.726562 106.441406 172.101562 C 109.082031 169.460938 112.730469 167.828125 116.75 167.828125 L 116.75 167.816406 L 167.816406 167.816406 L 167.816406 116.75 C 167.816406 112.734375 169.457031 109.085938 172.101562 106.441406 C 174.734375 103.808594 178.359375 102.171875 182.355469 102.160156 " fill-opacity="1" fill-rule="nonzero"/></g></svg>