<svg xmlns="http://www.w3.org/2000/svg" xmlns:xlink="http://www.w3.org/1999/xlink" width="500" zoomAndPan="magnify" viewBox="0 0 375 374.999991" height="500" preserveAspectRatio="xMidYMid meet" version="1.0"><defs><clipPath id="2e1a3fa076"><path d="M 137 106.242188 L 211 106.242188 L 211 180 L 137 180 Z M 137 106.242188 " clip-rule="nonzero"/></clipPath><clipPath id="fedb0a825b"><path d="M 100 187 L 247 187 L 247 256.242188 L 100 256.242188 Z M 100 187 " clip-rule="nonzero"/></clipPath></defs><g clip-path="url(#2e1a3fa076)"><path fill="#000000" d="M 210.21875 142.96875 C 210.21875 122.859375 193.859375 106.5 173.75 106.5 C 153.640625 106.5 137.285156 122.863281 137.285156 142.96875 C 137.285156 163.074219 153.640625 179.433594 173.75 179.433594 C 193.859375 179.433594 210.21875 163.074219 210.21875 142.96875 Z M 149.933594 142.96875 C 149.933594 129.832031 160.617188 119.148438 173.75 119.148438 C 186.882812 119.148438 197.570312 129.832031 197.570312 142.96875 C 197.570312 156.101562 186.882812 166.785156 173.75 166.785156 C 160.617188 166.785156 149.933594 156.101562 149.933594 142.96875 Z M 149.933594 142.96875 " fill-opacity="1" fill-rule="nonzero"/></g><g clip-path="url(#fedb0a825b)"><path fill="#000000" d="M 100.855469 245.199219 C 100.855469 251.472656 105.957031 256.574219 112.234375 256.574219 L 235.273438 256.574219 C 241.546875 256.574219 246.648438 251.472656 246.648438 245.199219 C 246.648438 213.117188 220.542969 187.011719 188.460938 187.011719 L 159.039062 187.011719 C 126.957031 187.011719 100.855469 213.117188 100.855469 245.199219 Z M 159.039062 199.660156 L 188.460938 199.660156 C 213.144531 199.660156 233.308594 219.402344 233.980469 243.925781 L 113.519531 243.925781 C 114.195312 219.402344 134.355469 199.660156 159.039062 199.660156 Z M 159.039062 199.660156 " fill-opacity="1" fill-rule="nonzero"/></g><path fill="#000000" d="M 284.253906 166.785156 L 257.488281 166.785156 L 257.488281 140.019531 C 257.488281 136.523438 254.660156 133.695312 251.164062 133.695312 C 247.667969 133.695312 244.839844 136.523438 244.839844 140.019531 L 244.839844 166.785156 L 218.078125 166.785156 C 214.582031 166.785156 211.753906 169.613281 211.753906 173.109375 C 211.753906 176.605469 214.582031 179.433594 218.078125 179.433594 L 244.839844 179.433594 L 244.839844 206.199219 C 244.839844 209.695312 247.667969 212.523438 251.164062 212.523438 C 254.660156 212.523438 257.488281 209.695312 257.488281 206.199219 L 257.488281 179.433594 L 284.253906 179.433594 C 287.75 179.433594 290.578125 176.605469 290.578125 173.109375 C 290.578125 169.613281 287.75 166.785156 284.253906 166.785156 Z M 284.253906 166.785156 " fill-opacity="1" fill-rule="nonzero"/></svg>