<svg xmlns="http://www.w3.org/2000/svg" xmlns:xlink="http://www.w3.org/1999/xlink" width="500" zoomAndPan="magnify" viewBox="0 0 375 374.999991" height="500" preserveAspectRatio="xMidYMid meet" version="1.0"><defs><clipPath id="0a13a297e4"><path d="M 0.0976562 59.46875 L 374.902344 59.46875 L 374.902344 305.953125 L 0.0976562 305.953125 Z M 0.0976562 59.46875 " clip-rule="nonzero"/></clipPath></defs><g clip-path="url(#0a13a297e4)"><path fill="#040606" d="M 116.589844 201.722656 C 106.175781 189.359375 90.570312 181.515625 73.136719 181.515625 C 41.722656 181.515625 16.234375 206.976562 16.234375 238.351562 L 96.359375 238.351562 C 100.355469 224.589844 107.339844 212.160156 116.589844 201.722656 Z M 73.136719 167.953125 C 91.4375 167.953125 106.277344 153.132812 106.277344 134.882812 C 106.277344 116.605469 91.4375 101.8125 73.136719 101.8125 C 54.867188 101.8125 40.027344 116.605469 40.027344 134.882812 C 40.027344 153.132812 54.867188 167.953125 73.136719 167.953125 Z M 187.5 167.15625 C 212.789062 167.15625 233.320312 146.648438 233.320312 121.390625 C 233.320312 96.097656 212.789062 75.589844 187.5 75.589844 C 162.179688 75.589844 141.679688 96.097656 141.679688 121.390625 C 141.679688 146.648438 162.179688 167.15625 187.5 167.15625 Z M 301.832031 167.953125 C 320.132812 167.953125 334.972656 153.132812 334.972656 134.882812 C 334.972656 116.605469 320.132812 101.8125 301.832031 101.8125 C 283.5625 101.8125 268.722656 116.605469 268.722656 134.882812 C 268.722656 153.132812 283.5625 167.953125 301.832031 167.953125 Z M 244.800781 280.695312 L 108.773438 280.695312 C 99.855469 280.695312 92.601562 273.480469 92.601562 264.542969 C 92.601562 261.152344 92.867188 257.792969 93.199219 254.503906 L 16.269531 254.503906 C 7.316406 254.503906 0.0976562 247.292969 0.0976562 238.351562 C 0.0976562 209.433594 17.035156 184.40625 41.492188 172.574219 C 30.710938 163.535156 23.855469 150.007812 23.855469 134.882812 C 23.855469 107.730469 45.984375 85.660156 73.136719 85.660156 C 100.320312 85.660156 122.449219 107.730469 122.449219 134.882812 C 122.449219 150.007812 115.558594 163.535156 104.8125 172.574219 C 113.828125 176.929688 121.816406 183.109375 128.335938 190.589844 C 136.691406 183.910156 146.171875 178.558594 156.488281 174.96875 C 137.988281 164.265625 125.507812 144.222656 125.507812 121.390625 C 125.507812 87.222656 153.328125 59.4375 187.5 59.4375 C 221.671875 59.4375 249.492188 87.222656 249.492188 121.390625 C 249.492188 144.222656 237.011719 164.265625 218.511719 174.96875 C 228.828125 178.558594 238.308594 183.910156 246.664062 190.589844 C 253.183594 183.109375 261.171875 176.929688 270.1875 172.574219 C 259.40625 163.535156 252.550781 150.007812 252.550781 134.882812 C 252.550781 107.730469 274.644531 85.660156 301.832031 85.660156 C 329.015625 85.660156 351.144531 107.730469 351.144531 134.882812 C 351.144531 150.007812 344.289062 163.535156 333.507812 172.574219 C 357.964844 184.40625 374.902344 209.433594 374.902344 238.351562 C 374.902344 242.703125 373.140625 246.660156 370.34375 249.550781 C 368.582031 242.273438 364.222656 235.992188 358.332031 231.734375 C 355.039062 203.484375 331.015625 181.515625 301.832031 181.515625 C 284.429688 181.515625 268.824219 189.394531 258.410156 201.722656 C 263.398438 207.375 267.757812 213.621094 271.320312 220.371094 L 271.351562 225.554688 L 263.367188 225.519531 C 260.9375 225.519531 258.574219 225.820312 256.277344 226.351562 C 254.28125 222.761719 252.019531 219.339844 249.492188 216.113281 C 245.929688 211.59375 241.9375 207.472656 237.480469 203.816406 C 223.902344 192.648438 206.464844 185.9375 187.5 185.9375 C 168.5 185.9375 151.097656 192.648438 137.488281 203.816406 C 133.0625 207.472656 129.035156 211.59375 125.507812 216.113281 C 120.285156 222.761719 116.125 230.242188 113.265625 238.351562 C 111.433594 243.503906 110.136719 248.917969 109.4375 254.503906 C 109.003906 257.792969 108.773438 261.152344 108.773438 264.542969 L 233.652344 264.542969 C 235.546875 271.089844 239.507812 276.707031 244.800781 280.695312 Z M 351.808594 256.628906 C 351.84375 259.65625 350.679688 262.480469 348.550781 264.640625 C 346.386719 266.800781 343.492188 267.996094 340.398438 267.996094 L 313.710938 267.863281 L 313.84375 294.488281 C 313.84375 297.578125 312.679688 300.46875 310.484375 302.628906 C 308.355469 304.789062 305.523438 305.953125 302.496094 305.953125 L 302.429688 305.953125 C 296.242188 305.921875 291.117188 300.800781 291.085938 294.488281 L 290.984375 267.730469 L 263.332031 267.597656 C 257.042969 267.566406 251.886719 262.480469 251.851562 256.265625 C 251.851562 253.242188 253.019531 250.414062 255.148438 248.253906 C 257.308594 246.09375 260.207031 244.898438 263.300781 244.898438 L 290.851562 245.03125 L 290.71875 217.542969 C 290.683594 214.453125 291.882812 211.5625 294.046875 209.402344 C 296.175781 207.242188 299.003906 206.078125 302.03125 206.078125 C 308.320312 206.109375 313.410156 211.230469 313.445312 217.542969 L 313.578125 245.128906 L 340.363281 245.265625 C 346.652344 245.296875 351.777344 250.382812 351.808594 256.628906 " fill-opacity="1" fill-rule="nonzero"/></g></svg>