<svg xmlns="http://www.w3.org/2000/svg" xmlns:xlink="http://www.w3.org/1999/xlink" width="500" zoomAndPan="magnify" viewBox="0 0 375 374.999991" height="500" preserveAspectRatio="xMidYMid meet" version="1.0"><defs><clipPath id="848f69472a"><path d="M 112.5 112.5 L 262.5 112.5 L 262.5 262.5 L 112.5 262.5 Z M 112.5 112.5 " clip-rule="nonzero"/></clipPath></defs><g clip-path="url(#848f69472a)"><path fill="#000000" d="M 187.5 262.5 C 146.148438 262.5 112.5 228.851562 112.5 187.5 C 112.5 146.148438 146.148438 112.5 187.5 112.5 C 228.851562 112.5 262.5 146.148438 262.5 187.5 C 262.5 228.851562 228.851562 262.5 187.5 262.5 Z M 187.5 121.875 C 151.3125 121.875 121.875 151.3125 121.875 187.5 C 121.875 223.6875 151.3125 253.125 187.5 253.125 C 223.6875 253.125 253.125 223.6875 253.125 187.5 C 253.125 151.3125 223.6875 121.875 187.5 121.875 Z M 187.5 121.875 " fill-opacity="1" fill-rule="nonzero"/></g><path fill="#000000" d="M 228.3125 153.3125 L 221.6875 146.6875 L 187.5 180.871094 L 153.3125 146.6875 L 146.6875 153.3125 L 180.871094 187.5 L 146.6875 221.6875 L 153.3125 228.3125 L 187.5 194.128906 L 221.6875 228.3125 L 228.3125 221.6875 L 194.128906 187.5 Z M 228.3125 153.3125 " fill-opacity="1" fill-rule="nonzero"/></svg>