<svg xmlns="http://www.w3.org/2000/svg" xmlns:xlink="http://www.w3.org/1999/xlink" width="500" zoomAndPan="magnify" viewBox="0 0 375 374.999991" height="500" preserveAspectRatio="xMidYMid meet" version="1.0"><defs><clipPath id="bfea158e05"><path d="M 91 126.402344 L 312 126.402344 L 312 251 L 91 251 Z M 91 126.402344 " clip-rule="nonzero"/></clipPath></defs><g clip-path="url(#bfea158e05)"><path fill="#20090e" d="M 201.515625 126.941406 C 159.171875 126.941406 120.203125 146.203125 94.601562 179.78125 C 90.609375 185.011719 90.609375 192.3125 94.597656 197.535156 C 120.203125 231.121094 159.171875 250.382812 201.515625 250.382812 C 243.859375 250.382812 282.828125 231.121094 308.429688 197.542969 C 312.421875 192.3125 312.421875 185.015625 308.433594 179.789062 C 282.828125 146.203125 243.859375 126.941406 201.515625 126.941406 Z M 296.769531 188.683594 C 273.960938 218.601562 239.242188 235.761719 201.515625 235.761719 C 163.792969 235.761719 129.070312 218.601562 106.261719 188.640625 C 129.070312 158.722656 163.792969 141.5625 201.515625 141.5625 C 239.242188 141.5625 273.960938 158.722656 296.769531 188.640625 C 296.769531 188.644531 296.769531 188.679688 296.769531 188.683594 Z M 296.769531 188.683594 " fill-opacity="1" fill-rule="nonzero"/></g><path fill="#20090e" d="M 201.515625 145.863281 C 177.863281 145.863281 158.625 165.0625 158.625 188.660156 C 158.625 212.261719 177.863281 231.460938 201.515625 231.460938 C 225.167969 231.460938 244.40625 212.261719 244.40625 188.660156 C 244.40625 165.0625 225.167969 145.863281 201.515625 145.863281 Z M 201.515625 216.839844 C 185.945312 216.839844 173.277344 204.199219 173.277344 188.660156 C 173.277344 173.125 185.945312 160.484375 201.515625 160.484375 C 217.085938 160.484375 229.753906 173.125 229.753906 188.660156 C 229.753906 204.199219 217.085938 216.839844 201.515625 216.839844 Z M 201.515625 216.839844 " fill-opacity="1" fill-rule="nonzero"/></svg>