<svg xmlns="http://www.w3.org/2000/svg" xmlns:xlink="http://www.w3.org/1999/xlink" width="500" zoomAndPan="magnify" viewBox="0 0 375 374.999991" height="500" preserveAspectRatio="xMidYMid meet" version="1.0"><defs><clipPath id="4cecaa7a4b"><path d="M 122.71875 112.5 L 238 112.5 L 238 262.5 L 122.71875 262.5 Z M 122.71875 112.5 " clip-rule="nonzero"/></clipPath><clipPath id="754caba18b"><path d="M 223 234 L 252 234 L 252 262.5 L 223 262.5 Z M 223 234 " clip-rule="nonzero"/></clipPath></defs><path fill="#000000" d="M 148.648438 154.515625 L 172.988281 154.515625 C 175.867188 154.515625 178.207031 152.179688 178.207031 149.304688 C 178.207031 146.429688 175.867188 144.097656 172.988281 144.097656 L 148.648438 144.097656 C 145.769531 144.097656 143.433594 146.429688 143.433594 149.304688 C 143.433594 152.179688 145.769531 154.515625 148.648438 154.515625 Z M 148.648438 154.515625 " fill-opacity="1" fill-rule="evenodd"/><path fill="#000000" d="M 148.648438 178.820312 L 193.851562 178.820312 C 196.730469 178.820312 199.070312 176.484375 199.070312 173.609375 C 199.070312 170.734375 196.730469 168.402344 193.851562 168.402344 L 148.648438 168.402344 C 145.769531 168.402344 143.433594 170.734375 143.433594 173.609375 C 143.433594 176.484375 145.769531 178.820312 148.648438 178.820312 Z M 148.648438 178.820312 " fill-opacity="1" fill-rule="evenodd"/><path fill="#000000" d="M 148.648438 203.125 L 176.464844 203.125 C 179.347656 203.125 181.683594 200.792969 181.683594 197.917969 C 181.683594 195.042969 179.347656 192.707031 176.464844 192.707031 L 148.648438 192.707031 C 145.769531 192.707031 143.433594 195.042969 143.433594 197.917969 C 143.433594 200.792969 145.769531 203.125 148.648438 203.125 Z M 148.648438 203.125 " fill-opacity="1" fill-rule="evenodd"/><g clip-path="url(#4cecaa7a4b)"><path fill="#000000" d="M 190.375 251.734375 L 141.695312 251.734375 C 139.386719 251.734375 137.179688 250.820312 135.546875 249.195312 C 133.917969 247.5625 133 245.359375 133 243.054688 L 133 131.945312 C 133 129.640625 133.917969 127.4375 135.546875 125.804688 C 137.179688 124.179688 139.386719 123.265625 141.695312 123.265625 L 191.160156 123.265625 C 191.597656 123.265625 192.015625 123.421875 192.335938 123.714844 L 226.316406 154.5625 C 226.679688 154.894531 226.886719 155.359375 226.886719 155.847656 L 226.886719 187.5 C 226.886719 190.375 229.222656 192.707031 232.101562 192.707031 C 234.980469 192.707031 237.320312 190.375 237.320312 187.5 C 237.320312 187.5 237.320312 164.339844 237.320312 155.847656 C 237.320312 152.421875 235.871094 149.160156 233.332031 146.855469 C 226.441406 140.597656 205.847656 121.910156 199.355469 116.007812 C 197.109375 113.972656 194.195312 112.847656 191.160156 112.847656 C 182.941406 112.847656 157.730469 112.847656 141.695312 112.847656 C 136.625 112.847656 131.757812 114.859375 128.167969 118.4375 C 124.585938 122.019531 122.570312 126.882812 122.570312 131.945312 C 122.570312 158.554688 122.570312 216.445312 122.570312 243.054688 C 122.570312 248.117188 124.585938 252.980469 128.167969 256.5625 C 131.757812 260.140625 136.625 262.152344 141.695312 262.152344 L 190.375 262.152344 C 193.253906 262.152344 195.589844 259.820312 195.589844 256.945312 C 195.589844 254.070312 193.253906 251.734375 190.375 251.734375 Z M 190.375 251.734375 " fill-opacity="1" fill-rule="evenodd"/></g><path fill="#000000" d="M 199.070312 147.570312 L 199.070312 121.527344 C 199.070312 118.652344 196.730469 116.320312 193.851562 116.320312 C 190.972656 116.320312 188.636719 118.652344 188.636719 121.527344 L 188.636719 149.304688 C 188.636719 151.609375 189.554688 153.8125 191.183594 155.445312 C 192.816406 157.070312 195.027344 157.984375 197.328125 157.984375 C 206.132812 157.984375 228.625 157.984375 228.625 157.984375 C 231.503906 157.984375 233.839844 155.652344 233.839844 152.777344 C 233.839844 149.902344 231.503906 147.570312 228.625 147.570312 Z M 199.070312 147.570312 " fill-opacity="1" fill-rule="evenodd"/><path fill="#000000" d="M 180.988281 221.527344 C 180.988281 237.820312 194.226562 251.042969 210.542969 251.042969 C 226.859375 251.042969 240.101562 237.820312 240.101562 221.527344 C 240.101562 205.234375 226.859375 192.015625 210.542969 192.015625 C 194.226562 192.015625 180.988281 205.234375 180.988281 221.527344 Z M 191.417969 221.527344 C 191.417969 210.984375 199.988281 202.429688 210.542969 202.429688 C 221.101562 202.429688 229.667969 210.984375 229.667969 221.527344 C 229.667969 232.070312 221.101562 240.625 210.542969 240.625 C 199.988281 240.625 191.417969 232.070312 191.417969 221.527344 Z M 191.417969 221.527344 " fill-opacity="1" fill-rule="evenodd"/><g clip-path="url(#754caba18b)"><path fill="#000000" d="M 224.9375 243.265625 L 242.324219 260.625 C 244.355469 262.660156 247.667969 262.660156 249.699219 260.625 C 251.734375 258.597656 251.734375 255.292969 249.699219 253.265625 L 232.3125 235.902344 C 230.28125 233.867188 226.96875 233.867188 224.9375 235.902344 C 222.902344 237.929688 222.902344 241.234375 224.9375 243.265625 Z M 224.9375 243.265625 " fill-opacity="1" fill-rule="evenodd"/></g></svg>