<svg xmlns="http://www.w3.org/2000/svg" xmlns:xlink="http://www.w3.org/1999/xlink" width="500" zoomAndPan="magnify" viewBox="0 0 375 374.999991" height="500" preserveAspectRatio="xMidYMid meet" version="1.0"><defs><clipPath id="5d3b7dd227"><path d="M 112.5 132 L 236 132 L 236 262.5 L 112.5 262.5 Z M 112.5 132 " clip-rule="nonzero"/></clipPath></defs><path fill="#000000" d="M 176.613281 173.582031 L 171.570312 196.078125 C 171.519531 196.328125 171.484375 196.585938 171.460938 196.839844 C 171.441406 197.097656 171.4375 197.355469 171.449219 197.609375 C 171.457031 197.867188 171.484375 198.125 171.527344 198.378906 C 171.570312 198.632812 171.628906 198.882812 171.703125 199.128906 C 171.777344 199.375 171.867188 199.617188 171.96875 199.851562 C 172.074219 200.085938 172.191406 200.316406 172.320312 200.535156 C 172.453125 200.757812 172.597656 200.96875 172.757812 201.171875 C 172.914062 201.375 173.085938 201.566406 173.265625 201.75 C 173.449219 201.933594 173.640625 202.101562 173.84375 202.261719 C 174.046875 202.417969 174.257812 202.5625 174.480469 202.695312 C 174.703125 202.828125 174.929688 202.945312 175.164062 203.046875 C 175.402344 203.152344 175.640625 203.242188 175.890625 203.3125 C 176.136719 203.386719 176.386719 203.445312 176.640625 203.488281 C 176.894531 203.53125 177.148438 203.558594 177.40625 203.570312 C 177.664062 203.582031 177.917969 203.574219 178.175781 203.554688 C 178.433594 203.535156 178.6875 203.496094 178.9375 203.445312 L 201.4375 198.402344 C 202.601562 198.144531 203.605469 197.59375 204.449219 196.75 L 254.929688 146.265625 C 255.367188 145.832031 255.78125 145.378906 256.175781 144.90625 C 256.570312 144.433594 256.9375 143.945312 257.285156 143.4375 C 257.632812 142.929688 257.953125 142.40625 258.25 141.867188 C 258.542969 141.324219 258.8125 140.773438 259.054688 140.207031 C 259.296875 139.644531 259.511719 139.066406 259.695312 138.480469 C 259.882812 137.894531 260.039062 137.300781 260.167969 136.699219 C 260.296875 136.097656 260.394531 135.492188 260.464844 134.882812 C 260.535156 134.269531 260.574219 133.65625 260.585938 133.042969 C 260.597656 132.429688 260.578125 131.8125 260.527344 131.199219 C 260.480469 130.589844 260.402344 129.980469 260.292969 129.375 C 260.183594 128.769531 260.046875 128.167969 259.882812 127.578125 C 259.714844 126.984375 259.519531 126.402344 259.296875 125.828125 C 259.074219 125.257812 258.824219 124.695312 258.546875 124.144531 C 258.269531 123.597656 257.96875 123.0625 257.640625 122.542969 C 257.308594 122.023438 256.957031 121.519531 256.578125 121.035156 C 256.203125 120.550781 255.800781 120.085938 255.378906 119.636719 C 254.933594 119.214844 254.46875 118.8125 253.980469 118.433594 C 253.496094 118.054688 252.996094 117.703125 252.476562 117.371094 C 251.957031 117.042969 251.421875 116.738281 250.871094 116.460938 C 250.324219 116.183594 249.761719 115.929688 249.1875 115.707031 C 248.613281 115.484375 248.03125 115.289062 247.441406 115.121094 C 246.847656 114.957031 246.25 114.820312 245.640625 114.710938 C 245.035156 114.601562 244.425781 114.523438 243.8125 114.472656 C 243.199219 114.425781 242.585938 114.40625 241.972656 114.414062 C 241.355469 114.425781 240.742188 114.464844 240.128906 114.535156 C 239.519531 114.605469 238.914062 114.707031 238.3125 114.835938 C 237.710938 114.964844 237.113281 115.121094 236.527344 115.308594 C 235.941406 115.496094 235.367188 115.707031 234.800781 115.953125 C 234.234375 116.195312 233.683594 116.464844 233.144531 116.761719 C 232.605469 117.054688 232.082031 117.378906 231.574219 117.726562 C 231.0625 118.074219 230.574219 118.445312 230.101562 118.839844 C 229.628906 119.234375 229.179688 119.648438 228.746094 120.089844 L 178.273438 170.558594 C 177.425781 171.402344 176.871094 172.410156 176.613281 173.582031 Z M 188.261719 178.027344 L 237.476562 128.8125 C 238.117188 128.160156 238.855469 127.648438 239.691406 127.28125 C 240.527344 126.914062 241.402344 126.714844 242.316406 126.683594 C 243.117188 126.671875 243.894531 126.808594 244.640625 127.097656 C 245.386719 127.390625 246.054688 127.8125 246.636719 128.363281 C 247.199219 128.9375 247.625 129.601562 247.914062 130.351562 C 248.207031 131.101562 248.335938 131.878906 248.308594 132.683594 C 248.277344 133.59375 248.078125 134.46875 247.710938 135.304688 C 247.34375 136.140625 246.835938 136.878906 246.183594 137.519531 L 196.96875 186.734375 L 185.726562 189.257812 Z M 188.261719 178.027344 " fill-opacity="1" fill-rule="nonzero"/><g clip-path="url(#5d3b7dd227)"><path fill="#000000" d="M 143.355469 262.496094 L 205.058594 262.496094 C 206.070312 262.496094 207.078125 262.445312 208.082031 262.34375 C 209.085938 262.246094 210.085938 262.09375 211.074219 261.898438 C 212.066406 261.699219 213.042969 261.453125 214.011719 261.160156 C 214.976562 260.867188 215.925781 260.527344 216.859375 260.136719 C 217.792969 259.75 218.703125 259.320312 219.59375 258.84375 C 220.484375 258.367188 221.351562 257.847656 222.191406 257.285156 C 223.03125 256.722656 223.839844 256.125 224.621094 255.480469 C 225.402344 254.839844 226.148438 254.164062 226.863281 253.449219 C 227.578125 252.734375 228.253906 251.988281 228.894531 251.207031 C 229.539062 250.425781 230.136719 249.617188 230.699219 248.777344 C 231.261719 247.9375 231.78125 247.070312 232.257812 246.179688 C 232.734375 245.289062 233.164062 244.378906 233.550781 243.445312 C 233.941406 242.511719 234.28125 241.5625 234.574219 240.597656 C 234.867188 239.628906 235.113281 238.652344 235.3125 237.660156 C 235.511719 236.671875 235.660156 235.671875 235.757812 234.667969 C 235.859375 233.664062 235.910156 232.65625 235.910156 231.644531 L 235.910156 197.582031 C 235.910156 197.179688 235.871094 196.777344 235.792969 196.378906 C 235.714844 195.980469 235.597656 195.597656 235.441406 195.222656 C 235.285156 194.847656 235.097656 194.492188 234.871094 194.15625 C 234.644531 193.820312 234.390625 193.507812 234.105469 193.21875 C 233.816406 192.933594 233.503906 192.679688 233.167969 192.453125 C 232.832031 192.226562 232.476562 192.039062 232.101562 191.882812 C 231.726562 191.726562 231.339844 191.609375 230.945312 191.53125 C 230.546875 191.453125 230.144531 191.414062 229.742188 191.414062 C 229.335938 191.414062 228.933594 191.453125 228.535156 191.53125 C 228.140625 191.609375 227.753906 191.726562 227.378906 191.882812 C 227.003906 192.039062 226.648438 192.226562 226.3125 192.453125 C 225.976562 192.679688 225.664062 192.933594 225.378906 193.21875 C 225.089844 193.507812 224.835938 193.820312 224.609375 194.15625 C 224.386719 194.492188 224.195312 194.847656 224.039062 195.222656 C 223.882812 195.597656 223.769531 195.980469 223.6875 196.378906 C 223.609375 196.777344 223.570312 197.179688 223.570312 197.582031 L 223.570312 231.644531 C 223.570312 232.25 223.539062 232.855469 223.480469 233.457031 C 223.421875 234.0625 223.332031 234.660156 223.214844 235.253906 C 223.097656 235.851562 222.949219 236.4375 222.773438 237.019531 C 222.597656 237.597656 222.394531 238.167969 222.160156 238.726562 C 221.929688 239.289062 221.671875 239.835938 221.382812 240.371094 C 221.097656 240.90625 220.785156 241.425781 220.449219 241.929688 C 220.113281 242.433594 219.753906 242.917969 219.367188 243.386719 C 218.984375 243.855469 218.578125 244.304688 218.148438 244.734375 C 217.71875 245.164062 217.269531 245.570312 216.800781 245.953125 C 216.332031 246.339844 215.847656 246.699219 215.34375 247.035156 C 214.839844 247.371094 214.320312 247.683594 213.785156 247.96875 C 213.25 248.253906 212.703125 248.515625 212.144531 248.746094 C 211.582031 248.980469 211.011719 249.183594 210.433594 249.359375 C 209.851562 249.535156 209.265625 249.683594 208.671875 249.800781 C 208.074219 249.917969 207.476562 250.007812 206.875 250.066406 C 206.269531 250.125 205.664062 250.15625 205.058594 250.15625 L 143.355469 250.15625 C 142.746094 250.15625 142.144531 250.125 141.539062 250.066406 C 140.9375 250.007812 140.335938 249.917969 139.742188 249.800781 C 139.148438 249.683594 138.5625 249.535156 137.980469 249.359375 C 137.398438 249.183594 136.832031 248.980469 136.269531 248.746094 C 135.710938 248.515625 135.164062 248.253906 134.628906 247.96875 C 134.09375 247.683594 133.574219 247.371094 133.070312 247.035156 C 132.566406 246.699219 132.078125 246.339844 131.609375 245.953125 C 131.140625 245.570312 130.691406 245.164062 130.265625 244.734375 C 129.835938 244.304688 129.429688 243.855469 129.042969 243.386719 C 128.660156 242.917969 128.300781 242.433594 127.960938 241.929688 C 127.625 241.425781 127.3125 240.90625 127.027344 240.371094 C 126.742188 239.835938 126.484375 239.289062 126.25 238.726562 C 126.019531 238.167969 125.816406 237.597656 125.640625 237.019531 C 125.464844 236.4375 125.316406 235.851562 125.199219 235.253906 C 125.082031 234.660156 124.992188 234.0625 124.933594 233.457031 C 124.871094 232.855469 124.84375 232.25 124.84375 231.644531 L 124.84375 163.769531 C 124.84375 163.164062 124.871094 162.558594 124.933594 161.953125 C 124.992188 161.351562 125.082031 160.753906 125.199219 160.15625 C 125.316406 159.5625 125.464844 158.976562 125.640625 158.394531 C 125.816406 157.816406 126.019531 157.246094 126.25 156.683594 C 126.484375 156.125 126.742188 155.578125 127.027344 155.042969 C 127.3125 154.507812 127.625 153.988281 127.960938 153.484375 C 128.300781 152.980469 128.660156 152.496094 129.042969 152.027344 C 129.429688 151.558594 129.835938 151.109375 130.265625 150.679688 C 130.691406 150.25 131.140625 149.84375 131.609375 149.460938 C 132.078125 149.074219 132.566406 148.714844 133.070312 148.378906 C 133.574219 148.039062 134.09375 147.730469 134.628906 147.445312 C 135.164062 147.15625 135.710938 146.898438 136.269531 146.667969 C 136.832031 146.433594 137.398438 146.230469 137.980469 146.054688 C 138.5625 145.878906 139.148438 145.730469 139.742188 145.613281 C 140.335938 145.496094 140.9375 145.40625 141.539062 145.347656 C 142.144531 145.289062 142.746094 145.257812 143.355469 145.257812 L 183.585938 145.257812 C 183.992188 145.257812 184.390625 145.21875 184.789062 145.140625 C 185.1875 145.058594 185.574219 144.941406 185.945312 144.789062 C 186.320312 144.632812 186.675781 144.441406 187.011719 144.21875 C 187.351562 143.992188 187.664062 143.738281 187.949219 143.449219 C 188.234375 143.164062 188.492188 142.851562 188.714844 142.515625 C 188.941406 142.179688 189.132812 141.824219 189.285156 141.449219 C 189.441406 141.074219 189.558594 140.6875 189.636719 140.292969 C 189.714844 139.894531 189.757812 139.492188 189.757812 139.085938 C 189.757812 138.683594 189.714844 138.28125 189.636719 137.882812 C 189.558594 137.484375 189.441406 137.101562 189.285156 136.726562 C 189.132812 136.351562 188.941406 135.996094 188.714844 135.660156 C 188.492188 135.324219 188.234375 135.011719 187.949219 134.722656 C 187.664062 134.4375 187.351562 134.183594 187.011719 133.957031 C 186.675781 133.730469 186.320312 133.542969 185.945312 133.386719 C 185.574219 133.230469 185.1875 133.113281 184.789062 133.035156 C 184.390625 132.957031 183.992188 132.917969 183.585938 132.917969 L 143.355469 132.917969 C 142.34375 132.917969 141.335938 132.96875 140.332031 133.070312 C 139.324219 133.167969 138.328125 133.316406 137.335938 133.515625 C 136.347656 133.714844 135.367188 133.960938 134.402344 134.253906 C 133.4375 134.546875 132.484375 134.886719 131.554688 135.277344 C 130.621094 135.664062 129.707031 136.09375 128.816406 136.570312 C 127.925781 137.046875 127.0625 137.566406 126.222656 138.128906 C 125.382812 138.6875 124.570312 139.289062 123.792969 139.929688 C 123.011719 140.574219 122.261719 141.25 121.550781 141.964844 C 120.835938 142.679688 120.15625 143.425781 119.515625 144.207031 C 118.875 144.988281 118.273438 145.796875 117.710938 146.636719 C 117.152344 147.476562 116.632812 148.34375 116.15625 149.234375 C 115.679688 150.125 115.246094 151.035156 114.859375 151.96875 C 114.472656 152.902344 114.132812 153.851562 113.839844 154.816406 C 113.542969 155.785156 113.296875 156.761719 113.101562 157.753906 C 112.902344 158.742188 112.753906 159.742188 112.652344 160.746094 C 112.554688 161.75 112.503906 162.757812 112.5 163.769531 L 112.5 231.644531 C 112.503906 232.65625 112.554688 233.664062 112.652344 234.667969 C 112.753906 235.671875 112.902344 236.671875 113.101562 237.660156 C 113.296875 238.652344 113.542969 239.628906 113.839844 240.597656 C 114.132812 241.5625 114.472656 242.511719 114.859375 243.445312 C 115.246094 244.378906 115.679688 245.289062 116.15625 246.179688 C 116.632812 247.070312 117.152344 247.9375 117.710938 248.777344 C 118.273438 249.617188 118.875 250.425781 119.515625 251.207031 C 120.15625 251.988281 120.835938 252.734375 121.550781 253.449219 C 122.261719 254.164062 123.011719 254.839844 123.792969 255.480469 C 124.570312 256.125 125.382812 256.722656 126.222656 257.285156 C 127.0625 257.847656 127.925781 258.367188 128.816406 258.84375 C 129.707031 259.320312 130.621094 259.75 131.554688 260.136719 C 132.484375 260.527344 133.4375 260.867188 134.402344 261.160156 C 135.367188 261.453125 136.347656 261.699219 137.335938 261.898438 C 138.328125 262.09375 139.324219 262.246094 140.332031 262.34375 C 141.335938 262.445312 142.34375 262.496094 143.355469 262.496094 Z M 143.355469 262.496094 " fill-opacity="1" fill-rule="nonzero"/></g></svg>