<svg xmlns="http://www.w3.org/2000/svg" xmlns:xlink="http://www.w3.org/1999/xlink" width="500" zoomAndPan="magnify" viewBox="0 0 375 374.999991" height="500" preserveAspectRatio="xMidYMid meet" version="1.0"><defs><clipPath id="03f248c9bf"><path d="M 100.253906 100.253906 L 275.003906 100.253906 L 275.003906 275.003906 L 100.253906 275.003906 Z M 100.253906 100.253906 " clip-rule="nonzero"/></clipPath></defs><g clip-path="url(#03f248c9bf)"><path stroke-linecap="butt" transform="matrix(6.644486, 0, 0, 6.644486, 80.319916, 80.319912)" fill="none" stroke-linejoin="miter" d="M 19.000188 10.000128 C 19.000188 10.196484 18.990194 10.392253 18.971381 10.588021 C 18.951981 10.78379 18.923174 10.977795 18.884961 11.170624 C 18.84616 11.363453 18.79854 11.55393 18.741515 11.741468 C 18.684489 11.929594 18.618645 12.11478 18.543395 12.295852 C 18.468144 12.477511 18.384075 12.655055 18.291776 12.828483 C 18.198889 13.001912 18.097771 13.170049 17.989011 13.333484 C 17.879663 13.496918 17.762672 13.654473 17.638039 13.80615 C 17.513405 13.958414 17.381717 14.103624 17.242386 14.242367 C 17.103644 14.381698 16.958434 14.513386 16.806169 14.638019 C 16.654493 14.762653 16.496938 14.879643 16.333503 14.988992 C 16.170069 15.097752 16.001931 15.198869 15.828503 15.291757 C 15.655074 15.384056 15.47753 15.468125 15.295871 15.543375 C 15.1148 15.618625 14.929614 15.684469 14.741488 15.741495 C 14.55395 15.798521 14.363472 15.84614 14.170643 15.884941 C 13.977814 15.923154 13.783809 15.951961 13.588041 15.971361 C 13.392272 15.990174 13.196504 16.000168 13.000147 16.000168 C 12.803203 16.000168 12.607435 15.990174 12.411666 15.971361 C 12.216485 15.951961 12.022481 15.923154 11.829651 15.884941 C 11.636822 15.84614 11.446345 15.798521 11.258219 15.741495 C 11.070093 15.684469 10.885495 15.618625 10.703836 15.543375 C 10.522176 15.468125 10.344633 15.384056 10.171792 15.291757 C 9.998363 15.198869 9.830226 15.097752 9.666792 14.988992 C 9.503357 14.879643 9.345802 14.762653 9.193537 14.638019 C 9.041861 14.513386 8.896063 14.381698 8.75732 14.242367 C 8.618578 14.103624 8.486889 13.958414 8.361668 13.80615 C 8.237035 13.654473 8.120632 13.496918 8.011284 13.333484 C 7.901935 13.170049 7.800818 13.001912 7.708518 12.828483 C 7.615631 12.655055 7.53215 12.477511 7.4569 12.295852 C 7.38165 12.11478 7.315218 11.929594 7.258192 11.741468 C 7.201166 11.55393 7.153547 11.363453 7.115334 11.170624 C 7.077121 10.977795 7.048314 10.78379 7.028914 10.588021 C 7.009513 10.392253 7.000107 10.196484 7.000107 10.000128 C 7.000107 9.803771 7.009513 9.607415 7.028914 9.411646 C 7.048314 9.216466 7.077121 9.022461 7.115334 8.829632 C 7.153547 8.636803 7.201166 8.446325 7.258192 8.2582 C 7.315218 8.070074 7.38165 7.885475 7.4569 7.703816 C 7.53215 7.522157 7.615631 7.345201 7.708518 7.171772 C 7.800818 6.998344 7.901935 6.830206 8.011284 6.666772 C 8.120632 6.503338 8.237035 6.345782 8.361668 6.193518 C 8.486889 6.041841 8.618578 5.896044 8.75732 5.757301 C 8.896063 5.618558 9.041861 5.48687 9.193537 5.361649 C 9.345802 5.237015 9.503357 5.120612 9.666792 5.011264 C 9.830226 4.901916 9.998363 4.801386 10.171792 4.708499 C 10.344633 4.615612 10.522176 4.532131 10.703836 4.456881 C 10.885495 4.38163 11.070093 4.315198 11.258219 4.258173 C 11.446345 4.201147 11.636822 4.153528 11.829651 4.115314 C 12.022481 4.077101 12.216485 4.048295 12.411666 4.028894 C 12.607435 4.009494 12.803203 4.000087 13.000147 4.000087 C 13.196504 4.000087 13.392272 4.009494 13.588041 4.028894 C 13.783809 4.048295 13.977814 4.077101 14.170643 4.115314 C 14.363472 4.153528 14.55395 4.201147 14.741488 4.258173 C 14.929614 4.315198 15.1148 4.38163 15.295871 4.456881 C 15.47753 4.532131 15.655074 4.615612 15.828503 4.708499 C 16.001931 4.801386 16.170069 4.901916 16.333503 5.011264 C 16.496938 5.120612 16.654493 5.237015 16.806169 5.361649 C 16.958434 5.48687 17.103644 5.618558 17.242386 5.757301 C 17.381717 5.896044 17.513405 6.041841 17.638039 6.193518 C 17.762672 6.345782 17.879663 6.503338 17.989011 6.666772 C 18.097771 6.830206 18.198889 6.998344 18.291776 7.171772 C 18.384075 7.345201 18.468144 7.522157 18.543395 7.703816 C 18.618645 7.885475 18.684489 8.070074 18.741515 8.2582 C 18.79854 8.446325 18.84616 8.636803 18.884961 8.829632 C 18.923174 9.022461 18.951981 9.216466 18.971381 9.411646 C 18.990194 9.607415 19.000188 9.803771 19.000188 10.000128 Z M 19.000188 10.000128 " stroke="#000000" stroke-width="2" stroke-opacity="1" stroke-miterlimit="10"/><path stroke-linecap="butt" transform="matrix(6.644486, 0, 0, 6.644486, 80.319916, 80.319912)" fill="none" stroke-linejoin="miter" d="M 4.000087 25.000229 C 4.000087 20.029002 8.02892 16.000168 13.000147 16.000168 C 15.720918 16.000168 18.158912 17.207113 19.809717 19.114828 " stroke="#000000" stroke-width="2" stroke-opacity="1" stroke-miterlimit="10"/><path stroke-linecap="butt" transform="matrix(6.644486, 0, 0, 6.644486, 80.319916, 80.319912)" fill="none" stroke-linejoin="miter" d="M 17.529866 27.294189 L 14.000154 28.000249 L 14.706214 24.469949 L 24.591054 14.585109 C 25.371189 13.804974 26.63516 13.804974 27.414707 14.585109 C 28.194841 15.365243 28.194841 16.629214 27.414707 17.408761 Z M 17.529866 27.294189 " stroke="#000000" stroke-width="2" stroke-opacity="1" stroke-miterlimit="10"/></g></svg>