<svg xmlns="http://www.w3.org/2000/svg" xmlns:xlink="http://www.w3.org/1999/xlink" width="500" zoomAndPan="magnify" viewBox="0 0 375 374.999991" height="500" preserveAspectRatio="xMidYMid meet" version="1.0"><defs><clipPath id="9220dd606e"><path d="M 0 59 L 368.25 59 L 368.25 321 L 0 321 Z M 0 59 " clip-rule="nonzero"/></clipPath></defs><g clip-path="url(#9220dd606e)"><path fill="#545454" d="M 89.808594 216.527344 L 149.011719 275.699219 C 159.277344 285.925781 159.246094 302.589844 148.980469 312.816406 C 138.714844 323.109375 122.042969 323.078125 111.808594 312.847656 L 8.042969 209.140625 C 7.8125 208.914062 7.550781 208.652344 7.324219 208.390625 C 2.777344 203.683594 0 197.28125 0 190.222656 C 0 187.152344 0.523438 184.179688 1.503906 181.433594 C 2.714844 177.445312 4.871094 173.691406 8.042969 170.519531 L 111.808594 66.8125 C 122.042969 56.585938 138.714844 56.585938 148.980469 66.84375 C 159.246094 77.105469 159.277344 93.734375 149.011719 103.996094 L 89.054688 163.921875 L 341.898438 163.921875 C 356.480469 163.921875 368.25 175.75 368.25 190.222656 C 368.25 204.730469 356.511719 216.527344 341.898438 216.527344 L 89.808594 216.527344 " fill-opacity="1" fill-rule="nonzero"/></g></svg>