<svg xmlns="http://www.w3.org/2000/svg" xmlns:xlink="http://www.w3.org/1999/xlink" width="500" zoomAndPan="magnify" viewBox="0 0 375 374.999991" height="500" preserveAspectRatio="xMidYMid meet" version="1.0"><defs><clipPath id="07249e940b"><path d="M 112.5 112.5 L 262.5 112.5 L 262.5 262.5 L 112.5 262.5 Z M 112.5 112.5 " clip-rule="nonzero"/></clipPath></defs><g clip-path="url(#07249e940b)"><path fill="#040606" d="M 187.5 126.164062 C 153.636719 126.164062 126.164062 153.636719 126.164062 187.5 C 126.164062 221.363281 153.636719 248.835938 187.5 248.835938 C 221.363281 248.835938 248.835938 221.363281 248.835938 187.5 C 248.835938 153.636719 221.363281 126.164062 187.5 126.164062 Z M 187.5 112.5 C 228.886719 112.5 262.5 146.03125 262.5 187.5 C 262.5 228.96875 228.96875 262.5 187.5 262.5 C 146.03125 262.5 112.5 228.886719 112.5 187.5 C 112.5 146.113281 146.113281 112.5 187.5 112.5 " fill-opacity="1" fill-rule="nonzero"/></g><path fill="#040606" d="M 207.382812 150.691406 C 204.839844 148.402344 201.070312 148.320312 198.460938 150.371094 L 197.726562 151.023438 L 167.21875 184.144531 C 165.007812 186.59375 164.847656 190.191406 166.726562 192.734375 L 167.457031 193.558594 L 197.96875 224.054688 C 200.671875 226.757812 204.917969 226.757812 207.621094 224.054688 C 210.070312 221.605469 210.230469 217.847656 208.273438 215.144531 L 207.621094 214.414062 L 181.773438 188.566406 L 207.859375 160.265625 C 210.152344 157.722656 210.230469 153.96875 208.195312 151.34375 L 207.382812 150.691406 " fill-opacity="1" fill-rule="nonzero"/></svg>