<svg xmlns="http://www.w3.org/2000/svg" xmlns:xlink="http://www.w3.org/1999/xlink" width="500" zoomAndPan="magnify" viewBox="0 0 375 374.999991" height="500" preserveAspectRatio="xMidYMid meet" version="1.0"><defs><clipPath id="1f0a5572dc"><path d="M 23.484375 99 L 348.984375 99 L 348.984375 275 L 23.484375 275 Z M 23.484375 99 " clip-rule="nonzero"/></clipPath><clipPath id="70cb01760f"><path d="M 23.484375 99 L 348.984375 99 L 348.984375 275.179688 L 23.484375 275.179688 Z M 23.484375 99 " clip-rule="nonzero"/></clipPath></defs><g clip-path="url(#1f0a5572dc)"><path fill="#272324" d="M 268.152344 264.285156 C 267.359375 252.039062 263.84375 240.085938 257.859375 229.425781 C 257.859375 229.425781 257.859375 229.421875 257.859375 229.421875 C 265.621094 224.335938 274.574219 221.65625 283.957031 221.65625 L 287.089844 221.65625 C 287.109375 221.65625 287.132812 221.65625 287.152344 221.65625 C 287.171875 221.65625 287.191406 221.65625 287.210938 221.65625 L 290.351562 221.65625 C 314.925781 221.65625 335.234375 240.339844 337.890625 264.285156 Z M 115.375 264.285156 C 116.15625 253.796875 119.234375 243.582031 124.386719 234.457031 C 137.019531 212.089844 160.757812 198.191406 186.363281 198.164062 C 186.386719 198.164062 186.410156 198.164062 186.433594 198.164062 C 186.460938 198.164062 186.488281 198.164062 186.515625 198.164062 C 205.515625 198.1875 223.378906 205.617188 236.820312 219.09375 C 241.441406 223.726562 245.398438 228.960938 248.585938 234.652344 C 253.675781 243.722656 256.714844 253.871094 257.492188 264.285156 Z M 82.105469 221.65625 L 85.242188 221.65625 C 85.261719 221.65625 85.28125 221.65625 85.304688 221.65625 C 85.324219 221.65625 85.34375 221.65625 85.363281 221.65625 L 88.496094 221.65625 C 98.003906 221.65625 107.070312 224.40625 114.902344 229.625 C 108.988281 240.238281 105.503906 252.105469 104.714844 264.285156 L 34.566406 264.285156 C 37.21875 240.339844 57.527344 221.65625 82.105469 221.65625 Z M 85.304688 161.382812 C 98.941406 161.382812 110.039062 172.507812 110.039062 186.183594 C 110.039062 199.839844 98.976562 210.953125 85.363281 210.988281 L 85.242188 210.988281 C 71.628906 210.953125 60.566406 199.839844 60.566406 186.183594 C 60.566406 172.507812 71.664062 161.382812 85.304688 161.382812 Z M 147.707031 148.660156 C 147.707031 127.246094 165.078125 109.824219 186.433594 109.824219 C 207.789062 109.824219 225.160156 127.246094 225.160156 148.660156 C 225.160156 170.058594 207.816406 187.464844 186.488281 187.496094 C 186.46875 187.496094 186.449219 187.496094 186.429688 187.496094 C 186.414062 187.496094 186.398438 187.496094 186.382812 187.496094 C 165.050781 187.46875 147.707031 170.058594 147.707031 148.660156 Z M 287.152344 161.382812 C 300.789062 161.382812 311.886719 172.507812 311.886719 186.183594 C 311.886719 199.839844 300.824219 210.953125 287.210938 210.988281 L 287.089844 210.988281 C 273.480469 210.953125 262.417969 199.839844 262.417969 186.183594 C 262.417969 172.507812 273.511719 161.382812 287.152344 161.382812 Z M 309.003906 214.046875 C 317.230469 207.546875 322.527344 197.476562 322.527344 186.183594 C 322.527344 166.625 306.65625 150.710938 287.152344 150.710938 C 267.644531 150.710938 251.777344 166.625 251.777344 186.183594 C 251.777344 197.46875 257.066406 207.53125 265.277344 214.03125 C 260.640625 215.597656 256.207031 217.761719 252.050781 220.488281 C 249.699219 217.335938 247.128906 214.34375 244.34375 211.550781 C 234.953125 202.132812 223.679688 195.292969 211.382812 191.363281 C 225.980469 182.753906 235.800781 166.835938 235.800781 148.660156 C 235.800781 121.363281 213.65625 99.15625 186.433594 99.15625 C 159.210938 99.15625 137.066406 121.363281 137.066406 148.660156 C 137.066406 166.863281 146.914062 182.800781 161.550781 191.402344 C 145.339844 196.601562 130.976562 206.792969 120.683594 220.671875 C 116.445312 217.859375 111.917969 215.632812 107.175781 214.03125 C 115.390625 207.53125 120.675781 197.46875 120.675781 186.183594 C 120.675781 166.625 104.808594 150.710938 85.304688 150.710938 C 65.796875 150.710938 49.929688 166.625 49.929688 186.183594 C 49.929688 197.476562 55.222656 207.546875 63.449219 214.046875 C 40.328125 221.875 23.632812 243.828125 23.632812 269.621094 C 23.632812 272.566406 26.015625 274.957031 28.953125 274.957031 L 109.257812 274.957031 C 109.367188 274.957031 109.46875 274.945312 109.574219 274.9375 C 109.667969 274.945312 109.761719 274.953125 109.859375 274.953125 L 263.007812 274.953125 C 263.035156 274.953125 263.058594 274.949219 263.085938 274.949219 C 263.121094 274.949219 263.160156 274.957031 263.195312 274.957031 L 343.5 274.957031 C 346.441406 274.957031 348.820312 272.566406 348.820312 269.621094 C 348.820312 243.828125 332.128906 221.875 309.003906 214.046875 " fill-opacity="1" fill-rule="nonzero"/></g><g clip-path="url(#70cb01760f)"><path fill="#272324" d="M 186.488281 187.644531 L 186.457031 187.644531 L 186.429688 187.496094 L 186.433594 187.347656 L 186.460938 187.347656 C 207.730469 187.320312 225.015625 169.964844 225.015625 148.660156 C 225.015625 127.328125 207.707031 109.972656 186.433594 109.972656 C 165.160156 109.972656 147.851562 127.328125 147.851562 148.660156 C 147.851562 169.964844 165.136719 187.320312 186.382812 187.347656 L 186.429688 187.496094 L 186.410156 187.644531 C 164.972656 187.617188 147.558594 170.128906 147.558594 148.660156 C 147.558594 127.164062 164.996094 109.675781 186.433594 109.675781 C 207.871094 109.675781 225.308594 127.164062 225.308594 148.660156 C 225.308594 170.128906 207.894531 187.613281 186.488281 187.644531 Z M 85.300781 161.53125 C 71.746094 161.53125 60.714844 172.589844 60.714844 186.183594 C 60.714844 199.746094 71.71875 210.804688 85.242188 210.839844 L 85.363281 210.839844 C 98.886719 210.804688 109.890625 199.746094 109.890625 186.183594 C 109.890625 172.589844 98.859375 161.53125 85.300781 161.53125 Z M 85.363281 211.136719 L 85.242188 211.136719 C 71.554688 211.101562 60.417969 199.910156 60.417969 186.183594 C 60.417969 172.425781 71.582031 161.234375 85.300781 161.234375 C 99.023438 161.234375 110.1875 172.425781 110.1875 186.183594 C 110.1875 199.910156 99.050781 211.101562 85.363281 211.136719 Z M 287.152344 161.53125 C 273.59375 161.53125 262.5625 172.589844 262.5625 186.183594 C 262.5625 199.746094 273.566406 210.804688 287.089844 210.839844 L 287.210938 210.839844 C 300.738281 210.804688 311.738281 199.746094 311.738281 186.183594 C 311.738281 172.589844 300.710938 161.53125 287.152344 161.53125 Z M 287.214844 211.136719 L 287.089844 211.136719 C 273.402344 211.101562 262.269531 199.910156 262.269531 186.183594 C 262.269531 172.425781 273.429688 161.234375 287.152344 161.234375 C 300.871094 161.234375 312.035156 172.425781 312.035156 186.183594 C 312.035156 199.910156 300.902344 211.101562 287.214844 211.136719 Z M 115.535156 264.136719 L 257.332031 264.136719 C 256.539062 253.828125 253.472656 243.664062 248.457031 234.726562 C 245.277344 229.046875 241.324219 223.824219 236.714844 219.199219 C 223.304688 205.753906 205.476562 198.335938 186.515625 198.3125 L 186.363281 198.3125 C 160.8125 198.339844 137.117188 212.214844 124.519531 234.53125 C 119.4375 243.523438 116.332031 253.753906 115.535156 264.136719 Z M 257.648438 264.433594 L 115.21875 264.433594 L 115.230469 264.273438 C 116.011719 253.792969 119.132812 243.460938 124.261719 234.386719 C 136.910156 211.976562 160.707031 198.042969 186.363281 198.015625 L 186.515625 198.015625 C 205.554688 198.039062 223.457031 205.488281 236.925781 218.992188 C 241.554688 223.632812 245.519531 228.875 248.714844 234.582031 C 253.777344 243.601562 256.863281 253.867188 257.636719 264.273438 Z M 34.730469 264.136719 L 104.574219 264.136719 C 105.378906 252.082031 108.878906 240.171875 114.707031 229.671875 C 106.929688 224.523438 97.871094 221.804688 88.496094 221.804688 L 82.105469 221.804688 C 57.828125 221.804688 37.492188 239.992188 34.730469 264.136719 Z M 104.851562 264.433594 L 34.398438 264.433594 L 34.417969 264.269531 C 35.710938 252.59375 41.25 241.800781 50.015625 233.882812 C 58.84375 225.902344 70.238281 221.507812 82.105469 221.507812 L 88.496094 221.507812 C 97.976562 221.507812 107.132812 224.273438 114.984375 229.5 L 115.097656 229.578125 L 115.03125 229.699219 C 109.164062 240.226562 105.648438 252.191406 104.859375 264.296875 Z M 268.292969 264.136719 L 337.722656 264.136719 C 334.960938 239.992188 314.625 221.804688 290.351562 221.804688 L 283.957031 221.804688 C 274.710938 221.804688 265.757812 224.457031 258.054688 229.472656 C 263.945312 240.007812 267.484375 251.988281 268.292969 264.136719 Z M 338.054688 264.433594 L 268.015625 264.433594 L 268.003906 264.296875 C 267.214844 252.101562 263.664062 240.066406 257.730469 229.496094 L 257.664062 229.375 L 257.777344 229.296875 C 265.554688 224.203125 274.609375 221.507812 283.957031 221.507812 L 290.351562 221.507812 C 302.214844 221.507812 313.609375 225.902344 322.441406 233.882812 C 331.203125 241.800781 336.742188 252.59375 338.039062 264.269531 Z M 263.085938 274.800781 C 263.109375 274.800781 263.128906 274.804688 263.148438 274.804688 C 263.164062 274.804688 263.179688 274.808594 263.195312 274.808594 L 343.5 274.808594 C 346.355469 274.808594 348.675781 272.480469 348.675781 269.621094 C 348.675781 244.503906 332.714844 222.226562 308.957031 214.1875 L 308.699219 214.101562 L 308.914062 213.929688 C 317.472656 207.167969 322.378906 197.054688 322.378906 186.183594 C 322.378906 166.707031 306.574219 150.859375 287.152344 150.859375 C 267.726562 150.859375 251.925781 166.707031 251.925781 186.183594 C 251.925781 197.042969 256.824219 207.152344 265.371094 213.914062 L 265.585938 214.085938 L 265.324219 214.171875 C 260.714844 215.730469 256.273438 217.894531 252.128906 220.609375 L 252.015625 220.6875 L 251.933594 220.574219 C 249.570312 217.410156 246.980469 214.40625 244.238281 211.65625 C 235.007812 202.398438 223.628906 195.429688 211.335938 191.503906 L 211.019531 191.402344 L 211.304688 191.234375 C 226.324219 182.378906 235.652344 166.066406 235.652344 148.660156 C 235.652344 121.445312 213.574219 99.304688 186.433594 99.304688 C 159.292969 99.304688 137.214844 121.445312 137.214844 148.660156 C 137.214844 166.097656 146.566406 182.425781 161.625 191.273438 L 161.910156 191.441406 L 161.59375 191.542969 C 145.179688 196.8125 131.074219 206.914062 120.800781 220.761719 L 120.71875 220.871094 L 120.601562 220.796875 C 116.378906 217.992188 111.84375 215.765625 107.128906 214.171875 L 106.871094 214.085938 L 107.082031 213.914062 C 115.628906 207.152344 120.527344 197.042969 120.527344 186.183594 C 120.527344 166.707031 104.726562 150.859375 85.300781 150.859375 C 65.878906 150.859375 50.074219 166.707031 50.074219 186.183594 C 50.074219 197.054688 54.984375 207.167969 63.539062 213.929688 L 63.753906 214.101562 L 63.496094 214.1875 C 39.742188 222.226562 23.78125 244.503906 23.78125 269.621094 C 23.78125 272.480469 26.101562 274.808594 28.953125 274.808594 L 109.257812 274.808594 C 109.335938 274.808594 109.40625 274.800781 109.480469 274.796875 L 109.566406 274.789062 L 109.671875 274.796875 C 109.734375 274.800781 109.796875 274.804688 109.859375 274.804688 L 263.007812 274.804688 Z M 343.5 275.105469 L 263.195312 275.105469 C 263.171875 275.105469 263.148438 275.101562 263.125 275.101562 L 263.082031 275.097656 C 263.042969 275.101562 263.023438 275.101562 263.007812 275.101562 L 109.859375 275.101562 C 109.789062 275.101562 109.722656 275.097656 109.652344 275.09375 L 109.566406 275.085938 L 109.5 275.09375 C 109.421875 275.097656 109.339844 275.105469 109.257812 275.105469 L 28.953125 275.105469 C 25.9375 275.105469 23.484375 272.644531 23.484375 269.621094 C 23.484375 244.46875 39.410156 222.148438 63.144531 213.996094 C 54.648438 207.175781 49.78125 197.054688 49.78125 186.183594 C 49.78125 166.542969 65.714844 150.5625 85.300781 150.5625 C 104.890625 150.5625 120.824219 166.542969 120.824219 186.183594 C 120.824219 197.046875 115.964844 207.160156 107.480469 213.980469 C 112.085938 215.558594 116.511719 217.738281 120.648438 220.46875 C 130.882812 206.71875 144.894531 196.664062 161.191406 191.363281 C 153.984375 187.0625 147.9375 180.960938 143.691406 173.707031 C 139.261719 166.132812 136.917969 157.472656 136.917969 148.660156 C 136.917969 121.28125 159.128906 99.007812 186.433594 99.007812 C 213.734375 99.007812 235.949219 121.28125 235.949219 148.660156 C 235.949219 157.460938 233.613281 166.109375 229.191406 173.675781 C 224.960938 180.921875 218.929688 187.015625 211.738281 191.324219 C 223.957031 195.28125 235.261719 202.234375 244.445312 211.445312 C 247.167969 214.175781 249.738281 217.148438 252.085938 220.285156 C 256.140625 217.644531 260.472656 215.523438 264.972656 213.980469 C 256.488281 207.160156 251.628906 197.046875 251.628906 186.183594 C 251.628906 166.542969 267.566406 150.5625 287.152344 150.5625 C 306.738281 150.5625 322.675781 166.542969 322.675781 186.183594 C 322.675781 197.054688 317.804688 207.175781 309.308594 213.996094 C 333.042969 222.148438 348.96875 244.46875 348.96875 269.621094 C 348.96875 272.644531 346.515625 275.105469 343.5 275.105469 " fill-opacity="1" fill-rule="nonzero"/></g></svg>