<svg xmlns="http://www.w3.org/2000/svg" xmlns:xlink="http://www.w3.org/1999/xlink" width="500" zoomAndPan="magnify" viewBox="0 0 375 374.999991" height="500" preserveAspectRatio="xMidYMid meet" version="1.0"><path fill="#ff7175" d="M 300.171875 200.585938 C 298.851562 200.585938 297.535156 200.519531 296.222656 200.390625 C 294.90625 200.261719 293.605469 200.066406 292.308594 199.808594 C 291.015625 199.550781 289.734375 199.230469 288.472656 198.847656 C 287.210938 198.460938 285.96875 198.019531 284.75 197.511719 C 283.53125 197.007812 282.339844 196.441406 281.175781 195.820312 C 280.011719 195.195312 278.882812 194.515625 277.785156 193.78125 C 276.6875 193.050781 275.628906 192.261719 274.609375 191.425781 C 273.589844 190.585938 272.613281 189.699219 271.679688 188.765625 C 270.746094 187.832031 269.859375 186.851562 269.023438 185.832031 C 268.1875 184.8125 267.402344 183.75 266.667969 182.652344 C 265.933594 181.554688 265.257812 180.421875 264.636719 179.257812 C 264.015625 178.089844 263.449219 176.898438 262.945312 175.675781 C 262.441406 174.457031 261.996094 173.214844 261.613281 171.949219 C 261.230469 170.6875 260.910156 169.40625 260.652344 168.109375 C 260.394531 166.816406 260.203125 165.507812 260.074219 164.195312 C 259.945312 162.878906 259.878906 161.5625 259.878906 160.242188 C 259.878906 158.917969 259.945312 157.601562 260.074219 156.285156 C 260.203125 154.972656 260.398438 153.667969 260.65625 152.371094 C 260.914062 151.074219 261.234375 149.796875 261.617188 148.53125 C 262 147.265625 262.445312 146.023438 262.949219 144.804688 C 263.457031 143.582031 264.019531 142.390625 264.640625 141.226562 C 265.261719 140.0625 265.941406 138.929688 266.675781 137.832031 C 267.40625 136.734375 268.191406 135.671875 269.03125 134.652344 C 269.867188 133.628906 270.753906 132.652344 271.6875 131.71875 C 272.621094 130.785156 273.597656 129.898438 274.617188 129.0625 C 275.636719 128.222656 276.695312 127.4375 277.792969 126.703125 C 278.890625 125.96875 280.023438 125.289062 281.1875 124.667969 C 282.351562 124.046875 283.542969 123.480469 284.761719 122.976562 C 285.980469 122.472656 287.222656 122.027344 288.484375 121.644531 C 289.746094 121.257812 291.027344 120.9375 292.320312 120.679688 C 293.613281 120.425781 294.917969 120.230469 296.230469 120.101562 C 297.546875 119.972656 298.863281 119.90625 300.183594 119.90625 C 301.5 119.90625 302.816406 119.972656 304.132812 120.101562 C 305.445312 120.230469 306.75 120.425781 308.042969 120.683594 C 309.335938 120.941406 310.617188 121.261719 311.878906 121.644531 C 313.140625 122.027344 314.382812 122.472656 315.601562 122.980469 C 316.820312 123.484375 318.011719 124.050781 319.175781 124.671875 C 320.339844 125.296875 321.472656 125.972656 322.570312 126.707031 C 323.664062 127.441406 324.722656 128.226562 325.746094 129.066406 C 326.765625 129.90625 327.742188 130.789062 328.675781 131.726562 C 329.605469 132.660156 330.492188 133.636719 331.328125 134.660156 C 332.167969 135.679688 332.953125 136.738281 333.683594 137.839844 C 334.417969 138.9375 335.097656 140.070312 335.71875 141.234375 C 336.339844 142.398438 336.902344 143.589844 337.40625 144.8125 C 337.914062 146.03125 338.355469 147.273438 338.738281 148.539062 C 339.125 149.804688 339.441406 151.082031 339.699219 152.378906 C 339.957031 153.675781 340.152344 154.980469 340.28125 156.296875 C 340.410156 157.609375 340.472656 158.929688 340.472656 160.25 C 340.472656 161.570312 340.40625 162.886719 340.277344 164.203125 C 340.148438 165.515625 339.953125 166.824219 339.695312 168.117188 C 339.4375 169.414062 339.117188 170.691406 338.734375 171.957031 C 338.351562 173.222656 337.90625 174.464844 337.398438 175.683594 C 336.894531 176.902344 336.332031 178.097656 335.707031 179.261719 C 335.085938 180.425781 334.40625 181.558594 333.675781 182.65625 C 332.941406 183.753906 332.15625 184.8125 331.316406 185.835938 C 330.480469 186.855469 329.59375 187.832031 328.660156 188.765625 C 327.730469 189.703125 326.75 190.585938 325.730469 191.425781 C 324.710938 192.261719 323.652344 193.050781 322.554688 193.78125 C 321.457031 194.515625 320.328125 195.195312 319.164062 195.816406 C 318 196.441406 316.808594 197.003906 315.589844 197.511719 C 314.371094 198.015625 313.128906 198.460938 311.867188 198.84375 C 310.605469 199.230469 309.324219 199.550781 308.03125 199.808594 C 306.738281 200.066406 305.433594 200.257812 304.121094 200.390625 C 302.804688 200.519531 301.488281 200.585938 300.171875 200.585938 Z M 300.171875 128.351562 C 299.128906 128.351562 298.085938 128.402344 297.046875 128.507812 C 296.007812 128.609375 294.976562 128.761719 293.953125 128.964844 C 292.929688 129.167969 291.921875 129.421875 290.921875 129.726562 C 289.921875 130.027344 288.941406 130.378906 287.976562 130.78125 C 287.011719 131.179688 286.070312 131.625 285.152344 132.117188 C 284.230469 132.609375 283.335938 133.148438 282.46875 133.726562 C 281.601562 134.308594 280.765625 134.929688 279.957031 135.589844 C 279.152344 136.253906 278.378906 136.953125 277.640625 137.691406 C 276.902344 138.433594 276.203125 139.203125 275.539062 140.011719 C 274.878906 140.820312 274.257812 141.65625 273.679688 142.527344 C 273.097656 143.394531 272.5625 144.289062 272.070312 145.210938 C 271.578125 146.132812 271.132812 147.074219 270.734375 148.039062 C 270.335938 149.003906 269.984375 149.988281 269.679688 150.988281 C 269.378906 151.988281 269.125 153 268.921875 154.023438 C 268.714844 155.046875 268.5625 156.078125 268.460938 157.117188 C 268.359375 158.160156 268.308594 159.199219 268.308594 160.246094 C 268.308594 161.289062 268.359375 162.332031 268.460938 163.371094 C 268.5625 164.410156 268.714844 165.441406 268.917969 166.46875 C 269.121094 167.492188 269.375 168.503906 269.679688 169.503906 C 269.980469 170.503906 270.332031 171.484375 270.730469 172.449219 C 271.132812 173.414062 271.578125 174.359375 272.070312 175.28125 C 272.5625 176.203125 273.097656 177.097656 273.675781 177.964844 C 274.253906 178.832031 274.875 179.671875 275.539062 180.480469 C 276.199219 181.285156 276.898438 182.058594 277.636719 182.796875 C 278.375 183.535156 279.148438 184.238281 279.953125 184.898438 C 280.761719 185.5625 281.597656 186.183594 282.464844 186.765625 C 283.332031 187.34375 284.226562 187.882812 285.148438 188.375 C 286.066406 188.867188 287.011719 189.3125 287.972656 189.710938 C 288.9375 190.113281 289.917969 190.464844 290.917969 190.765625 C 291.917969 191.070312 292.925781 191.324219 293.949219 191.527344 C 294.972656 191.730469 296.003906 191.886719 297.042969 191.988281 C 298.082031 192.089844 299.121094 192.140625 300.167969 192.140625 C 301.210938 192.140625 302.25 192.089844 303.289062 191.988281 C 304.328125 191.886719 305.359375 191.734375 306.382812 191.527344 C 307.40625 191.324219 308.417969 191.070312 309.414062 190.769531 C 310.414062 190.464844 311.394531 190.113281 312.359375 189.714844 C 313.324219 189.3125 314.265625 188.867188 315.1875 188.375 C 316.105469 187.882812 317 187.347656 317.867188 186.765625 C 318.734375 186.1875 319.574219 185.566406 320.378906 184.902344 C 321.1875 184.238281 321.957031 183.539062 322.695312 182.800781 C 323.433594 182.0625 324.132812 181.289062 324.796875 180.480469 C 325.457031 179.675781 326.078125 178.835938 326.660156 177.96875 C 327.238281 177.101562 327.773438 176.203125 328.265625 175.285156 C 328.757812 174.363281 329.203125 173.417969 329.601562 172.453125 C 330.003906 171.488281 330.355469 170.507812 330.65625 169.507812 C 330.960938 168.507812 331.214844 167.496094 331.417969 166.472656 C 331.621094 165.445312 331.773438 164.414062 331.875 163.375 C 331.976562 162.335938 332.027344 161.292969 332.03125 160.25 C 332.027344 159.203125 331.976562 158.164062 331.875 157.125 C 331.769531 156.085938 331.617188 155.054688 331.414062 154.027344 C 331.207031 153.003906 330.953125 151.992188 330.652344 150.992188 C 330.347656 149.996094 329.996094 149.011719 329.597656 148.046875 C 329.195312 147.082031 328.75 146.140625 328.257812 145.21875 C 327.765625 144.300781 327.230469 143.40625 326.652344 142.535156 C 326.070312 141.667969 325.453125 140.832031 324.789062 140.023438 C 324.128906 139.214844 323.429688 138.445312 322.691406 137.703125 C 321.953125 136.964844 321.179688 136.265625 320.375 135.601562 C 319.566406 134.941406 318.730469 134.320312 317.863281 133.738281 C 316.996094 133.15625 316.101562 132.621094 315.183594 132.128906 C 314.261719 131.636719 313.320312 131.191406 312.359375 130.789062 C 311.394531 130.390625 310.414062 130.039062 309.414062 129.734375 C 308.417969 129.429688 307.40625 129.175781 306.382812 128.972656 C 305.359375 128.765625 304.332031 128.613281 303.292969 128.507812 C 302.253906 128.40625 301.214844 128.355469 300.171875 128.351562 Z M 300.171875 128.351562 " fill-opacity="1" fill-rule="nonzero"/><path fill="#ff7175" d="M 370.320312 285.855469 C 369.796875 285.851562 369.292969 285.757812 368.804688 285.566406 C 368.320312 285.378906 367.882812 285.105469 367.496094 284.753906 C 367.113281 284.402344 366.800781 283.992188 366.570312 283.527344 C 366.335938 283.058594 366.195312 282.566406 366.144531 282.042969 L 361.757812 237.320312 C 361.714844 234.898438 361.039062 217.054688 341.933594 217.054688 L 257.871094 217.054688 C 247.328125 217.054688 240.980469 222.269531 239.039062 232.546875 C 238.988281 232.816406 238.910156 233.082031 238.804688 233.339844 C 238.703125 233.597656 238.574219 233.839844 238.421875 234.074219 C 238.269531 234.304688 238.097656 234.519531 237.902344 234.71875 C 237.710938 234.914062 237.496094 235.09375 237.269531 235.25 C 237.039062 235.40625 236.796875 235.539062 236.542969 235.644531 C 236.289062 235.753906 236.023438 235.835938 235.753906 235.894531 C 235.480469 235.949219 235.207031 235.980469 234.929688 235.980469 C 234.652344 235.984375 234.378906 235.960938 234.105469 235.90625 C 233.835938 235.855469 233.570312 235.777344 233.3125 235.675781 C 233.058594 235.570312 232.8125 235.441406 232.582031 235.289062 C 232.347656 235.136719 232.132812 234.964844 231.9375 234.769531 C 231.738281 234.578125 231.5625 234.363281 231.40625 234.136719 C 231.25 233.90625 231.117188 233.664062 231.011719 233.410156 C 230.902344 233.152344 230.820312 232.890625 230.761719 232.617188 C 230.707031 232.347656 230.675781 232.074219 230.675781 231.796875 C 230.671875 231.519531 230.699219 231.242188 230.75 230.96875 C 233.449219 216.757812 243.328125 208.617188 257.871094 208.617188 L 341.933594 208.617188 C 364.28125 208.617188 370.179688 227.125 370.179688 236.914062 L 374.53125 281.21875 C 374.554688 281.496094 374.554688 281.769531 374.527344 282.046875 C 374.5 282.320312 374.445312 282.589844 374.363281 282.855469 C 374.285156 283.121094 374.179688 283.375 374.046875 283.621094 C 373.917969 283.863281 373.765625 284.09375 373.589844 284.304688 C 373.414062 284.519531 373.21875 284.714844 373.003906 284.890625 C 372.789062 285.066406 372.5625 285.21875 372.316406 285.351562 C 372.074219 285.480469 371.820312 285.585938 371.554688 285.667969 C 371.289062 285.746094 371.019531 285.800781 370.746094 285.828125 C 370.601562 285.84375 370.460938 285.851562 370.320312 285.855469 Z M 370.320312 285.855469 " fill-opacity="1" fill-rule="nonzero"/><path fill="#ff7175" d="M 346.265625 285.855469 C 345.761719 285.851562 345.273438 285.765625 344.800781 285.589844 C 344.332031 285.414062 343.902344 285.164062 343.523438 284.835938 C 343.140625 284.507812 342.824219 284.125 342.578125 283.6875 C 342.332031 283.246094 342.167969 282.78125 342.089844 282.28125 L 337.761719 254.421875 C 337.71875 254.148438 337.703125 253.871094 337.714844 253.59375 C 337.726562 253.316406 337.765625 253.042969 337.828125 252.773438 C 337.894531 252.503906 337.984375 252.242188 338.101562 251.988281 C 338.21875 251.738281 338.359375 251.5 338.523438 251.277344 C 338.6875 251.050781 338.871094 250.84375 339.074219 250.65625 C 339.277344 250.46875 339.5 250.304688 339.738281 250.160156 C 339.972656 250.015625 340.222656 249.894531 340.484375 249.796875 C 340.742188 249.703125 341.011719 249.632812 341.285156 249.589844 C 341.558594 249.546875 341.835938 249.53125 342.113281 249.542969 C 342.390625 249.554688 342.664062 249.59375 342.933594 249.660156 C 343.203125 249.726562 343.460938 249.816406 343.714844 249.933594 C 343.964844 250.050781 344.203125 250.191406 344.425781 250.355469 C 344.652344 250.519531 344.859375 250.703125 345.046875 250.90625 C 345.234375 251.113281 345.398438 251.332031 345.542969 251.570312 C 345.6875 251.804688 345.808594 252.054688 345.902344 252.316406 C 346 252.578125 346.066406 252.84375 346.109375 253.117188 L 350.441406 280.980469 C 350.480469 281.253906 350.496094 281.53125 350.484375 281.808594 C 350.472656 282.085938 350.433594 282.359375 350.367188 282.628906 C 350.300781 282.898438 350.210938 283.15625 350.09375 283.410156 C 349.972656 283.660156 349.832031 283.898438 349.667969 284.121094 C 349.503906 284.347656 349.320312 284.550781 349.117188 284.738281 C 348.914062 284.925781 348.691406 285.09375 348.453125 285.234375 C 348.21875 285.378906 347.96875 285.5 347.707031 285.59375 C 347.449219 285.6875 347.179688 285.757812 346.90625 285.800781 C 346.695312 285.835938 346.480469 285.851562 346.265625 285.855469 Z M 346.265625 285.855469 " fill-opacity="1" fill-rule="nonzero"/><path fill="#a6e641" d="M 74.757812 200.585938 C 73.4375 200.585938 72.121094 200.523438 70.804688 200.394531 C 69.492188 200.265625 68.1875 200.074219 66.894531 199.816406 C 65.597656 199.558594 64.320312 199.238281 63.054688 198.855469 C 61.792969 198.472656 60.550781 198.03125 59.332031 197.527344 C 58.109375 197.019531 56.917969 196.457031 55.753906 195.835938 C 54.589844 195.214844 53.457031 194.535156 52.359375 193.800781 C 51.261719 193.070312 50.203125 192.28125 49.183594 191.445312 C 48.160156 190.609375 47.183594 189.722656 46.25 188.789062 C 45.316406 187.855469 44.429688 186.878906 43.589844 185.855469 C 42.753906 184.835938 41.96875 183.777344 41.234375 182.675781 C 40.5 181.578125 39.820312 180.449219 39.199219 179.28125 C 38.574219 178.117188 38.011719 176.925781 37.503906 175.703125 C 37 174.484375 36.554688 173.242188 36.167969 171.976562 C 35.785156 170.714844 35.464844 169.433594 35.207031 168.136719 C 34.949219 166.839844 34.753906 165.535156 34.625 164.222656 C 34.496094 162.90625 34.429688 161.585938 34.429688 160.265625 C 34.425781 158.945312 34.492188 157.625 34.621094 156.3125 C 34.75 154.996094 34.941406 153.691406 35.199219 152.394531 C 35.457031 151.097656 35.777344 149.820312 36.15625 148.554688 C 36.539062 147.289062 36.984375 146.046875 37.488281 144.824219 C 37.992188 143.605469 38.558594 142.410156 39.179688 141.246094 C 39.800781 140.078125 40.476562 138.949219 41.210938 137.847656 C 41.945312 136.75 42.730469 135.6875 43.566406 134.667969 C 44.402344 133.644531 45.289062 132.667969 46.222656 131.734375 C 47.152344 130.796875 48.128906 129.910156 49.152344 129.074219 C 50.171875 128.234375 51.230469 127.449219 52.328125 126.710938 C 53.425781 125.976562 54.554688 125.300781 55.71875 124.675781 C 56.882812 124.054688 58.074219 123.488281 59.292969 122.980469 C 60.511719 122.476562 61.753906 122.03125 63.015625 121.648438 C 64.28125 121.261719 65.558594 120.941406 66.855469 120.683594 C 68.148438 120.425781 69.453125 120.230469 70.765625 120.101562 C 72.078125 119.972656 73.398438 119.90625 74.714844 119.90625 C 76.035156 119.90625 77.351562 119.972656 78.667969 120.101562 C 79.980469 120.230469 81.285156 120.421875 82.578125 120.679688 C 83.875 120.9375 85.152344 121.257812 86.417969 121.640625 C 87.679688 122.027344 88.921875 122.46875 90.140625 122.976562 C 91.359375 123.480469 92.550781 124.046875 93.714844 124.667969 C 94.882812 125.289062 96.011719 125.96875 97.109375 126.703125 C 98.207031 127.4375 99.265625 128.222656 100.285156 129.0625 C 101.308594 129.898438 102.285156 130.785156 103.21875 131.71875 C 104.152344 132.65625 105.035156 133.632812 105.875 134.652344 C 106.710938 135.675781 107.496094 136.734375 108.230469 137.835938 C 108.964844 138.933594 109.640625 140.066406 110.261719 141.230469 C 110.886719 142.394531 111.449219 143.589844 111.953125 144.808594 C 112.460938 146.03125 112.902344 147.273438 113.289062 148.539062 C 113.671875 149.800781 113.992188 151.082031 114.25 152.378906 C 114.503906 153.675781 114.699219 154.980469 114.828125 156.292969 C 114.957031 157.609375 115.023438 158.929688 115.023438 160.25 C 115.019531 161.570312 114.953125 162.886719 114.824219 164.199219 C 114.695312 165.511719 114.5 166.816406 114.242188 168.113281 C 113.984375 169.40625 113.660156 170.683594 113.277344 171.949219 C 112.894531 173.210938 112.449219 174.453125 111.945312 175.671875 C 111.441406 176.890625 110.875 178.082031 110.253906 179.246094 C 109.632812 180.410156 108.957031 181.542969 108.222656 182.640625 C 107.492188 183.738281 106.707031 184.796875 105.871094 185.816406 C 105.035156 186.835938 104.148438 187.8125 103.21875 188.746094 C 102.285156 189.679688 101.308594 190.566406 100.289062 191.40625 C 99.273438 192.242188 98.214844 193.027344 97.117188 193.761719 C 96.023438 194.496094 94.894531 195.175781 93.730469 195.800781 C 92.570312 196.421875 91.378906 196.988281 90.160156 197.496094 C 88.941406 198 87.703125 198.445312 86.441406 198.832031 C 85.179688 199.214844 83.902344 199.539062 82.609375 199.796875 C 81.316406 200.058594 80.015625 200.253906 78.703125 200.382812 C 77.390625 200.515625 76.074219 200.582031 74.757812 200.585938 Z M 74.757812 128.351562 C 73.714844 128.351562 72.671875 128.402344 71.632812 128.503906 C 70.59375 128.605469 69.5625 128.757812 68.539062 128.960938 C 67.515625 129.164062 66.503906 129.417969 65.507812 129.71875 C 64.507812 130.023438 63.527344 130.375 62.5625 130.773438 C 61.597656 131.171875 60.652344 131.617188 59.734375 132.109375 C 58.8125 132.601562 57.917969 133.136719 57.050781 133.71875 C 56.183594 134.296875 55.34375 134.917969 54.539062 135.582031 C 53.730469 136.242188 52.957031 136.941406 52.21875 137.679688 C 51.480469 138.417969 50.78125 139.191406 50.117188 140 C 49.457031 140.808594 48.832031 141.644531 48.253906 142.511719 C 47.671875 143.382812 47.136719 144.277344 46.644531 145.195312 C 46.152344 146.117188 45.707031 147.0625 45.304688 148.027344 C 44.90625 148.992188 44.554688 149.972656 44.25 150.972656 C 43.949219 151.972656 43.695312 152.984375 43.488281 154.007812 C 43.285156 155.035156 43.132812 156.066406 43.027344 157.105469 C 42.925781 158.144531 42.875 159.1875 42.875 160.230469 C 42.875 161.277344 42.925781 162.320312 43.027344 163.359375 C 43.128906 164.398438 43.28125 165.429688 43.484375 166.457031 C 43.6875 167.480469 43.941406 168.492188 44.242188 169.492188 C 44.542969 170.492188 44.894531 171.472656 45.292969 172.441406 C 45.691406 173.40625 46.136719 174.347656 46.628906 175.269531 C 47.121094 176.191406 47.65625 177.085938 48.238281 177.957031 C 48.816406 178.824219 49.4375 179.664062 50.097656 180.472656 C 50.761719 181.277344 51.460938 182.050781 52.199219 182.792969 C 52.933594 183.53125 53.707031 184.230469 54.515625 184.894531 C 55.320312 185.558594 56.15625 186.179688 57.023438 186.761719 C 57.890625 187.339844 58.785156 187.878906 59.707031 188.371094 C 60.625 188.863281 61.570312 189.308594 62.53125 189.710938 C 63.496094 190.109375 64.476562 190.460938 65.476562 190.765625 C 66.476562 191.070312 67.488281 191.324219 68.511719 191.527344 C 69.535156 191.730469 70.566406 191.882812 71.601562 191.988281 C 72.640625 192.089844 73.683594 192.140625 74.726562 192.140625 C 75.769531 192.140625 76.8125 192.089844 77.851562 191.988281 C 78.886719 191.886719 79.917969 191.734375 80.941406 191.53125 C 81.96875 191.328125 82.976562 191.074219 83.976562 190.769531 C 84.976562 190.46875 85.957031 190.117188 86.921875 189.714844 C 87.886719 189.316406 88.828125 188.871094 89.75 188.378906 C 90.667969 187.886719 91.5625 187.351562 92.429688 186.769531 C 93.296875 186.1875 94.136719 185.566406 94.941406 184.90625 C 95.75 184.242188 96.523438 183.542969 97.261719 182.804688 C 98 182.066406 98.699219 181.292969 99.359375 180.484375 C 100.023438 179.675781 100.644531 178.839844 101.222656 177.96875 C 101.804688 177.101562 102.339844 176.207031 102.832031 175.285156 C 103.324219 174.363281 103.769531 173.421875 104.167969 172.457031 C 104.570312 171.492188 104.921875 170.507812 105.222656 169.507812 C 105.527344 168.507812 105.78125 167.496094 105.984375 166.472656 C 106.1875 165.449219 106.339844 164.414062 106.441406 163.375 C 106.542969 162.335938 106.597656 161.292969 106.597656 160.25 C 106.59375 159.207031 106.542969 158.164062 106.441406 157.125 C 106.335938 156.085938 106.183594 155.054688 105.980469 154.03125 C 105.773438 153.007812 105.519531 151.996094 105.21875 151 C 104.914062 150 104.5625 149.019531 104.164062 148.054688 C 103.765625 147.089844 103.320312 146.148438 102.828125 145.226562 C 102.335938 144.304688 101.800781 143.410156 101.222656 142.542969 C 100.640625 141.675781 100.023438 140.839844 99.359375 140.03125 C 98.699219 139.222656 98 138.453125 97.261719 137.714844 C 96.527344 136.976562 95.753906 136.273438 94.949219 135.613281 C 94.144531 134.949219 93.308594 134.328125 92.441406 133.746094 C 91.574219 133.167969 90.679688 132.628906 89.761719 132.136719 C 88.84375 131.644531 87.902344 131.195312 86.9375 130.796875 C 85.976562 130.394531 84.996094 130.042969 83.996094 129.738281 C 83 129.433594 81.988281 129.179688 80.96875 128.976562 C 79.945312 128.769531 78.914062 128.617188 77.878906 128.511719 C 76.839844 128.40625 75.800781 128.355469 74.757812 128.351562 Z M 74.757812 128.351562 " fill-opacity="1" fill-rule="nonzero"/><path fill="#ffd052" d="M 137.253906 136.125 C 135.933594 136.128906 134.617188 136.0625 133.300781 135.933594 C 131.988281 135.808594 130.683594 135.613281 129.390625 135.355469 C 128.09375 135.101562 126.816406 134.78125 125.550781 134.398438 C 124.289062 134.015625 123.046875 133.570312 121.828125 133.066406 C 120.605469 132.5625 119.414062 132 118.25 131.375 C 117.085938 130.753906 115.953125 130.078125 114.855469 129.34375 C 113.757812 128.609375 112.699219 127.824219 111.679688 126.988281 C 110.65625 126.148438 109.679688 125.265625 108.746094 124.328125 C 107.8125 123.394531 106.925781 122.417969 106.085938 121.398438 C 105.25 120.378906 104.464844 119.316406 103.730469 118.21875 C 102.996094 117.121094 102.316406 115.988281 101.695312 114.824219 C 101.070312 113.660156 100.507812 112.464844 100 111.246094 C 99.496094 110.027344 99.050781 108.78125 98.664062 107.519531 C 98.28125 106.253906 97.960938 104.972656 97.703125 103.679688 C 97.445312 102.382812 97.25 101.078125 97.121094 99.761719 C 96.992188 98.449219 96.925781 97.128906 96.925781 95.808594 C 96.921875 94.488281 96.988281 93.167969 97.117188 91.851562 C 97.246094 90.539062 97.4375 89.234375 97.695312 87.9375 C 97.953125 86.640625 98.273438 85.359375 98.652344 84.09375 C 99.035156 82.832031 99.480469 81.585938 99.984375 80.367188 C 100.488281 79.144531 101.054688 77.953125 101.675781 76.785156 C 102.296875 75.621094 102.972656 74.488281 103.707031 73.390625 C 104.441406 72.289062 105.226562 71.230469 106.0625 70.207031 C 106.898438 69.1875 107.785156 68.207031 108.714844 67.273438 C 109.648438 66.339844 110.625 65.453125 111.648438 64.613281 C 112.667969 63.773438 113.726562 62.988281 114.824219 62.253906 C 115.921875 61.519531 117.050781 60.839844 118.214844 60.21875 C 119.378906 59.59375 120.570312 59.03125 121.789062 58.523438 C 123.007812 58.019531 124.25 57.574219 125.511719 57.1875 C 126.777344 56.804688 128.054688 56.484375 129.351562 56.226562 C 130.644531 55.96875 131.949219 55.773438 133.261719 55.644531 C 134.574219 55.515625 135.890625 55.449219 137.210938 55.449219 C 138.53125 55.449219 139.847656 55.511719 141.164062 55.640625 C 142.476562 55.773438 143.78125 55.964844 145.074219 56.222656 C 146.371094 56.480469 147.648438 56.800781 148.914062 57.183594 C 150.175781 57.566406 151.417969 58.011719 152.636719 58.515625 C 153.855469 59.023438 155.046875 59.585938 156.210938 60.210938 C 157.375 60.832031 158.507812 61.511719 159.605469 62.246094 C 160.703125 62.980469 161.761719 63.765625 162.78125 64.601562 C 163.804688 65.441406 164.78125 66.328125 165.714844 67.261719 C 166.648438 68.195312 167.53125 69.175781 168.371094 70.195312 C 169.207031 71.214844 169.992188 72.277344 170.726562 73.375 C 171.460938 74.472656 172.136719 75.605469 172.757812 76.769531 C 173.382812 77.9375 173.945312 79.128906 174.449219 80.351562 C 174.957031 81.570312 175.398438 82.8125 175.785156 84.078125 C 176.167969 85.34375 176.488281 86.625 176.746094 87.917969 C 177 89.214844 177.195312 90.519531 177.324219 91.835938 C 177.453125 93.152344 177.519531 94.46875 177.519531 95.789062 C 177.515625 97.109375 177.449219 98.425781 177.320312 99.742188 C 177.191406 101.054688 176.996094 102.359375 176.738281 103.652344 C 176.480469 104.949219 176.15625 106.226562 175.773438 107.488281 C 175.390625 108.753906 174.945312 109.992188 174.441406 111.210938 C 173.9375 112.433594 173.371094 113.625 172.75 114.789062 C 172.128906 115.953125 171.453125 117.082031 170.71875 118.179688 C 169.988281 119.277344 169.203125 120.335938 168.367188 121.355469 C 167.53125 122.378906 166.644531 123.355469 165.714844 124.289062 C 164.78125 125.222656 163.804688 126.109375 162.785156 126.945312 C 161.769531 127.785156 160.710938 128.570312 159.613281 129.304688 C 158.519531 130.039062 157.390625 130.71875 156.226562 131.339844 C 155.066406 131.964844 153.875 132.527344 152.65625 133.035156 C 151.4375 133.542969 150.199219 133.988281 148.9375 134.371094 C 147.675781 134.757812 146.398438 135.078125 145.105469 135.339844 C 143.8125 135.597656 142.511719 135.792969 141.199219 135.925781 C 139.886719 136.058594 138.570312 136.125 137.253906 136.125 Z M 137.253906 63.894531 C 136.210938 63.894531 135.167969 63.941406 134.128906 64.046875 C 133.089844 64.148438 132.058594 64.300781 131.035156 64.503906 C 130.011719 64.707031 129 64.957031 128 65.261719 C 127.003906 65.5625 126.019531 65.914062 125.058594 66.3125 C 124.09375 66.710938 123.148438 67.15625 122.230469 67.648438 C 121.308594 68.140625 120.414062 68.679688 119.546875 69.257812 C 118.675781 69.835938 117.839844 70.457031 117.03125 71.121094 C 116.226562 71.78125 115.453125 72.484375 114.714844 73.222656 C 113.976562 73.960938 113.273438 74.734375 112.613281 75.539062 C 111.949219 76.347656 111.328125 77.183594 110.75 78.054688 C 110.167969 78.921875 109.632812 79.816406 109.140625 80.738281 C 108.648438 81.660156 108.199219 82.601562 107.800781 83.566406 C 107.402344 84.53125 107.046875 85.515625 106.746094 86.511719 C 106.441406 87.511719 106.1875 88.523438 105.984375 89.550781 C 105.78125 90.574219 105.625 91.605469 105.523438 92.644531 C 105.421875 93.6875 105.367188 94.726562 105.367188 95.773438 C 105.367188 96.816406 105.417969 97.859375 105.519531 98.898438 C 105.621094 99.9375 105.773438 100.972656 105.976562 101.996094 C 106.179688 103.019531 106.433594 104.035156 106.734375 105.035156 C 107.039062 106.03125 107.390625 107.015625 107.789062 107.980469 C 108.1875 108.945312 108.632812 109.890625 109.125 110.8125 C 109.617188 111.734375 110.152344 112.628906 110.730469 113.496094 C 111.308594 114.367188 111.929688 115.203125 112.59375 116.011719 C 113.253906 116.820312 113.953125 117.59375 114.691406 118.332031 C 115.429688 119.070312 116.203125 119.773438 117.007812 120.4375 C 117.816406 121.097656 118.652344 121.722656 119.519531 122.300781 C 120.386719 122.882812 121.28125 123.417969 122.199219 123.914062 C 123.121094 124.40625 124.0625 124.851562 125.027344 125.25 C 125.992188 125.652344 126.972656 126.003906 127.972656 126.308594 C 128.96875 126.609375 129.980469 126.863281 131.003906 127.070312 C 132.027344 127.273438 133.058594 127.425781 134.097656 127.527344 C 135.136719 127.632812 136.175781 127.683594 137.222656 127.683594 C 138.265625 127.683594 139.304688 127.632812 140.34375 127.53125 C 141.382812 127.429688 142.414062 127.277344 143.4375 127.074219 C 144.460938 126.867188 145.472656 126.617188 146.472656 126.3125 C 147.46875 126.007812 148.453125 125.65625 149.417969 125.257812 C 150.378906 124.859375 151.324219 124.414062 152.242188 123.921875 C 153.164062 123.429688 154.058594 122.890625 154.925781 122.3125 C 155.792969 121.730469 156.632812 121.109375 157.4375 120.449219 C 158.246094 119.785156 159.019531 119.085938 159.757812 118.34375 C 160.492188 117.605469 161.195312 116.832031 161.855469 116.027344 C 162.519531 115.21875 163.140625 114.382812 163.71875 113.511719 C 164.300781 112.644531 164.835938 111.75 165.328125 110.828125 C 165.820312 109.90625 166.265625 108.964844 166.664062 107.996094 C 167.066406 107.03125 167.414062 106.050781 167.71875 105.050781 C 168.023438 104.050781 168.277344 103.039062 168.480469 102.015625 C 168.683594 100.988281 168.835938 99.957031 168.9375 98.917969 C 169.039062 97.878906 169.09375 96.835938 169.09375 95.789062 C 169.089844 94.746094 169.039062 93.707031 168.9375 92.667969 C 168.832031 91.628906 168.679688 90.597656 168.476562 89.574219 C 168.269531 88.550781 168.015625 87.539062 167.714844 86.539062 C 167.410156 85.539062 167.058594 84.558594 166.660156 83.59375 C 166.261719 82.628906 165.816406 81.6875 165.324219 80.769531 C 164.832031 79.847656 164.296875 78.953125 163.71875 78.085938 C 163.136719 77.21875 162.519531 76.378906 161.855469 75.574219 C 161.195312 74.765625 160.496094 73.992188 159.757812 73.253906 C 159.023438 72.515625 158.25 71.816406 157.445312 71.152344 C 156.640625 70.488281 155.804688 69.867188 154.9375 69.289062 C 154.070312 68.707031 153.175781 68.171875 152.257812 67.675781 C 151.339844 67.183594 150.398438 66.738281 149.433594 66.335938 C 148.472656 65.9375 147.492188 65.585938 146.492188 65.28125 C 145.496094 64.976562 144.484375 64.722656 143.464844 64.515625 C 142.441406 64.3125 141.410156 64.15625 140.375 64.050781 C 139.335938 63.949219 138.296875 63.894531 137.253906 63.894531 Z M 137.253906 63.894531 " fill-opacity="1" fill-rule="nonzero"/><path fill="#ffd052" d="M 197.394531 95.789062 C 197.398438 94.46875 197.460938 93.152344 197.589844 91.835938 C 197.722656 90.523438 197.914062 89.21875 198.171875 87.921875 C 198.429688 86.628906 198.75 85.347656 199.132812 84.085938 C 199.515625 82.820312 199.960938 81.578125 200.464844 80.359375 C 200.972656 79.136719 201.535156 77.945312 202.15625 76.78125 C 202.78125 75.617188 203.457031 74.484375 204.191406 73.386719 C 204.925781 72.289062 205.710938 71.230469 206.546875 70.207031 C 207.382812 69.1875 208.269531 68.210938 209.203125 67.277344 C 210.136719 66.34375 211.113281 65.457031 212.132812 64.621094 C 213.152344 63.78125 214.210938 62.996094 215.308594 62.261719 C 216.40625 61.527344 217.539062 60.851562 218.703125 60.230469 C 219.863281 59.605469 221.054688 59.042969 222.277344 58.539062 C 223.496094 58.03125 224.734375 57.589844 226 57.207031 C 227.261719 56.824219 228.539062 56.503906 229.835938 56.246094 C 231.128906 55.988281 232.433594 55.792969 233.746094 55.664062 C 235.058594 55.535156 236.375 55.472656 237.695312 55.472656 C 239.011719 55.472656 240.328125 55.539062 241.644531 55.667969 C 242.957031 55.796875 244.257812 55.992188 245.554688 56.25 C 246.847656 56.507812 248.125 56.828125 249.386719 57.214844 C 250.652344 57.597656 251.890625 58.042969 253.109375 58.546875 C 254.328125 59.054688 255.519531 59.617188 256.683594 60.242188 C 257.847656 60.863281 258.976562 61.542969 260.074219 62.277344 C 261.171875 63.011719 262.230469 63.796875 263.25 64.636719 C 264.269531 65.472656 265.246094 66.359375 266.175781 67.292969 C 267.109375 68.230469 267.996094 69.207031 268.832031 70.226562 C 269.667969 71.25 270.453125 72.308594 271.183594 73.40625 C 271.917969 74.507812 272.59375 75.636719 273.214844 76.804688 C 273.839844 77.96875 274.402344 79.160156 274.90625 80.382812 C 275.410156 81.601562 275.855469 82.84375 276.234375 84.109375 C 276.617188 85.371094 276.9375 86.652344 277.195312 87.949219 C 277.453125 89.242188 277.644531 90.546875 277.773438 91.863281 C 277.902344 93.175781 277.96875 94.496094 277.964844 95.816406 C 277.964844 97.136719 277.902344 98.453125 277.769531 99.769531 C 277.640625 101.082031 277.445312 102.386719 277.1875 103.683594 C 276.929688 104.980469 276.609375 106.257812 276.226562 107.523438 C 275.84375 108.785156 275.398438 110.027344 274.894531 111.246094 C 274.386719 112.46875 273.824219 113.660156 273.203125 114.824219 C 272.578125 115.988281 271.902344 117.121094 271.167969 118.21875 C 270.433594 119.316406 269.648438 120.375 268.8125 121.394531 C 267.972656 122.417969 267.085938 123.394531 266.15625 124.328125 C 265.222656 125.261719 264.242188 126.148438 263.222656 126.984375 C 262.203125 127.820312 261.144531 128.605469 260.046875 129.339844 C 258.949219 130.074219 257.820312 130.75 256.65625 131.375 C 255.492188 131.996094 254.300781 132.558594 253.082031 133.0625 C 251.859375 133.570312 250.621094 134.011719 249.355469 134.394531 C 248.09375 134.777344 246.816406 135.097656 245.523438 135.355469 C 244.226562 135.613281 242.921875 135.804688 241.609375 135.933594 C 240.296875 136.0625 238.980469 136.128906 237.660156 136.125 C 236.34375 136.125 235.027344 136.058594 233.714844 135.925781 C 232.402344 135.796875 231.101562 135.601562 229.804688 135.339844 C 228.511719 135.082031 227.234375 134.761719 225.972656 134.375 C 224.710938 133.992188 223.472656 133.546875 222.253906 133.039062 C 221.035156 132.535156 219.847656 131.96875 218.683594 131.347656 C 217.519531 130.722656 216.390625 130.042969 215.296875 129.308594 C 214.199219 128.574219 213.140625 127.789062 212.125 126.953125 C 211.105469 126.113281 210.128906 125.226562 209.195312 124.292969 C 208.265625 123.359375 207.378906 122.382812 206.542969 121.363281 C 205.707031 120.339844 204.921875 119.28125 204.191406 118.183594 C 203.457031 117.085938 202.78125 115.957031 202.160156 114.792969 C 201.535156 113.625 200.972656 112.433594 200.46875 111.214844 C 199.964844 109.996094 199.519531 108.753906 199.136719 107.492188 C 198.753906 106.226562 198.433594 104.949219 198.175781 103.652344 C 197.917969 102.359375 197.722656 101.054688 197.59375 99.742188 C 197.460938 98.429688 197.398438 97.109375 197.394531 95.789062 Z M 205.824219 95.789062 C 205.824219 96.835938 205.875 97.875 205.976562 98.914062 C 206.078125 99.953125 206.234375 100.984375 206.4375 102.011719 C 206.640625 103.035156 206.894531 104.046875 207.199219 105.042969 C 207.5 106.042969 207.851562 107.023438 208.253906 107.988281 C 208.652344 108.953125 209.097656 109.898438 209.589844 110.816406 C 210.082031 111.738281 210.617188 112.632812 211.199219 113.5 C 211.777344 114.367188 212.398438 115.207031 213.0625 116.011719 C 213.722656 116.820312 214.421875 117.589844 215.160156 118.328125 C 215.898438 119.066406 216.671875 119.769531 217.476562 120.429688 C 218.285156 121.089844 219.121094 121.710938 219.988281 122.292969 C 220.855469 122.871094 221.75 123.40625 222.671875 123.898438 C 223.589844 124.390625 224.53125 124.835938 225.496094 125.234375 C 226.460938 125.636719 227.441406 125.984375 228.4375 126.289062 C 229.4375 126.589844 230.449219 126.84375 231.472656 127.046875 C 232.496094 127.25 233.523438 127.402344 234.5625 127.503906 C 235.601562 127.605469 236.640625 127.65625 237.683594 127.65625 C 238.726562 127.65625 239.769531 127.605469 240.804688 127.503906 C 241.84375 127.398438 242.875 127.246094 243.898438 127.042969 C 244.921875 126.839844 245.929688 126.585938 246.929688 126.28125 C 247.925781 125.976562 248.90625 125.625 249.871094 125.226562 C 250.835938 124.824219 251.777344 124.378906 252.695312 123.886719 C 253.617188 123.394531 254.507812 122.859375 255.375 122.277344 C 256.242188 121.695312 257.078125 121.074219 257.886719 120.414062 C 258.691406 119.75 259.464844 119.050781 260.199219 118.3125 C 260.9375 117.574219 261.636719 116.800781 262.296875 115.992188 C 262.960938 115.183594 263.582031 114.347656 264.160156 113.476562 C 264.738281 112.609375 265.273438 111.714844 265.765625 110.792969 C 266.257812 109.871094 266.703125 108.929688 267.101562 107.964844 C 267.5 107 267.851562 106.019531 268.152344 105.019531 C 268.453125 104.019531 268.707031 103.007812 268.910156 101.984375 C 269.113281 100.960938 269.265625 99.929688 269.367188 98.890625 C 269.46875 97.851562 269.519531 96.808594 269.519531 95.765625 C 269.519531 94.71875 269.46875 93.679688 269.367188 92.640625 C 269.261719 91.601562 269.109375 90.570312 268.90625 89.542969 C 268.703125 88.519531 268.449219 87.507812 268.144531 86.511719 C 267.84375 85.511719 267.492188 84.527344 267.089844 83.566406 C 266.691406 82.601562 266.246094 81.65625 265.753906 80.738281 C 265.261719 79.816406 264.726562 78.921875 264.148438 78.054688 C 263.566406 77.1875 262.945312 76.347656 262.285156 75.542969 C 261.621094 74.734375 260.921875 73.960938 260.183594 73.222656 C 259.445312 72.484375 258.675781 71.785156 257.867188 71.125 C 257.0625 70.460938 256.222656 69.839844 255.355469 69.261719 C 254.488281 68.679688 253.597656 68.144531 252.675781 67.652344 C 251.753906 67.160156 250.8125 66.714844 249.851562 66.316406 C 248.886719 65.917969 247.90625 65.566406 246.90625 65.261719 C 245.910156 64.960938 244.898438 64.707031 243.875 64.503906 C 242.851562 64.300781 241.820312 64.148438 240.78125 64.046875 C 239.746094 63.945312 238.703125 63.894531 237.660156 63.894531 C 236.617188 63.894531 235.578125 63.949219 234.539062 64.050781 C 233.503906 64.15625 232.472656 64.308594 231.449219 64.515625 C 230.425781 64.71875 229.417969 64.972656 228.421875 65.277344 C 227.421875 65.582031 226.441406 65.933594 225.480469 66.335938 C 224.515625 66.734375 223.574219 67.183594 222.65625 67.675781 C 221.734375 68.167969 220.84375 68.703125 219.976562 69.285156 C 219.109375 69.867188 218.273438 70.488281 217.46875 71.148438 C 216.660156 71.8125 215.890625 72.511719 215.152344 73.25 C 214.414062 73.988281 213.714844 74.761719 213.054688 75.570312 C 212.394531 76.378906 211.773438 77.214844 211.195312 78.082031 C 210.613281 78.949219 210.078125 79.84375 209.589844 80.765625 C 209.097656 81.6875 208.652344 82.628906 208.25 83.59375 C 207.851562 84.558594 207.5 85.539062 207.199219 86.539062 C 206.894531 87.539062 206.640625 88.546875 206.4375 89.574219 C 206.234375 90.597656 206.082031 91.628906 205.976562 92.667969 C 205.875 93.707031 205.824219 94.746094 205.824219 95.789062 Z M 205.824219 95.789062 " fill-opacity="1" fill-rule="nonzero"/><path fill="#a6e641" d="M 4.59375 285.855469 C 4.457031 285.851562 4.320312 285.84375 4.1875 285.828125 C 3.910156 285.804688 3.640625 285.75 3.375 285.671875 C 3.109375 285.589844 2.855469 285.488281 2.609375 285.355469 C 2.367188 285.226562 2.136719 285.074219 1.921875 284.898438 C 1.707031 284.722656 1.511719 284.527344 1.335938 284.316406 C 1.160156 284.101562 1.007812 283.871094 0.875 283.628906 C 0.746094 283.382812 0.640625 283.128906 0.558594 282.863281 C 0.480469 282.597656 0.425781 282.328125 0.398438 282.050781 C 0.371094 281.777344 0.371094 281.5 0.402344 281.222656 L 4.769531 236.503906 C 4.75 227.128906 10.652344 208.621094 33 208.621094 L 117.082031 208.621094 C 137.757812 208.621094 142.925781 224.277344 144.183594 231.011719 C 144.238281 231.285156 144.269531 231.5625 144.269531 231.839844 C 144.269531 232.121094 144.242188 232.398438 144.1875 232.671875 C 144.132812 232.949219 144.050781 233.214844 143.945312 233.472656 C 143.835938 233.730469 143.707031 233.976562 143.550781 234.207031 C 143.394531 234.441406 143.214844 234.65625 143.015625 234.851562 C 142.816406 235.050781 142.601562 235.222656 142.367188 235.378906 C 142.132812 235.53125 141.886719 235.660156 141.628906 235.765625 C 141.371094 235.871094 141.101562 235.949219 140.828125 236 C 140.550781 236.050781 140.277344 236.074219 139.996094 236.074219 C 139.714844 236.070312 139.441406 236.039062 139.167969 235.980469 C 138.894531 235.921875 138.628906 235.835938 138.371094 235.722656 C 138.113281 235.613281 137.871094 235.476562 137.640625 235.316406 C 137.414062 235.15625 137.203125 234.976562 137.007812 234.773438 C 136.8125 234.570312 136.640625 234.351562 136.492188 234.117188 C 136.34375 233.878906 136.214844 233.632812 136.117188 233.371094 C 136.015625 233.109375 135.941406 232.839844 135.894531 232.566406 C 133.972656 222.277344 127.644531 217.0625 117.082031 217.0625 L 32.996094 217.0625 C 13.894531 217.0625 13.195312 234.902344 13.195312 236.933594 L 8.789062 282.042969 C 8.738281 282.566406 8.59375 283.0625 8.359375 283.53125 C 8.125 283.996094 7.8125 284.40625 7.425781 284.757812 C 7.039062 285.113281 6.601562 285.382812 6.113281 285.570312 C 5.625 285.757812 5.117188 285.855469 4.59375 285.855469 Z M 4.59375 285.855469 " fill-opacity="1" fill-rule="nonzero"/><path fill="#a6e641" d="M 28.667969 285.855469 C 28.445312 285.851562 28.226562 285.835938 28.007812 285.800781 C 27.734375 285.757812 27.46875 285.6875 27.207031 285.589844 C 26.949219 285.496094 26.703125 285.375 26.464844 285.230469 C 26.230469 285.085938 26.011719 284.921875 25.808594 284.734375 C 25.601562 284.546875 25.421875 284.339844 25.257812 284.117188 C 25.09375 283.894531 24.953125 283.65625 24.835938 283.402344 C 24.722656 283.152344 24.628906 282.894531 24.566406 282.625 C 24.5 282.355469 24.460938 282.082031 24.449219 281.804688 C 24.4375 281.527344 24.453125 281.253906 24.492188 280.980469 L 28.84375 253.117188 C 28.886719 252.84375 28.953125 252.578125 29.050781 252.316406 C 29.144531 252.058594 29.265625 251.808594 29.410156 251.574219 C 29.554688 251.335938 29.71875 251.117188 29.90625 250.914062 C 30.09375 250.710938 30.300781 250.527344 30.523438 250.363281 C 30.746094 250.199219 30.984375 250.058594 31.234375 249.941406 C 31.484375 249.824219 31.746094 249.734375 32.015625 249.667969 C 32.285156 249.605469 32.554688 249.566406 32.832031 249.554688 C 33.109375 249.542969 33.382812 249.558594 33.65625 249.601562 C 33.929688 249.644531 34.199219 249.714844 34.457031 249.808594 C 34.71875 249.902344 34.964844 250.023438 35.203125 250.167969 C 35.4375 250.3125 35.65625 250.476562 35.863281 250.664062 C 36.066406 250.855469 36.25 251.058594 36.410156 251.28125 C 36.574219 251.507812 36.714844 251.746094 36.832031 251.996094 C 36.949219 252.246094 37.039062 252.507812 37.105469 252.777344 C 37.167969 253.046875 37.207031 253.320312 37.21875 253.597656 C 37.230469 253.871094 37.214844 254.148438 37.171875 254.421875 L 32.839844 282.28125 C 32.761719 282.78125 32.597656 283.246094 32.351562 283.6875 C 32.105469 284.125 31.792969 284.507812 31.410156 284.835938 C 31.027344 285.164062 30.601562 285.414062 30.128906 285.589844 C 29.65625 285.765625 29.171875 285.851562 28.667969 285.855469 Z M 28.667969 285.855469 " fill-opacity="1" fill-rule="nonzero"/><path fill="#329fe4" d="M 187.457031 237.621094 C 186.136719 237.621094 184.820312 237.558594 183.507812 237.425781 C 182.191406 237.296875 180.890625 237.105469 179.59375 236.847656 C 178.300781 236.589844 177.023438 236.265625 175.757812 235.882812 C 174.496094 235.5 173.253906 235.054688 172.035156 234.550781 C 170.816406 234.042969 169.625 233.480469 168.460938 232.855469 C 167.296875 232.234375 166.167969 231.554688 165.070312 230.820312 C 163.972656 230.085938 162.914062 229.300781 161.894531 228.460938 C 160.871094 227.621094 159.894531 226.734375 158.964844 225.800781 C 158.03125 224.867188 157.144531 223.890625 156.308594 222.867188 C 155.472656 221.847656 154.6875 220.785156 153.953125 219.6875 C 153.21875 218.589844 152.542969 217.457031 151.921875 216.292969 C 151.296875 215.125 150.734375 213.933594 150.230469 212.710938 C 149.726562 211.492188 149.28125 210.25 148.898438 208.984375 C 148.515625 207.71875 148.195312 206.441406 147.9375 205.144531 C 147.679688 203.847656 147.488281 202.542969 147.359375 201.230469 C 147.230469 199.914062 147.164062 198.597656 147.167969 197.273438 C 147.167969 195.953125 147.230469 194.636719 147.359375 193.320312 C 147.492188 192.003906 147.683594 190.699219 147.941406 189.40625 C 148.199219 188.109375 148.519531 186.828125 148.902344 185.566406 C 149.289062 184.300781 149.730469 183.058594 150.238281 181.835938 C 150.742188 180.617188 151.304688 179.425781 151.929688 178.257812 C 152.550781 177.09375 153.230469 175.960938 153.960938 174.863281 C 154.695312 173.765625 155.480469 172.707031 156.320312 171.683594 C 157.15625 170.664062 158.042969 169.6875 158.976562 168.753906 C 159.910156 167.820312 160.886719 166.933594 161.90625 166.09375 C 162.925781 165.257812 163.984375 164.472656 165.082031 163.738281 C 166.179688 163.003906 167.3125 162.324219 168.476562 161.703125 C 169.640625 161.082031 170.832031 160.515625 172.050781 160.011719 C 173.269531 159.507812 174.511719 159.0625 175.777344 158.679688 C 177.039062 158.296875 178.316406 157.976562 179.613281 157.71875 C 180.90625 157.460938 182.210938 157.265625 183.523438 157.136719 C 184.835938 157.007812 186.15625 156.945312 187.472656 156.945312 C 188.792969 156.945312 190.109375 157.011719 191.425781 157.140625 C 192.738281 157.269531 194.042969 157.464844 195.335938 157.722656 C 196.628906 157.980469 197.910156 158.300781 199.171875 158.683594 C 200.433594 159.070312 201.675781 159.515625 202.894531 160.019531 C 204.113281 160.527344 205.304688 161.089844 206.46875 161.714844 C 207.632812 162.335938 208.761719 163.015625 209.859375 163.75 C 210.957031 164.484375 212.015625 165.269531 213.035156 166.109375 C 214.054688 166.945312 215.03125 167.832031 215.964844 168.769531 C 216.898438 169.703125 217.785156 170.679688 218.621094 171.703125 C 219.457031 172.722656 220.242188 173.785156 220.976562 174.882812 C 221.707031 175.980469 222.386719 177.113281 223.007812 178.277344 C 223.628906 179.445312 224.191406 180.636719 224.699219 181.859375 C 225.203125 183.078125 225.644531 184.320312 226.027344 185.585938 C 226.410156 186.851562 226.730469 188.128906 226.988281 189.425781 C 227.246094 190.722656 227.4375 192.027344 227.566406 193.34375 C 227.695312 194.65625 227.761719 195.976562 227.761719 197.296875 C 227.757812 198.617188 227.691406 199.933594 227.5625 201.25 C 227.429688 202.5625 227.234375 203.867188 226.976562 205.164062 C 226.71875 206.457031 226.398438 207.738281 226.011719 209 C 225.628906 210.265625 225.183594 211.503906 224.679688 212.726562 C 224.171875 213.945312 223.609375 215.136719 222.984375 216.300781 C 222.363281 217.464844 221.683594 218.597656 220.953125 219.695312 C 220.21875 220.792969 219.433594 221.851562 218.59375 222.871094 C 217.757812 223.894531 216.871094 224.871094 215.941406 225.804688 C 215.007812 226.738281 214.03125 227.621094 213.011719 228.460938 C 211.988281 229.296875 210.933594 230.085938 209.835938 230.816406 C 208.738281 231.550781 207.609375 232.230469 206.445312 232.851562 C 205.28125 233.476562 204.089844 234.039062 202.871094 234.546875 C 201.652344 235.050781 200.410156 235.496094 199.148438 235.878906 C 197.886719 236.261719 196.609375 236.585938 195.316406 236.84375 C 194.019531 237.101562 192.71875 237.296875 191.40625 237.425781 C 190.089844 237.554688 188.777344 237.621094 187.457031 237.621094 Z M 187.457031 165.390625 C 186.414062 165.390625 185.371094 165.441406 184.332031 165.542969 C 183.296875 165.644531 182.265625 165.796875 181.242188 166 C 180.21875 166.207031 179.207031 166.457031 178.207031 166.761719 C 177.210938 167.066406 176.226562 167.417969 175.265625 167.816406 C 174.300781 168.214844 173.359375 168.660156 172.4375 169.152344 C 171.515625 169.644531 170.621094 170.183594 169.753906 170.761719 C 168.886719 171.34375 168.050781 171.964844 167.242188 172.625 C 166.4375 173.289062 165.664062 173.988281 164.925781 174.726562 C 164.1875 175.464844 163.488281 176.238281 162.828125 177.046875 C 162.164062 177.855469 161.542969 178.691406 160.964844 179.5625 C 160.382812 180.429688 159.847656 181.324219 159.355469 182.246094 C 158.863281 183.167969 158.417969 184.109375 158.019531 185.074219 C 157.621094 186.039062 157.269531 187.019531 156.964844 188.019531 C 156.660156 189.019531 156.410156 190.03125 156.203125 191.058594 C 156 192.082031 155.847656 193.113281 155.746094 194.152344 C 155.644531 195.191406 155.589844 196.234375 155.589844 197.277344 C 155.589844 198.324219 155.640625 199.363281 155.746094 200.40625 C 155.847656 201.445312 156 202.476562 156.203125 203.5 C 156.40625 204.523438 156.660156 205.539062 156.960938 206.535156 C 157.265625 207.535156 157.613281 208.519531 158.015625 209.484375 C 158.414062 210.449219 158.859375 211.390625 159.351562 212.3125 C 159.84375 213.234375 160.378906 214.128906 160.957031 215 C 161.535156 215.867188 162.15625 216.707031 162.820312 217.511719 C 163.480469 218.320312 164.179688 219.09375 164.917969 219.832031 C 165.65625 220.570312 166.429688 221.273438 167.234375 221.933594 C 168.039062 222.597656 168.878906 223.21875 169.746094 223.800781 C 170.613281 224.378906 171.507812 224.917969 172.425781 225.410156 C 173.347656 225.902344 174.289062 226.347656 175.253906 226.75 C 176.214844 227.148438 177.199219 227.5 178.195312 227.804688 C 179.195312 228.105469 180.207031 228.359375 181.230469 228.566406 C 182.253906 228.769531 183.28125 228.921875 184.320312 229.023438 C 185.359375 229.128906 186.402344 229.179688 187.445312 229.179688 C 188.488281 229.179688 189.527344 229.128906 190.566406 229.027344 C 191.605469 228.925781 192.636719 228.773438 193.660156 228.570312 C 194.683594 228.363281 195.695312 228.113281 196.691406 227.808594 C 197.691406 227.507812 198.671875 227.15625 199.636719 226.753906 C 200.601562 226.355469 201.542969 225.910156 202.464844 225.417969 C 203.382812 224.925781 204.277344 224.390625 205.144531 223.808594 C 206.015625 223.230469 206.851562 222.609375 207.660156 221.945312 C 208.464844 221.285156 209.238281 220.582031 209.976562 219.84375 C 210.714844 219.105469 211.414062 218.332031 212.074219 217.527344 C 212.738281 216.71875 213.359375 215.882812 213.9375 215.011719 C 214.519531 214.144531 215.054688 213.25 215.546875 212.328125 C 216.039062 211.410156 216.484375 210.464844 216.886719 209.5 C 217.285156 208.535156 217.636719 207.554688 217.941406 206.554688 C 218.242188 205.554688 218.496094 204.542969 218.699219 203.519531 C 218.90625 202.492188 219.058594 201.460938 219.160156 200.421875 C 219.261719 199.382812 219.316406 198.339844 219.316406 197.296875 C 219.316406 196.253906 219.261719 195.210938 219.160156 194.171875 C 219.058594 193.132812 218.902344 192.097656 218.699219 191.074219 C 218.496094 190.050781 218.242188 189.039062 217.9375 188.039062 C 217.636719 187.039062 217.285156 186.058594 216.886719 185.09375 C 216.484375 184.128906 216.039062 183.183594 215.546875 182.265625 C 215.054688 181.34375 214.519531 180.449219 213.941406 179.578125 C 213.359375 178.710938 212.738281 177.871094 212.078125 177.066406 C 211.417969 176.257812 210.714844 175.484375 209.980469 174.746094 C 209.242188 174.007812 208.46875 173.304688 207.664062 172.644531 C 206.855469 171.980469 206.019531 171.359375 205.152344 170.777344 C 204.285156 170.199219 203.390625 169.660156 202.472656 169.167969 C 201.550781 168.675781 200.609375 168.226562 199.644531 167.828125 C 198.683594 167.425781 197.703125 167.074219 196.703125 166.769531 C 195.703125 166.46875 194.695312 166.214844 193.671875 166.007812 C 192.648438 165.804688 191.617188 165.648438 190.578125 165.546875 C 189.539062 165.441406 188.5 165.390625 187.457031 165.390625 Z M 187.457031 165.390625 " fill-opacity="1" fill-rule="nonzero"/><path fill="#329fe4" d="M 117.3125 322.882812 C 117.175781 322.878906 117.039062 322.871094 116.90625 322.855469 C 116.628906 322.828125 116.359375 322.777344 116.09375 322.695312 C 115.828125 322.617188 115.574219 322.511719 115.332031 322.382812 C 115.085938 322.25 114.855469 322.097656 114.644531 321.921875 C 114.429688 321.746094 114.234375 321.550781 114.058594 321.339844 C 113.882812 321.125 113.730469 320.894531 113.597656 320.652344 C 113.46875 320.40625 113.363281 320.152344 113.28125 319.886719 C 113.203125 319.625 113.148438 319.351562 113.121094 319.078125 C 113.09375 318.800781 113.09375 318.527344 113.121094 318.25 L 117.46875 273.554688 C 117.429688 273.554688 117.234375 261.476562 125.332031 253.164062 C 130.203125 248.175781 136.863281 245.648438 145.132812 245.648438 L 229.214844 245.648438 C 251.5625 245.648438 257.464844 264.171875 257.464844 273.964844 L 261.8125 318.246094 C 261.835938 318.519531 261.835938 318.792969 261.804688 319.070312 C 261.777344 319.34375 261.722656 319.613281 261.640625 319.875 C 261.558594 320.140625 261.453125 320.394531 261.320312 320.636719 C 261.191406 320.878906 261.035156 321.109375 260.859375 321.320312 C 260.683594 321.535156 260.488281 321.726562 260.273438 321.902344 C 260.0625 322.074219 259.832031 322.226562 259.589844 322.359375 C 259.34375 322.488281 259.089844 322.59375 258.828125 322.671875 C 258.5625 322.753906 258.292969 322.804688 258.019531 322.832031 C 257.746094 322.859375 257.46875 322.859375 257.195312 322.832031 C 256.921875 322.804688 256.652344 322.753906 256.386719 322.671875 C 256.125 322.59375 255.871094 322.488281 255.625 322.359375 C 255.382812 322.230469 255.152344 322.078125 254.9375 321.902344 C 254.726562 321.730469 254.53125 321.535156 254.355469 321.324219 C 254.179688 321.109375 254.023438 320.882812 253.894531 320.640625 C 253.761719 320.394531 253.65625 320.144531 253.574219 319.878906 C 253.492188 319.613281 253.4375 319.347656 253.40625 319.070312 L 249.058594 274.371094 C 249.019531 271.941406 248.320312 254.09375 229.214844 254.09375 L 145.132812 254.09375 C 139.25 254.09375 134.628906 255.75 131.40625 259.023438 C 125.796875 264.746094 125.875 273.785156 125.875 273.875 L 121.507812 319.066406 C 121.457031 319.589844 121.3125 320.082031 121.078125 320.550781 C 120.84375 321.019531 120.535156 321.433594 120.144531 321.785156 C 119.757812 322.136719 119.320312 322.40625 118.832031 322.597656 C 118.34375 322.785156 117.835938 322.882812 117.3125 322.882812 Z M 117.3125 322.882812 " fill-opacity="1" fill-rule="nonzero"/><path fill="#329fe4" d="M 141.386719 322.882812 C 141.164062 322.882812 140.945312 322.863281 140.726562 322.828125 C 140.453125 322.785156 140.183594 322.71875 139.925781 322.621094 C 139.664062 322.527344 139.414062 322.40625 139.179688 322.261719 C 138.941406 322.117188 138.722656 321.953125 138.515625 321.765625 C 138.3125 321.578125 138.128906 321.371094 137.964844 321.148438 C 137.804688 320.921875 137.664062 320.683594 137.546875 320.433594 C 137.429688 320.179688 137.339844 319.921875 137.277344 319.648438 C 137.210938 319.378906 137.171875 319.105469 137.164062 318.828125 C 137.152344 318.550781 137.167969 318.277344 137.210938 318.003906 L 141.585938 290.152344 C 141.625 289.878906 141.691406 289.609375 141.785156 289.34375 C 141.878906 289.082031 141.996094 288.828125 142.140625 288.589844 C 142.285156 288.351562 142.449219 288.128906 142.636719 287.921875 C 142.824219 287.714844 143.03125 287.527344 143.253906 287.363281 C 143.480469 287.195312 143.71875 287.054688 143.96875 286.9375 C 144.222656 286.816406 144.484375 286.726562 144.753906 286.660156 C 145.027344 286.59375 145.300781 286.554688 145.578125 286.542969 C 145.859375 286.53125 146.136719 286.546875 146.410156 286.589844 C 146.6875 286.632812 146.957031 286.703125 147.21875 286.796875 C 147.480469 286.894531 147.726562 287.015625 147.964844 287.164062 C 148.203125 287.308594 148.425781 287.476562 148.628906 287.667969 C 148.832031 287.855469 149.015625 288.066406 149.179688 288.292969 C 149.34375 288.519531 149.480469 288.757812 149.597656 289.011719 C 149.710938 289.269531 149.800781 289.53125 149.863281 289.804688 C 149.925781 290.074219 149.964844 290.351562 149.972656 290.628906 C 149.980469 290.910156 149.960938 291.1875 149.914062 291.460938 L 145.546875 319.316406 C 145.46875 319.8125 145.308594 320.277344 145.0625 320.71875 C 144.816406 321.15625 144.503906 321.539062 144.125 321.867188 C 143.742188 322.191406 143.316406 322.445312 142.84375 322.617188 C 142.375 322.792969 141.886719 322.878906 141.386719 322.882812 Z M 141.386719 322.882812 " fill-opacity="1" fill-rule="nonzero"/><path fill="#329fe4" d="M 233.546875 322.882812 C 233.042969 322.878906 232.554688 322.792969 232.082031 322.617188 C 231.613281 322.441406 231.183594 322.191406 230.800781 321.863281 C 230.421875 321.535156 230.105469 321.152344 229.859375 320.714844 C 229.613281 320.273438 229.449219 319.808594 229.371094 319.308594 L 225.039062 291.457031 C 225 291.183594 224.984375 290.90625 224.996094 290.628906 C 225.007812 290.351562 225.046875 290.078125 225.113281 289.808594 C 225.175781 289.539062 225.269531 289.277344 225.386719 289.027344 C 225.503906 288.777344 225.644531 288.539062 225.804688 288.3125 C 225.96875 288.089844 226.152344 287.882812 226.359375 287.695312 C 226.5625 287.507812 226.78125 287.34375 227.019531 287.199219 C 227.257812 287.054688 227.503906 286.933594 227.765625 286.839844 C 228.023438 286.746094 228.292969 286.675781 228.566406 286.632812 C 228.839844 286.589844 229.113281 286.574219 229.390625 286.585938 C 229.667969 286.597656 229.941406 286.636719 230.210938 286.703125 C 230.480469 286.765625 230.742188 286.859375 230.992188 286.972656 C 231.242188 287.089844 231.480469 287.230469 231.707031 287.394531 C 231.929688 287.558594 232.136719 287.742188 232.324219 287.945312 C 232.511719 288.148438 232.675781 288.371094 232.820312 288.605469 C 232.964844 288.84375 233.085938 289.089844 233.183594 289.351562 C 233.277344 289.613281 233.347656 289.878906 233.390625 290.152344 L 237.71875 318.007812 C 237.761719 318.28125 237.777344 318.554688 237.765625 318.832031 C 237.753906 319.109375 237.714844 319.382812 237.648438 319.652344 C 237.582031 319.921875 237.492188 320.179688 237.375 320.429688 C 237.257812 320.683594 237.121094 320.921875 236.957031 321.144531 C 236.792969 321.367188 236.609375 321.574219 236.40625 321.761719 C 236.203125 321.949219 235.984375 322.113281 235.746094 322.257812 C 235.511719 322.402344 235.265625 322.523438 235.003906 322.617188 C 234.746094 322.714844 234.476562 322.785156 234.207031 322.828125 C 233.988281 322.863281 233.765625 322.878906 233.546875 322.882812 Z M 233.546875 322.882812 " fill-opacity="1" fill-rule="nonzero"/></svg>