<svg xmlns="http://www.w3.org/2000/svg" xmlns:xlink="http://www.w3.org/1999/xlink" width="500" zoomAndPan="magnify" viewBox="0 0 375 374.999991" height="500" preserveAspectRatio="xMidYMid meet" version="1.0"><defs><clipPath id="ef5e86bac4"><path d="M 112.5 112.5 L 262.5 112.5 L 262.5 262.5 L 112.5 262.5 Z M 112.5 112.5 " clip-rule="nonzero"/></clipPath></defs><path fill="#020202" d="M 219.035156 173.375 L 187.152344 146.554688 C 186.003906 145.589844 184.328125 145.589844 183.183594 146.554688 L 151.074219 173.566406 C 150.085938 174.398438 149.722656 175.765625 150.164062 176.980469 C 150.609375 178.195312 151.765625 179.007812 153.058594 179.007812 L 157.746094 179.007812 L 157.746094 214.8125 C 157.746094 218.894531 161.058594 222.207031 165.140625 222.207031 L 175.617188 222.207031 L 175.617188 201.253906 C 175.617188 199.894531 176.722656 198.789062 178.082031 198.789062 L 192.257812 198.789062 C 193.617188 198.789062 194.722656 199.894531 194.722656 201.253906 L 194.722656 222.207031 L 205.199219 222.207031 C 209.28125 222.207031 212.59375 218.894531 212.59375 214.8125 L 212.59375 179.007812 L 217.277344 179.007812 C 217.285156 179.007812 217.296875 179.007812 217.304688 179.007812 C 219.003906 179.007812 220.382812 177.628906 220.382812 175.925781 C 220.382812 174.863281 219.847656 173.929688 219.035156 173.375 Z M 219.035156 173.375 " fill-opacity="1" fill-rule="nonzero"/><g clip-path="url(#ef5e86bac4)"><path fill="#000000" d="M 187.515625 262.457031 C 146.175781 262.457031 112.539062 228.820312 112.539062 187.476562 C 112.539062 146.132812 146.175781 112.496094 187.515625 112.496094 C 228.863281 112.496094 262.5 146.132812 262.5 187.476562 C 262.5 228.820312 228.863281 262.457031 187.515625 262.457031 Z M 187.515625 119.890625 C 150.25 119.890625 119.933594 150.210938 119.933594 187.476562 C 119.933594 224.742188 150.25 255.0625 187.515625 255.0625 C 224.785156 255.0625 255.105469 224.742188 255.105469 187.476562 C 255.105469 150.210938 224.785156 119.890625 187.515625 119.890625 Z M 187.515625 119.890625 " fill-opacity="1" fill-rule="nonzero"/></g></svg>