<svg xmlns="http://www.w3.org/2000/svg" xmlns:xlink="http://www.w3.org/1999/xlink" width="500" zoomAndPan="magnify" viewBox="0 0 375 374.999991" height="500" preserveAspectRatio="xMidYMid meet" version="1.0"><defs><g/><clipPath id="a30974eaaa"><path d="M 4.832031 108.964844 L 40.066406 108.964844 L 40.066406 144.199219 L 4.832031 144.199219 Z M 4.832031 108.964844 " clip-rule="nonzero"/></clipPath><clipPath id="be5241b5cc"><path d="M 22.449219 108.964844 C 21.292969 108.964844 20.148438 109.078125 19.011719 109.304688 C 17.878906 109.53125 16.777344 109.863281 15.707031 110.308594 C 14.640625 110.75 13.625 111.292969 12.660156 111.933594 C 11.699219 112.578125 10.808594 113.308594 9.992188 114.125 C 9.175781 114.945312 8.445312 115.835938 7.800781 116.796875 C 7.160156 117.757812 6.617188 118.773438 6.171875 119.84375 C 5.730469 120.910156 5.398438 122.011719 5.171875 123.148438 C 4.945312 124.28125 4.832031 125.425781 4.832031 126.582031 C 4.832031 127.742188 4.945312 128.886719 5.171875 130.019531 C 5.398438 131.15625 5.730469 132.257812 6.171875 133.324219 C 6.617188 134.394531 7.160156 135.410156 7.800781 136.371094 C 8.445312 137.332031 9.175781 138.222656 9.992188 139.039062 C 10.808594 139.859375 11.699219 140.589844 12.660156 141.230469 C 13.625 141.875 14.640625 142.417969 15.707031 142.859375 C 16.777344 143.300781 17.878906 143.636719 19.011719 143.863281 C 20.148438 144.089844 21.292969 144.199219 22.449219 144.199219 C 23.605469 144.199219 24.753906 144.089844 25.886719 143.863281 C 27.019531 143.636719 28.121094 143.300781 29.191406 142.859375 C 30.261719 142.417969 31.277344 141.875 32.238281 141.230469 C 33.199219 140.589844 34.089844 139.859375 34.90625 139.039062 C 35.726562 138.222656 36.457031 137.332031 37.097656 136.371094 C 37.742188 135.410156 38.28125 134.394531 38.726562 133.324219 C 39.167969 132.257812 39.503906 131.15625 39.726562 130.019531 C 39.953125 128.886719 40.066406 127.742188 40.066406 126.582031 C 40.066406 125.425781 39.953125 124.28125 39.726562 123.148438 C 39.503906 122.011719 39.167969 120.910156 38.726562 119.84375 C 38.28125 118.773438 37.742188 117.757812 37.097656 116.796875 C 36.457031 115.835938 35.726562 114.945312 34.90625 114.125 C 34.089844 113.308594 33.199219 112.578125 32.238281 111.933594 C 31.277344 111.292969 30.261719 110.75 29.191406 110.308594 C 28.121094 109.863281 27.019531 109.53125 25.886719 109.304688 C 24.753906 109.078125 23.605469 108.964844 22.449219 108.964844 Z M 22.449219 108.964844 " clip-rule="nonzero"/></clipPath><clipPath id="ba477b9c39"><path d="M 61.210938 108.964844 L 96.445312 108.964844 L 96.445312 144.199219 L 61.210938 144.199219 Z M 61.210938 108.964844 " clip-rule="nonzero"/></clipPath><clipPath id="09b69992d1"><path d="M 78.828125 108.964844 C 77.671875 108.964844 76.523438 109.078125 75.390625 109.304688 C 74.253906 109.53125 73.152344 109.863281 72.085938 110.308594 C 71.015625 110.75 70 111.292969 69.039062 111.933594 C 68.078125 112.578125 67.1875 113.308594 66.371094 114.125 C 65.550781 114.945312 64.820312 115.835938 64.179688 116.796875 C 63.535156 117.757812 62.992188 118.773438 62.550781 119.84375 C 62.109375 120.910156 61.773438 122.011719 61.546875 123.148438 C 61.324219 124.28125 61.210938 125.425781 61.210938 126.582031 C 61.210938 127.742188 61.324219 128.886719 61.546875 130.019531 C 61.773438 131.15625 62.109375 132.257812 62.550781 133.324219 C 62.992188 134.394531 63.535156 135.410156 64.179688 136.371094 C 64.820312 137.332031 65.550781 138.222656 66.371094 139.042969 C 67.1875 139.859375 68.078125 140.589844 69.039062 141.230469 C 70 141.875 71.015625 142.417969 72.085938 142.859375 C 73.152344 143.300781 74.253906 143.636719 75.390625 143.863281 C 76.523438 144.089844 77.671875 144.199219 78.828125 144.199219 C 79.984375 144.199219 81.128906 144.089844 82.265625 143.863281 C 83.398438 143.636719 84.5 143.300781 85.570312 142.859375 C 86.636719 142.417969 87.652344 141.875 88.613281 141.230469 C 89.578125 140.589844 90.464844 139.859375 91.285156 139.042969 C 92.101562 138.222656 92.832031 137.332031 93.476562 136.371094 C 94.117188 135.410156 94.660156 134.394531 95.101562 133.324219 C 95.546875 132.257812 95.878906 131.15625 96.105469 130.019531 C 96.332031 128.886719 96.445312 127.742188 96.445312 126.582031 C 96.445312 125.425781 96.332031 124.28125 96.105469 123.148438 C 95.878906 122.011719 95.546875 120.910156 95.101562 119.84375 C 94.660156 118.773438 94.117188 117.757812 93.476562 116.796875 C 92.832031 115.835938 92.101562 114.945312 91.285156 114.125 C 90.464844 113.308594 89.578125 112.578125 88.613281 111.933594 C 87.652344 111.292969 86.636719 110.75 85.570312 110.308594 C 84.5 109.863281 83.398438 109.53125 82.265625 109.304688 C 81.128906 109.078125 79.984375 108.964844 78.828125 108.964844 Z M 78.828125 108.964844 " clip-rule="nonzero"/></clipPath><clipPath id="bcac2036be"><path d="M 117.585938 108.964844 L 152.820312 108.964844 L 152.820312 144.199219 L 117.585938 144.199219 Z M 117.585938 108.964844 " clip-rule="nonzero"/></clipPath><clipPath id="2f1bc9d988"><path d="M 135.203125 108.964844 C 134.046875 108.964844 132.902344 109.078125 131.769531 109.304688 C 130.632812 109.53125 129.53125 109.863281 128.460938 110.308594 C 127.394531 110.75 126.378906 111.292969 125.417969 111.933594 C 124.457031 112.578125 123.566406 113.308594 122.746094 114.125 C 121.929688 114.945312 121.199219 115.835938 120.554688 116.796875 C 119.914062 117.757812 119.371094 118.773438 118.929688 119.84375 C 118.484375 120.910156 118.152344 122.011719 117.925781 123.148438 C 117.699219 124.28125 117.585938 125.425781 117.585938 126.582031 C 117.585938 127.742188 117.699219 128.886719 117.925781 130.019531 C 118.152344 131.15625 118.484375 132.257812 118.929688 133.324219 C 119.371094 134.394531 119.914062 135.410156 120.554688 136.371094 C 121.199219 137.332031 121.929688 138.222656 122.746094 139.039062 C 123.566406 139.859375 124.457031 140.589844 125.417969 141.230469 C 126.378906 141.875 127.394531 142.417969 128.460938 142.859375 C 129.53125 143.300781 130.632812 143.636719 131.769531 143.863281 C 132.902344 144.089844 134.046875 144.199219 135.203125 144.199219 C 136.363281 144.199219 137.507812 144.089844 138.640625 143.863281 C 139.777344 143.636719 140.878906 143.300781 141.945312 142.859375 C 143.015625 142.417969 144.03125 141.875 144.992188 141.230469 C 145.953125 140.589844 146.84375 139.859375 147.660156 139.039062 C 148.480469 138.222656 149.210938 137.332031 149.851562 136.371094 C 150.496094 135.410156 151.039062 134.394531 151.480469 133.324219 C 151.921875 132.257812 152.257812 131.15625 152.484375 130.019531 C 152.710938 128.886719 152.820312 127.742188 152.820312 126.582031 C 152.820312 125.425781 152.710938 124.28125 152.484375 123.148438 C 152.257812 122.011719 151.921875 120.910156 151.480469 119.84375 C 151.039062 118.773438 150.496094 117.757812 149.851562 116.796875 C 149.210938 115.835938 148.480469 114.945312 147.660156 114.125 C 146.84375 113.308594 145.953125 112.578125 144.992188 111.933594 C 144.03125 111.292969 143.015625 110.75 141.945312 110.308594 C 140.878906 109.863281 139.777344 109.53125 138.640625 109.304688 C 137.507812 109.078125 136.363281 108.964844 135.203125 108.964844 Z M 135.203125 108.964844 " clip-rule="nonzero"/></clipPath></defs><g fill="#222222" fill-opacity="1"><g transform="translate(0.0000045, 206.059593)"><g><path d="M 5.234375 -39 L 12.484375 -39 L 12.484375 -6.125 L 32.875 -6.125 L 32.875 0 L 5.234375 0 Z M 5.234375 -39 "/></g></g></g><g fill="#222222" fill-opacity="1"><g transform="translate(57.891106, 206.059593)"><g><path d="M 5.234375 -39 L 12.484375 -39 L 12.484375 0 L 5.234375 0 Z M 5.234375 -39 "/></g></g></g><g fill="#222222" fill-opacity="1"><g transform="translate(100.182489, 206.059593)"><g><path d="M 39.890625 -39 L 39.890625 0 L 33.9375 0 L 12.421875 -26.40625 L 12.421875 0 L 5.234375 0 L 5.234375 -39 L 11.203125 -39 L 32.703125 -12.59375 L 32.703125 -39 Z M 39.890625 -39 "/></g></g></g><g fill="#222222" fill-opacity="1"><g transform="translate(169.829093, 206.059593)"><g><path d="M 31.875 -19.953125 L 38.71875 -19.953125 L 38.71875 -4.40625 C 36.71875 -2.800781 34.378906 -1.570312 31.703125 -0.71875 C 29.023438 0.132812 26.273438 0.5625 23.453125 0.5625 C 19.484375 0.5625 15.898438 -0.300781 12.703125 -2.03125 C 9.503906 -3.757812 6.992188 -6.144531 5.171875 -9.1875 C 3.359375 -12.238281 2.453125 -15.675781 2.453125 -19.5 C 2.453125 -23.320312 3.359375 -26.753906 5.171875 -29.796875 C 6.992188 -32.847656 9.507812 -35.238281 12.71875 -36.96875 C 15.9375 -38.695312 19.550781 -39.5625 23.5625 -39.5625 C 26.832031 -39.5625 29.804688 -39.019531 32.484375 -37.9375 C 35.160156 -36.863281 37.40625 -35.285156 39.21875 -33.203125 L 34.65625 -28.75 C 31.6875 -31.71875 28.101562 -33.203125 23.90625 -33.203125 C 21.15625 -33.203125 18.710938 -32.625 16.578125 -31.46875 C 14.441406 -30.320312 12.769531 -28.707031 11.5625 -26.625 C 10.351562 -24.550781 9.75 -22.175781 9.75 -19.5 C 9.75 -16.894531 10.351562 -14.550781 11.5625 -12.46875 C 12.769531 -10.394531 14.441406 -8.765625 16.578125 -7.578125 C 18.710938 -6.390625 21.132812 -5.796875 23.84375 -5.796875 C 26.894531 -5.796875 29.570312 -6.460938 31.875 -7.796875 Z M 31.875 -19.953125 "/></g></g></g><g fill="#222222" fill-opacity="1"><g transform="translate(237.358597, 206.059593)"><g><path d="M 22.015625 0.5625 C 16.617188 0.5625 12.414062 -0.953125 9.40625 -3.984375 C 6.40625 -7.015625 4.90625 -11.351562 4.90625 -17 L 4.90625 -39 L 12.140625 -39 L 12.140625 -17.265625 C 12.140625 -9.617188 15.445312 -5.796875 22.0625 -5.796875 C 28.632812 -5.796875 31.921875 -9.617188 31.921875 -17.265625 L 31.921875 -39 L 39.0625 -39 L 39.0625 -17 C 39.0625 -11.351562 37.566406 -7.015625 34.578125 -3.984375 C 31.585938 -0.953125 27.398438 0.5625 22.015625 0.5625 Z M 22.015625 0.5625 "/></g></g></g><g fill="#222222" fill-opacity="1"><g transform="translate(305.835233, 206.059593)"><g><path d="M 30.53125 -9.03125 L 11.03125 -9.03125 L 7.1875 0 L -0.28125 0 L 17.265625 -39 L 24.40625 -39 L 42.015625 0 L 34.4375 0 Z M 28.140625 -14.703125 L 20.78125 -31.765625 L 13.484375 -14.703125 Z M 28.140625 -14.703125 "/></g></g></g><g fill="#222222" fill-opacity="1"><g transform="translate(4.832384, 260.60341)"><g><path d="M 8.734375 0 L 6.453125 0 L 6.453125 -17.609375 L 0.234375 -17.609375 L 0.234375 -19.625 L 14.953125 -19.625 L 14.953125 -17.609375 L 8.734375 -17.609375 Z M 8.734375 0 "/></g></g></g><g fill="#222222" fill-opacity="1"><g transform="translate(27.463106, 260.60341)"><g><path d="M 15.046875 0 L 12.59375 -6.25 L 4.734375 -6.25 L 2.3125 0 L 0 0 L 7.765625 -19.71875 L 9.6875 -19.71875 L 17.40625 0 Z M 11.890625 -8.296875 L 9.59375 -14.375 C 9.300781 -15.144531 9 -16.09375 8.6875 -17.21875 C 8.488281 -16.351562 8.207031 -15.40625 7.84375 -14.375 L 5.53125 -8.296875 Z M 11.890625 -8.296875 "/></g></g></g><g fill="#222222" fill-opacity="1"><g transform="translate(52.281135, 260.60341)"><g><path d="M 2.703125 0 L 2.703125 -19.625 L 4.984375 -19.625 L 4.984375 -2.0625 L 13.640625 -2.0625 L 13.640625 0 Z M 2.703125 0 "/></g></g></g><g fill="#222222" fill-opacity="1"><g transform="translate(73.972522, 260.60341)"><g><path d="M 16.875 0 L 14.1875 0 L 7.03125 -9.515625 L 4.984375 -7.6875 L 4.984375 0 L 2.703125 0 L 2.703125 -19.625 L 4.984375 -19.625 L 4.984375 -9.890625 L 13.890625 -19.625 L 16.578125 -19.625 L 8.6875 -11.109375 Z M 16.875 0 "/></g></g></g><g fill="#222222" fill-opacity="1"><g transform="translate(98.267212, 260.60341)"><g><path d="M 2.703125 0 L 2.703125 -19.625 L 4.984375 -19.625 L 4.984375 0 Z M 2.703125 0 "/></g></g></g><g fill="#222222" fill-opacity="1"><g transform="translate(113.356388, 260.60341)"><g><path d="M 18.03125 0 L 15.421875 0 L 4.703125 -16.46875 L 4.59375 -16.46875 C 4.738281 -14.539062 4.8125 -12.769531 4.8125 -11.15625 L 4.8125 0 L 2.703125 0 L 2.703125 -19.625 L 5.28125 -19.625 L 15.984375 -3.21875 L 16.09375 -3.21875 C 16.070312 -3.457031 16.03125 -4.234375 15.96875 -5.546875 C 15.90625 -6.859375 15.882812 -7.796875 15.90625 -8.359375 L 15.90625 -19.625 L 18.03125 -19.625 Z M 18.03125 0 "/></g></g></g><g fill="#222222" fill-opacity="1"><g transform="translate(141.502356, 260.60341)"><g><path d="M 11.328125 -10.28125 L 18 -10.28125 L 18 -0.734375 C 16.96875 -0.398438 15.910156 -0.148438 14.828125 0.015625 C 13.753906 0.179688 12.515625 0.265625 11.109375 0.265625 C 8.128906 0.265625 5.8125 -0.613281 4.15625 -2.375 C 2.5 -4.144531 1.671875 -6.625 1.671875 -9.8125 C 1.671875 -11.851562 2.082031 -13.640625 2.90625 -15.171875 C 3.726562 -16.710938 4.90625 -17.882812 6.4375 -18.6875 C 7.976562 -19.5 9.785156 -19.90625 11.859375 -19.90625 C 13.953125 -19.90625 15.90625 -19.523438 17.71875 -18.765625 L 16.828125 -16.75 C 15.054688 -17.5 13.347656 -17.875 11.703125 -17.875 C 9.316406 -17.875 7.453125 -17.160156 6.109375 -15.734375 C 4.765625 -14.316406 4.09375 -12.34375 4.09375 -9.8125 C 4.09375 -7.164062 4.738281 -5.15625 6.03125 -3.78125 C 7.320312 -2.414062 9.222656 -1.734375 11.734375 -1.734375 C 13.097656 -1.734375 14.425781 -1.890625 15.71875 -2.203125 L 15.71875 -8.25 L 11.328125 -8.25 Z M 11.328125 -10.28125 "/></g></g></g><g fill="#222222" fill-opacity="1"><g transform="translate(168.93712, 260.60341)"><g/></g></g><g fill="#222222" fill-opacity="1"><g transform="translate(183.502951, 260.60341)"><g><path d="M 11.109375 -17.875 C 8.953125 -17.875 7.25 -17.15625 6 -15.71875 C 4.75 -14.28125 4.125 -12.3125 4.125 -9.8125 C 4.125 -7.25 4.722656 -5.265625 5.921875 -3.859375 C 7.128906 -2.460938 8.847656 -1.765625 11.078125 -1.765625 C 12.441406 -1.765625 14.003906 -2.007812 15.765625 -2.5 L 15.765625 -0.5 C 14.398438 0.0078125 12.722656 0.265625 10.734375 0.265625 C 7.835938 0.265625 5.601562 -0.609375 4.03125 -2.359375 C 2.457031 -4.117188 1.671875 -6.613281 1.671875 -9.84375 C 1.671875 -11.863281 2.050781 -13.632812 2.8125 -15.15625 C 3.570312 -16.675781 4.664062 -17.847656 6.09375 -18.671875 C 7.519531 -19.492188 9.195312 -19.90625 11.125 -19.90625 C 13.1875 -19.90625 14.988281 -19.53125 16.53125 -18.78125 L 15.5625 -16.828125 C 14.070312 -17.523438 12.585938 -17.875 11.109375 -17.875 Z M 11.109375 -17.875 "/></g></g></g><g fill="#222222" fill-opacity="1"><g transform="translate(208.267309, 260.60341)"><g><path d="M 2.703125 0 L 2.703125 -19.625 L 4.984375 -19.625 L 4.984375 -2.0625 L 13.640625 -2.0625 L 13.640625 0 Z M 2.703125 0 "/></g></g></g><g fill="#222222" fill-opacity="1"><g transform="translate(229.9587, 260.60341)"><g><path d="M 17.515625 -19.625 L 17.515625 -6.921875 C 17.515625 -4.691406 16.835938 -2.9375 15.484375 -1.65625 C 14.140625 -0.375 12.285156 0.265625 9.921875 0.265625 C 7.554688 0.265625 5.726562 -0.375 4.4375 -1.65625 C 3.144531 -2.945312 2.5 -4.722656 2.5 -6.984375 L 2.5 -19.625 L 4.78125 -19.625 L 4.78125 -6.828125 C 4.78125 -5.179688 5.226562 -3.921875 6.125 -3.046875 C 7.019531 -2.171875 8.335938 -1.734375 10.078125 -1.734375 C 11.734375 -1.734375 13.003906 -2.171875 13.890625 -3.046875 C 14.785156 -3.929688 15.234375 -5.195312 15.234375 -6.84375 L 15.234375 -19.625 Z M 17.515625 -19.625 "/></g></g></g><g fill="#222222" fill-opacity="1"><g transform="translate(257.393472, 260.60341)"><g><path d="M 2.703125 -19.625 L 8.25 -19.625 C 10.851562 -19.625 12.734375 -19.234375 13.890625 -18.453125 C 15.054688 -17.679688 15.640625 -16.453125 15.640625 -14.765625 C 15.640625 -13.609375 15.316406 -12.648438 14.671875 -11.890625 C 14.023438 -11.128906 13.078125 -10.640625 11.828125 -10.421875 L 11.828125 -10.28125 C 14.804688 -9.769531 16.296875 -8.207031 16.296875 -5.59375 C 16.296875 -3.832031 15.703125 -2.457031 14.515625 -1.46875 C 13.335938 -0.488281 11.679688 0 9.546875 0 L 2.703125 0 Z M 4.984375 -11.21875 L 8.734375 -11.21875 C 10.347656 -11.21875 11.507812 -11.472656 12.21875 -11.984375 C 12.925781 -12.492188 13.28125 -13.347656 13.28125 -14.546875 C 13.28125 -15.640625 12.882812 -16.429688 12.09375 -16.921875 C 11.3125 -17.410156 10.0625 -17.65625 8.34375 -17.65625 L 4.984375 -17.65625 Z M 4.984375 -9.296875 L 4.984375 -1.953125 L 9.078125 -1.953125 C 10.660156 -1.953125 11.851562 -2.253906 12.65625 -2.859375 C 13.457031 -3.472656 13.859375 -4.4375 13.859375 -5.75 C 13.859375 -6.96875 13.445312 -7.863281 12.625 -8.4375 C 11.8125 -9.007812 10.566406 -9.296875 8.890625 -9.296875 Z M 4.984375 -9.296875 "/></g></g></g><g clip-path="url(#a30974eaaa)"><g clip-path="url(#be5241b5cc)"><path fill="#ff5c5c" d="M 4.832031 108.964844 L 40.066406 108.964844 L 40.066406 144.199219 L 4.832031 144.199219 Z M 4.832031 108.964844 " fill-opacity="1" fill-rule="nonzero"/></g></g><g clip-path="url(#ba477b9c39)"><g clip-path="url(#09b69992d1)"><path fill="#a8a8a8" d="M 61.210938 108.964844 L 96.445312 108.964844 L 96.445312 144.199219 L 61.210938 144.199219 Z M 61.210938 108.964844 " fill-opacity="1" fill-rule="nonzero"/></g></g><g clip-path="url(#bcac2036be)"><g clip-path="url(#2f1bc9d988)"><path fill="#ffbd4a" d="M 117.585938 108.964844 L 152.820312 108.964844 L 152.820312 144.199219 L 117.585938 144.199219 Z M 117.585938 108.964844 " fill-opacity="1" fill-rule="nonzero"/></g></g></svg>