<svg xmlns="http://www.w3.org/2000/svg" xmlns:xlink="http://www.w3.org/1999/xlink" width="500" zoomAndPan="magnify" viewBox="0 0 375 374.999991" height="500" preserveAspectRatio="xMidYMid meet" version="1.0"><defs><g/><clipPath id="f9ecf99ccb"><path d="M 4.832031 94.9375 L 44.378906 94.9375 L 44.378906 134.480469 L 4.832031 134.480469 Z M 4.832031 94.9375 " clip-rule="nonzero"/></clipPath><clipPath id="65667c5d7d"><path d="M 24.605469 94.9375 C 23.304688 94.9375 22.019531 95.0625 20.746094 95.316406 C 19.472656 95.570312 18.238281 95.945312 17.039062 96.441406 C 15.839844 96.9375 14.699219 97.546875 13.621094 98.269531 C 12.539062 98.992188 11.542969 99.808594 10.625 100.726562 C 9.707031 101.644531 8.886719 102.644531 8.164062 103.722656 C 7.441406 104.804688 6.835938 105.941406 6.335938 107.144531 C 5.839844 108.34375 5.464844 109.578125 5.210938 110.851562 C 4.960938 112.125 4.832031 113.410156 4.832031 114.710938 C 4.832031 116.007812 4.960938 117.292969 5.210938 118.566406 C 5.464844 119.839844 5.839844 121.078125 6.335938 122.277344 C 6.835938 123.476562 7.441406 124.613281 8.164062 125.695312 C 8.886719 126.773438 9.707031 127.773438 10.625 128.691406 C 11.542969 129.609375 12.539062 130.429688 13.621094 131.148438 C 14.699219 131.871094 15.839844 132.480469 17.039062 132.976562 C 18.238281 133.472656 19.472656 133.847656 20.746094 134.101562 C 22.019531 134.355469 23.304688 134.480469 24.605469 134.480469 C 25.902344 134.480469 27.1875 134.355469 28.460938 134.101562 C 29.734375 133.847656 30.972656 133.472656 32.171875 132.976562 C 33.371094 132.480469 34.511719 131.871094 35.589844 131.148438 C 36.667969 130.429688 37.667969 129.609375 38.585938 128.691406 C 39.503906 127.773438 40.324219 126.773438 41.042969 125.695312 C 41.765625 124.613281 42.375 123.476562 42.871094 122.277344 C 43.367188 121.078125 43.742188 119.839844 43.996094 118.566406 C 44.25 117.292969 44.378906 116.007812 44.378906 114.710938 C 44.378906 113.410156 44.25 112.125 43.996094 110.851562 C 43.742188 109.578125 43.367188 108.34375 42.871094 107.144531 C 42.375 105.941406 41.765625 104.804688 41.042969 103.722656 C 40.324219 102.644531 39.503906 101.644531 38.585938 100.726562 C 37.667969 99.808594 36.667969 98.992188 35.589844 98.269531 C 34.511719 97.546875 33.371094 96.9375 32.171875 96.441406 C 30.972656 95.945312 29.734375 95.570312 28.460938 95.316406 C 27.1875 95.0625 25.902344 94.9375 24.605469 94.9375 Z M 24.605469 94.9375 " clip-rule="nonzero"/></clipPath><clipPath id="92de39f0a3"><path d="M 68.105469 94.9375 L 107.652344 94.9375 L 107.652344 134.480469 L 68.105469 134.480469 Z M 68.105469 94.9375 " clip-rule="nonzero"/></clipPath><clipPath id="2788517c8d"><path d="M 87.878906 94.9375 C 86.582031 94.9375 85.292969 95.0625 84.023438 95.316406 C 82.75 95.570312 81.511719 95.945312 80.3125 96.441406 C 79.113281 96.9375 77.972656 97.546875 76.894531 98.269531 C 75.816406 98.992188 74.816406 99.808594 73.898438 100.726562 C 72.980469 101.644531 72.160156 102.644531 71.4375 103.722656 C 70.71875 104.804688 70.109375 105.941406 69.613281 107.144531 C 69.113281 108.34375 68.738281 109.578125 68.488281 110.851562 C 68.234375 112.125 68.105469 113.410156 68.105469 114.710938 C 68.105469 116.007812 68.234375 117.292969 68.488281 118.566406 C 68.738281 119.839844 69.113281 121.078125 69.613281 122.277344 C 70.109375 123.476562 70.71875 124.613281 71.4375 125.695312 C 72.160156 126.773438 72.980469 127.773438 73.898438 128.691406 C 74.816406 129.609375 75.816406 130.429688 76.894531 131.148438 C 77.972656 131.871094 79.113281 132.480469 80.3125 132.976562 C 81.511719 133.472656 82.75 133.847656 84.023438 134.101562 C 85.292969 134.355469 86.582031 134.480469 87.878906 134.480469 C 89.175781 134.480469 90.464844 134.355469 91.738281 134.101562 C 93.007812 133.847656 94.246094 133.472656 95.445312 132.976562 C 96.644531 132.480469 97.785156 131.871094 98.863281 131.148438 C 99.945312 130.429688 100.941406 129.609375 101.859375 128.691406 C 102.777344 127.773438 103.597656 126.773438 104.320312 125.695312 C 105.039062 124.613281 105.648438 123.476562 106.144531 122.277344 C 106.644531 121.078125 107.019531 119.839844 107.269531 118.566406 C 107.523438 117.292969 107.652344 116.007812 107.652344 114.710938 C 107.652344 113.410156 107.523438 112.125 107.269531 110.851562 C 107.019531 109.578125 106.644531 108.34375 106.144531 107.144531 C 105.648438 105.941406 105.039062 104.804688 104.320312 103.722656 C 103.597656 102.644531 102.777344 101.644531 101.859375 100.726562 C 100.941406 99.808594 99.945312 98.992188 98.863281 98.269531 C 97.785156 97.546875 96.644531 96.9375 95.445312 96.441406 C 94.246094 95.945312 93.007812 95.570312 91.738281 95.316406 C 90.464844 95.0625 89.175781 94.9375 87.878906 94.9375 Z M 87.878906 94.9375 " clip-rule="nonzero"/></clipPath><clipPath id="6cae2241f3"><path d="M 131.382812 94.9375 L 170.925781 94.9375 L 170.925781 134.480469 L 131.382812 134.480469 Z M 131.382812 94.9375 " clip-rule="nonzero"/></clipPath><clipPath id="3a437fa68b"><path d="M 151.152344 94.9375 C 149.855469 94.9375 148.570312 95.0625 147.296875 95.316406 C 146.023438 95.570312 144.785156 95.945312 143.585938 96.441406 C 142.386719 96.9375 141.246094 97.546875 140.167969 98.269531 C 139.089844 98.992188 138.089844 99.808594 137.171875 100.726562 C 136.253906 101.644531 135.433594 102.644531 134.714844 103.722656 C 133.992188 104.804688 133.382812 105.941406 132.886719 107.144531 C 132.390625 108.34375 132.015625 109.578125 131.761719 110.851562 C 131.507812 112.125 131.382812 113.410156 131.382812 114.710938 C 131.382812 116.007812 131.507812 117.292969 131.761719 118.566406 C 132.015625 119.839844 132.390625 121.078125 132.886719 122.277344 C 133.382812 123.476562 133.992188 124.613281 134.714844 125.695312 C 135.433594 126.773438 136.253906 127.773438 137.171875 128.691406 C 138.089844 129.609375 139.089844 130.429688 140.167969 131.148438 C 141.246094 131.871094 142.386719 132.480469 143.585938 132.976562 C 144.785156 133.472656 146.023438 133.847656 147.296875 134.101562 C 148.570312 134.355469 149.855469 134.480469 151.152344 134.480469 C 152.453125 134.480469 153.738281 134.355469 155.011719 134.101562 C 156.285156 133.847656 157.519531 133.472656 158.71875 132.976562 C 159.917969 132.480469 161.058594 131.871094 162.136719 131.148438 C 163.21875 130.429688 164.214844 129.609375 165.132812 128.691406 C 166.050781 127.773438 166.871094 126.773438 167.59375 125.695312 C 168.316406 124.613281 168.921875 123.476562 169.421875 122.277344 C 169.917969 121.078125 170.292969 119.839844 170.546875 118.566406 C 170.800781 117.292969 170.925781 116.007812 170.925781 114.710938 C 170.925781 113.410156 170.800781 112.125 170.546875 110.851562 C 170.292969 109.578125 169.917969 108.34375 169.421875 107.144531 C 168.921875 105.941406 168.316406 104.804688 167.59375 103.722656 C 166.871094 102.644531 166.050781 101.644531 165.132812 100.726562 C 164.214844 99.808594 163.21875 98.992188 162.136719 98.269531 C 161.058594 97.546875 159.917969 96.9375 158.71875 96.441406 C 157.519531 95.945312 156.285156 95.570312 155.011719 95.316406 C 153.738281 95.0625 152.453125 94.9375 151.152344 94.9375 Z M 151.152344 94.9375 " clip-rule="nonzero"/></clipPath></defs><g fill="#515050" fill-opacity="1"><g transform="translate(0.0000045, 203.618279)"><g><path d="M 6.171875 -46.015625 L 14.71875 -46.015625 L 14.71875 -7.234375 L 38.78125 -7.234375 L 38.78125 0 L 6.171875 0 Z M 6.171875 -46.015625 "/></g></g></g><g fill="#515050" fill-opacity="1"><g transform="translate(56.324433, 203.618279)"><g><path d="M 6.171875 -46.015625 L 14.71875 -46.015625 L 14.71875 0 L 6.171875 0 Z M 6.171875 -46.015625 "/></g></g></g><g fill="#515050" fill-opacity="1"><g transform="translate(94.247599, 203.618279)"><g><path d="M 47.0625 -46.015625 L 47.0625 0 L 40.03125 0 L 14.65625 -31.15625 L 14.65625 0 L 6.171875 0 L 6.171875 -46.015625 L 13.21875 -46.015625 L 38.59375 -14.859375 L 38.59375 -46.015625 Z M 47.0625 -46.015625 "/></g></g></g><g fill="#515050" fill-opacity="1"><g transform="translate(164.438684, 203.618279)"><g><path d="M 37.59375 -23.53125 L 45.6875 -23.53125 L 45.6875 -5.1875 C 43.320312 -3.300781 40.5625 -1.851562 37.40625 -0.84375 C 34.25 0.15625 31.003906 0.65625 27.671875 0.65625 C 22.984375 0.65625 18.753906 -0.359375 14.984375 -2.390625 C 11.210938 -4.429688 8.253906 -7.25 6.109375 -10.84375 C 3.960938 -14.4375 2.890625 -18.488281 2.890625 -23 C 2.890625 -27.519531 3.960938 -31.578125 6.109375 -35.171875 C 8.253906 -38.765625 11.222656 -41.578125 15.015625 -43.609375 C 18.804688 -45.648438 23.070312 -46.671875 27.8125 -46.671875 C 31.664062 -46.671875 35.171875 -46.035156 38.328125 -44.765625 C 41.484375 -43.492188 44.132812 -41.628906 46.28125 -39.171875 L 40.890625 -33.921875 C 37.378906 -37.421875 33.148438 -39.171875 28.203125 -39.171875 C 24.953125 -39.171875 22.066406 -38.492188 19.546875 -37.140625 C 17.035156 -35.785156 15.066406 -33.878906 13.640625 -31.421875 C 12.210938 -28.960938 11.5 -26.15625 11.5 -23 C 11.5 -19.9375 12.210938 -17.175781 13.640625 -14.71875 C 15.066406 -12.269531 17.035156 -10.34375 19.546875 -8.9375 C 22.066406 -7.539062 24.929688 -6.84375 28.140625 -6.84375 C 31.734375 -6.84375 34.882812 -7.628906 37.59375 -9.203125 Z M 37.59375 -23.53125 "/></g></g></g><g fill="#515050" fill-opacity="1"><g transform="translate(232.132451, 203.618279)"><g><path d="M 25.96875 0.65625 C 19.613281 0.65625 14.660156 -1.128906 11.109375 -4.703125 C 7.554688 -8.273438 5.78125 -13.390625 5.78125 -20.046875 L 5.78125 -46.015625 L 14.328125 -46.015625 L 14.328125 -20.375 C 14.328125 -11.351562 18.226562 -6.84375 26.03125 -6.84375 C 33.789062 -6.84375 37.671875 -11.351562 37.671875 -20.375 L 37.671875 -46.015625 L 46.078125 -46.015625 L 46.078125 -20.046875 C 46.078125 -13.390625 44.3125 -8.273438 40.78125 -4.703125 C 37.257812 -1.128906 32.320312 0.65625 25.96875 0.65625 Z M 25.96875 0.65625 "/></g></g></g><g fill="#515050" fill-opacity="1"><g transform="translate(300.943436, 203.618279)"><g><path d="M 36.015625 -10.65625 L 13.015625 -10.65625 L 8.484375 0 L -0.328125 0 L 20.375 -46.015625 L 28.796875 -46.015625 L 49.5625 0 L 40.625 0 Z M 33.203125 -17.359375 L 24.515625 -37.46875 L 15.90625 -17.359375 Z M 33.203125 -17.359375 "/></g></g></g><g fill="#444443" fill-opacity="1"><g transform="translate(4.832384, 259.016424)"><g><path d="M 8.734375 0 L 6.453125 0 L 6.453125 -17.609375 L 0.234375 -17.609375 L 0.234375 -19.625 L 14.953125 -19.625 L 14.953125 -17.609375 L 8.734375 -17.609375 Z M 8.734375 0 "/></g></g></g><g fill="#444443" fill-opacity="1"><g transform="translate(27.468533, 259.016424)"><g><path d="M 15.046875 0 L 12.59375 -6.25 L 4.734375 -6.25 L 2.3125 0 L 0 0 L 7.765625 -19.71875 L 9.6875 -19.71875 L 17.40625 0 Z M 11.890625 -8.296875 L 9.59375 -14.375 C 9.300781 -15.144531 9 -16.09375 8.6875 -17.21875 C 8.488281 -16.351562 8.207031 -15.40625 7.84375 -14.375 L 5.53125 -8.296875 Z M 11.890625 -8.296875 "/></g></g></g><g fill="#444443" fill-opacity="1"><g transform="translate(52.292781, 259.016424)"><g><path d="M 2.703125 0 L 2.703125 -19.625 L 4.984375 -19.625 L 4.984375 -2.0625 L 13.640625 -2.0625 L 13.640625 0 Z M 2.703125 0 "/></g></g></g><g fill="#444443" fill-opacity="1"><g transform="translate(73.989255, 259.016424)"><g><path d="M 16.875 0 L 14.1875 0 L 7.03125 -9.515625 L 4.984375 -7.6875 L 4.984375 0 L 2.703125 0 L 2.703125 -19.625 L 4.984375 -19.625 L 4.984375 -9.890625 L 13.890625 -19.625 L 16.578125 -19.625 L 8.6875 -11.109375 Z M 16.875 0 "/></g></g></g><g fill="#444443" fill-opacity="1"><g transform="translate(98.28997, 259.016424)"><g><path d="M 2.703125 0 L 2.703125 -19.625 L 4.984375 -19.625 L 4.984375 0 Z M 2.703125 0 "/></g></g></g><g fill="#444443" fill-opacity="1"><g transform="translate(113.381876, 259.016424)"><g><path d="M 18.03125 0 L 15.421875 0 L 4.703125 -16.46875 L 4.59375 -16.46875 C 4.738281 -14.539062 4.8125 -12.769531 4.8125 -11.15625 L 4.8125 0 L 2.703125 0 L 2.703125 -19.625 L 5.28125 -19.625 L 15.984375 -3.21875 L 16.09375 -3.21875 C 16.070312 -3.457031 16.03125 -4.234375 15.96875 -5.546875 C 15.90625 -6.859375 15.882812 -7.796875 15.90625 -8.359375 L 15.90625 -19.625 L 18.03125 -19.625 Z M 18.03125 0 "/></g></g></g><g fill="#444443" fill-opacity="1"><g transform="translate(141.535256, 259.016424)"><g><path d="M 11.328125 -10.28125 L 18 -10.28125 L 18 -0.734375 C 16.96875 -0.398438 15.910156 -0.148438 14.828125 0.015625 C 13.753906 0.179688 12.515625 0.265625 11.109375 0.265625 C 8.128906 0.265625 5.8125 -0.613281 4.15625 -2.375 C 2.5 -4.144531 1.671875 -6.625 1.671875 -9.8125 C 1.671875 -11.851562 2.082031 -13.640625 2.90625 -15.171875 C 3.726562 -16.710938 4.90625 -17.882812 6.4375 -18.6875 C 7.976562 -19.5 9.785156 -19.90625 11.859375 -19.90625 C 13.953125 -19.90625 15.90625 -19.523438 17.71875 -18.765625 L 16.828125 -16.75 C 15.054688 -17.5 13.347656 -17.875 11.703125 -17.875 C 9.316406 -17.875 7.453125 -17.160156 6.109375 -15.734375 C 4.765625 -14.316406 4.09375 -12.34375 4.09375 -9.8125 C 4.09375 -7.164062 4.738281 -5.15625 6.03125 -3.78125 C 7.320312 -2.414062 9.222656 -1.734375 11.734375 -1.734375 C 13.097656 -1.734375 14.425781 -1.890625 15.71875 -2.203125 L 15.71875 -8.25 L 11.328125 -8.25 Z M 11.328125 -10.28125 "/></g></g></g><g fill="#444443" fill-opacity="1"><g transform="translate(168.977168, 259.016424)"><g/></g></g><g fill="#444443" fill-opacity="1"><g transform="translate(183.545542, 259.016424)"><g><path d="M 11.109375 -17.875 C 8.953125 -17.875 7.25 -17.15625 6 -15.71875 C 4.75 -14.28125 4.125 -12.3125 4.125 -9.8125 C 4.125 -7.25 4.722656 -5.265625 5.921875 -3.859375 C 7.128906 -2.460938 8.847656 -1.765625 11.078125 -1.765625 C 12.441406 -1.765625 14.003906 -2.007812 15.765625 -2.5 L 15.765625 -0.5 C 14.398438 0.0078125 12.722656 0.265625 10.734375 0.265625 C 7.835938 0.265625 5.601562 -0.609375 4.03125 -2.359375 C 2.457031 -4.117188 1.671875 -6.613281 1.671875 -9.84375 C 1.671875 -11.863281 2.050781 -13.632812 2.8125 -15.15625 C 3.570312 -16.675781 4.664062 -17.847656 6.09375 -18.671875 C 7.519531 -19.492188 9.195312 -19.90625 11.125 -19.90625 C 13.1875 -19.90625 14.988281 -19.53125 16.53125 -18.78125 L 15.5625 -16.828125 C 14.070312 -17.523438 12.585938 -17.875 11.109375 -17.875 Z M 11.109375 -17.875 "/></g></g></g><g fill="#444443" fill-opacity="1"><g transform="translate(208.316105, 259.016424)"><g><path d="M 2.703125 0 L 2.703125 -19.625 L 4.984375 -19.625 L 4.984375 -2.0625 L 13.640625 -2.0625 L 13.640625 0 Z M 2.703125 0 "/></g></g></g><g fill="#444443" fill-opacity="1"><g transform="translate(230.012591, 259.016424)"><g><path d="M 17.515625 -19.625 L 17.515625 -6.921875 C 17.515625 -4.691406 16.835938 -2.9375 15.484375 -1.65625 C 14.140625 -0.375 12.285156 0.265625 9.921875 0.265625 C 7.554688 0.265625 5.726562 -0.375 4.4375 -1.65625 C 3.144531 -2.945312 2.5 -4.722656 2.5 -6.984375 L 2.5 -19.625 L 4.78125 -19.625 L 4.78125 -6.828125 C 4.78125 -5.179688 5.226562 -3.921875 6.125 -3.046875 C 7.019531 -2.171875 8.335938 -1.734375 10.078125 -1.734375 C 11.734375 -1.734375 13.003906 -2.171875 13.890625 -3.046875 C 14.785156 -3.929688 15.234375 -5.195312 15.234375 -6.84375 L 15.234375 -19.625 Z M 17.515625 -19.625 "/></g></g></g><g fill="#444443" fill-opacity="1"><g transform="translate(257.454514, 259.016424)"><g><path d="M 2.703125 -19.625 L 8.25 -19.625 C 10.851562 -19.625 12.734375 -19.234375 13.890625 -18.453125 C 15.054688 -17.679688 15.640625 -16.453125 15.640625 -14.765625 C 15.640625 -13.609375 15.316406 -12.648438 14.671875 -11.890625 C 14.023438 -11.128906 13.078125 -10.640625 11.828125 -10.421875 L 11.828125 -10.28125 C 14.804688 -9.769531 16.296875 -8.207031 16.296875 -5.59375 C 16.296875 -3.832031 15.703125 -2.457031 14.515625 -1.46875 C 13.335938 -0.488281 11.679688 0 9.546875 0 L 2.703125 0 Z M 4.984375 -11.21875 L 8.734375 -11.21875 C 10.347656 -11.21875 11.507812 -11.472656 12.21875 -11.984375 C 12.925781 -12.492188 13.28125 -13.347656 13.28125 -14.546875 C 13.28125 -15.640625 12.882812 -16.429688 12.09375 -16.921875 C 11.3125 -17.410156 10.0625 -17.65625 8.34375 -17.65625 L 4.984375 -17.65625 Z M 4.984375 -9.296875 L 4.984375 -1.953125 L 9.078125 -1.953125 C 10.660156 -1.953125 11.851562 -2.253906 12.65625 -2.859375 C 13.457031 -3.472656 13.859375 -4.4375 13.859375 -5.75 C 13.859375 -6.96875 13.445312 -7.863281 12.625 -8.4375 C 11.8125 -9.007812 10.566406 -9.296875 8.890625 -9.296875 Z M 4.984375 -9.296875 "/></g></g></g><g clip-path="url(#f9ecf99ccb)"><g clip-path="url(#65667c5d7d)"><path fill="#ff5c5c" d="M 4.832031 94.9375 L 44.378906 94.9375 L 44.378906 134.480469 L 4.832031 134.480469 Z M 4.832031 94.9375 " fill-opacity="1" fill-rule="nonzero"/></g></g><g clip-path="url(#92de39f0a3)"><g clip-path="url(#2788517c8d)"><path fill="#a8a8a8" d="M 68.105469 94.9375 L 107.652344 94.9375 L 107.652344 134.480469 L 68.105469 134.480469 Z M 68.105469 94.9375 " fill-opacity="1" fill-rule="nonzero"/></g></g><g clip-path="url(#6cae2241f3)"><g clip-path="url(#3a437fa68b)"><path fill="#ffbd4a" d="M 131.382812 94.9375 L 170.925781 94.9375 L 170.925781 134.480469 L 131.382812 134.480469 Z M 131.382812 94.9375 " fill-opacity="1" fill-rule="nonzero"/></g></g></svg>