<svg xmlns="http://www.w3.org/2000/svg" xmlns:xlink="http://www.w3.org/1999/xlink" width="500" zoomAndPan="magnify" viewBox="0 0 375 374.999991" height="500" preserveAspectRatio="xMidYMid meet" version="1.0"><defs><clipPath id="e521c08a8a"><path d="M 0 27.640625 L 375 27.640625 L 375 346.390625 L 0 346.390625 Z M 0 27.640625 " clip-rule="nonzero"/></clipPath></defs><g clip-path="url(#e521c08a8a)"><path fill="#000000" d="M 339.664062 27.765625 L 35.335938 27.765625 C 15.859375 27.765625 0 43.625 0 63.101562 L 0 310.929688 C 0 330.40625 15.859375 346.261719 35.335938 346.261719 L 339.664062 346.261719 C 359.140625 346.261719 375 330.40625 375 310.929688 L 375 63.101562 C 375 43.625 359.140625 27.765625 339.664062 27.765625 Z M 28.753906 63.101562 C 28.753906 59.519531 31.757812 56.519531 35.335938 56.519531 L 339.664062 56.519531 C 343.242188 56.519531 346.246094 59.519531 346.246094 63.101562 L 346.246094 67.679688 L 190.886719 223.023438 C 189.039062 224.867188 185.960938 224.867188 184.113281 223.023438 L 28.753906 67.679688 Z M 346.246094 310.96875 C 346.246094 314.546875 343.242188 317.550781 339.664062 317.550781 L 35.335938 317.550781 C 31.757812 317.550781 28.753906 314.546875 28.753906 310.96875 L 28.753906 108.324219 L 163.75 243.304688 C 170.0625 249.617188 178.492188 253.121094 187.460938 253.121094 C 196.429688 253.121094 204.859375 249.65625 211.171875 243.304688 L 346.167969 108.324219 L 346.167969 310.96875 Z M 346.246094 310.96875 " fill-opacity="1" fill-rule="nonzero"/></g></svg>