<svg xmlns="http://www.w3.org/2000/svg" xmlns:xlink="http://www.w3.org/1999/xlink" width="500" zoomAndPan="magnify" viewBox="0 0 375 374.999991" height="500" preserveAspectRatio="xMidYMid meet" version="1.0"><defs><clipPath id="37e033cd1a"><path d="M 115.628906 96.441406 L 267.128906 96.441406 L 267.128906 262.191406 L 115.628906 262.191406 Z M 115.628906 96.441406 " clip-rule="nonzero"/></clipPath></defs><g clip-path="url(#37e033cd1a)"><path fill="#000000" d="M 259.914062 125.289062 L 227.449219 125.289062 L 227.449219 120.210938 C 227.449219 119.433594 227.40625 118.65625 227.332031 117.882812 C 227.253906 117.113281 227.136719 116.34375 226.984375 115.582031 C 226.832031 114.820312 226.644531 114.066406 226.417969 113.324219 C 226.191406 112.582031 225.929688 111.851562 225.628906 111.132812 C 225.332031 110.414062 225 109.714844 224.632812 109.027344 C 224.265625 108.34375 223.863281 107.675781 223.429688 107.03125 C 223 106.386719 222.535156 105.761719 222.042969 105.160156 C 221.546875 104.5625 221.027344 103.984375 220.476562 103.4375 C 219.925781 102.886719 219.347656 102.367188 218.746094 101.871094 C 218.144531 101.378906 217.523438 100.917969 216.875 100.484375 C 216.226562 100.054688 215.5625 99.652344 214.875 99.285156 C 214.191406 98.921875 213.488281 98.585938 212.769531 98.289062 C 212.050781 97.992188 211.316406 97.730469 210.574219 97.503906 C 209.828125 97.277344 209.074219 97.089844 208.3125 96.933594 C 207.550781 96.78125 206.78125 96.667969 206.007812 96.589844 C 205.230469 96.515625 204.457031 96.472656 203.675781 96.472656 L 179.078125 96.472656 C 178.296875 96.472656 177.523438 96.515625 176.746094 96.589844 C 175.972656 96.667969 175.203125 96.78125 174.441406 96.933594 C 173.679688 97.089844 172.925781 97.277344 172.179688 97.503906 C 171.4375 97.730469 170.703125 97.992188 169.984375 98.289062 C 169.265625 98.585938 168.5625 98.921875 167.878906 99.285156 C 167.191406 99.652344 166.527344 100.054688 165.878906 100.484375 C 165.230469 100.917969 164.609375 101.378906 164.007812 101.871094 C 163.40625 102.367188 162.828125 102.886719 162.277344 103.4375 C 161.726562 103.984375 161.207031 104.5625 160.710938 105.160156 C 160.21875 105.761719 159.753906 106.386719 159.324219 107.03125 C 158.890625 107.675781 158.492188 108.34375 158.125 109.027344 C 157.753906 109.714844 157.421875 110.414062 157.125 111.132812 C 156.828125 111.851562 156.5625 112.582031 156.335938 113.324219 C 156.109375 114.066406 155.921875 114.820312 155.769531 115.582031 C 155.617188 116.34375 155.5 117.109375 155.421875 117.882812 C 155.347656 118.65625 155.308594 119.433594 155.304688 120.210938 L 155.304688 125.289062 L 122.839844 125.289062 C 122.367188 125.289062 121.898438 125.335938 121.433594 125.425781 C 120.96875 125.519531 120.519531 125.65625 120.082031 125.835938 C 119.644531 126.019531 119.226562 126.238281 118.832031 126.503906 C 118.4375 126.765625 118.074219 127.0625 117.738281 127.398438 C 117.40625 127.734375 117.105469 128.097656 116.84375 128.492188 C 116.578125 128.882812 116.359375 129.296875 116.175781 129.734375 C 115.996094 130.171875 115.859375 130.625 115.765625 131.085938 C 115.671875 131.550781 115.628906 132.019531 115.628906 132.492188 C 115.628906 132.964844 115.671875 133.433594 115.765625 133.898438 C 115.859375 134.363281 115.996094 134.8125 116.175781 135.25 C 116.359375 135.6875 116.578125 136.101562 116.84375 136.496094 C 117.105469 136.886719 117.40625 137.253906 117.738281 137.585938 C 118.074219 137.921875 118.4375 138.21875 118.832031 138.480469 C 119.226562 138.746094 119.644531 138.96875 120.082031 139.148438 C 120.519531 139.328125 120.96875 139.464844 121.433594 139.558594 C 121.898438 139.648438 122.367188 139.695312 122.839844 139.695312 L 133.664062 139.695312 L 133.664062 238.316406 C 133.664062 239.097656 133.703125 239.878906 133.78125 240.65625 C 133.859375 241.433594 133.976562 242.203125 134.128906 242.96875 C 134.28125 243.738281 134.472656 244.492188 134.699219 245.242188 C 134.929688 245.988281 135.191406 246.722656 135.492188 247.445312 C 135.792969 248.167969 136.128906 248.871094 136.5 249.558594 C 136.867188 250.25 137.269531 250.917969 137.707031 251.566406 C 138.140625 252.214844 138.605469 252.84375 139.105469 253.445312 C 139.601562 254.050781 140.125 254.628906 140.679688 255.179688 C 141.234375 255.730469 141.8125 256.253906 142.417969 256.75 C 143.023438 257.246094 143.652344 257.710938 144.300781 258.144531 C 144.953125 258.578125 145.625 258.980469 146.3125 259.347656 C 147.003906 259.714844 147.710938 260.046875 148.433594 260.347656 C 149.15625 260.644531 149.894531 260.910156 150.640625 261.136719 C 151.390625 261.363281 152.148438 261.550781 152.917969 261.703125 C 153.683594 261.855469 154.457031 261.96875 155.234375 262.046875 C 156.015625 262.125 156.796875 262.160156 157.578125 262.160156 L 225.210938 262.160156 C 225.992188 262.160156 226.773438 262.121094 227.550781 262.042969 C 228.328125 261.964844 229.101562 261.851562 229.867188 261.699219 C 230.632812 261.542969 231.390625 261.355469 232.140625 261.125 C 232.886719 260.898438 233.621094 260.636719 234.34375 260.335938 C 235.066406 260.039062 235.773438 259.703125 236.460938 259.335938 C 237.152344 258.96875 237.820312 258.566406 238.46875 258.132812 C 239.121094 257.699219 239.746094 257.234375 240.351562 256.738281 C 240.957031 256.242188 241.535156 255.71875 242.085938 255.167969 C 242.640625 254.613281 243.164062 254.039062 243.660156 253.433594 C 244.15625 252.832031 244.621094 252.203125 245.054688 251.554688 C 245.492188 250.90625 245.890625 250.238281 246.261719 249.550781 C 246.628906 248.863281 246.964844 248.15625 247.265625 247.4375 C 247.5625 246.714844 247.828125 245.980469 248.054688 245.234375 C 248.28125 244.488281 248.472656 243.730469 248.625 242.964844 C 248.78125 242.199219 248.894531 241.429688 248.972656 240.652344 C 249.050781 239.875 249.089844 239.097656 249.089844 238.316406 L 249.089844 139.695312 L 259.914062 139.695312 C 260.386719 139.695312 260.855469 139.648438 261.320312 139.558594 C 261.785156 139.464844 262.234375 139.328125 262.671875 139.148438 C 263.109375 138.96875 263.527344 138.746094 263.921875 138.480469 C 264.316406 138.21875 264.679688 137.921875 265.015625 137.585938 C 265.347656 137.253906 265.648438 136.886719 265.910156 136.496094 C 266.175781 136.101562 266.398438 135.6875 266.578125 135.25 C 266.757812 134.8125 266.894531 134.363281 266.988281 133.898438 C 267.082031 133.433594 267.128906 132.964844 267.128906 132.492188 C 267.128906 132.019531 267.082031 131.550781 266.988281 131.085938 C 266.894531 130.625 266.757812 130.171875 266.578125 129.734375 C 266.398438 129.296875 266.175781 128.882812 265.910156 128.492188 C 265.648438 128.097656 265.347656 127.734375 265.015625 127.398438 C 264.679688 127.0625 264.316406 126.765625 263.921875 126.503906 C 263.527344 126.238281 263.109375 126.019531 262.671875 125.835938 C 262.234375 125.65625 261.785156 125.519531 261.320312 125.425781 C 260.855469 125.335938 260.386719 125.289062 259.914062 125.289062 Z M 169.734375 120.210938 C 169.734375 119.597656 169.792969 118.992188 169.914062 118.390625 C 170.035156 117.789062 170.210938 117.207031 170.445312 116.640625 C 170.679688 116.074219 170.96875 115.535156 171.308594 115.027344 C 171.648438 114.519531 172.035156 114.046875 172.46875 113.613281 C 172.90625 113.179688 173.375 112.792969 173.886719 112.453125 C 174.394531 112.113281 174.933594 111.824219 175.5 111.589844 C 176.066406 111.355469 176.652344 111.179688 177.253906 111.058594 C 177.855469 110.941406 178.464844 110.882812 179.078125 110.882812 L 203.675781 110.882812 C 204.289062 110.882812 204.898438 110.941406 205.5 111.058594 C 206.101562 111.179688 206.6875 111.355469 207.253906 111.589844 C 207.820312 111.824219 208.359375 112.113281 208.867188 112.453125 C 209.378906 112.792969 209.851562 113.179688 210.285156 113.613281 C 210.71875 114.046875 211.105469 114.519531 211.445312 115.027344 C 211.785156 115.535156 212.074219 116.074219 212.308594 116.640625 C 212.542969 117.207031 212.722656 117.789062 212.839844 118.390625 C 212.960938 118.992188 213.019531 119.597656 213.019531 120.210938 L 213.019531 125.289062 L 169.734375 125.289062 Z M 234.664062 238.316406 C 234.660156 238.9375 234.597656 239.546875 234.476562 240.15625 C 234.351562 240.761719 234.171875 241.351562 233.933594 241.921875 C 233.695312 242.492188 233.402344 243.035156 233.058594 243.550781 C 232.714844 244.066406 232.324219 244.542969 231.882812 244.980469 C 231.445312 245.417969 230.96875 245.808594 230.453125 246.152344 C 229.9375 246.496094 229.394531 246.789062 228.824219 247.027344 C 228.25 247.265625 227.660156 247.445312 227.054688 247.566406 C 226.445312 247.6875 225.832031 247.75 225.210938 247.753906 L 157.578125 247.753906 C 156.957031 247.753906 156.339844 247.695312 155.730469 247.574219 C 155.121094 247.453125 154.53125 247.273438 153.957031 247.035156 C 153.382812 246.800781 152.835938 246.507812 152.320312 246.164062 C 151.800781 245.820312 151.324219 245.429688 150.882812 244.992188 C 150.441406 244.554688 150.050781 244.078125 149.703125 243.5625 C 149.355469 243.046875 149.0625 242.503906 148.824219 241.929688 C 148.585938 241.359375 148.402344 240.769531 148.28125 240.160156 C 148.15625 239.550781 148.09375 238.9375 148.089844 238.316406 L 148.089844 139.695312 L 234.664062 139.695312 Z M 234.664062 238.316406 " fill-opacity="1" fill-rule="nonzero"/></g><path fill="#000000" d="M 173.339844 155.867188 C 172.867188 155.867188 172.398438 155.914062 171.933594 156.007812 C 171.46875 156.101562 171.019531 156.238281 170.582031 156.417969 C 170.144531 156.597656 169.726562 156.820312 169.332031 157.082031 C 168.9375 157.347656 168.574219 157.644531 168.238281 157.980469 C 167.90625 158.3125 167.605469 158.675781 167.34375 159.070312 C 167.078125 159.464844 166.859375 159.878906 166.675781 160.316406 C 166.496094 160.753906 166.359375 161.203125 166.265625 161.667969 C 166.171875 162.132812 166.128906 162.601562 166.128906 163.074219 L 166.128906 227.90625 C 166.128906 228.378906 166.171875 228.847656 166.265625 229.3125 C 166.359375 229.777344 166.496094 230.226562 166.675781 230.664062 C 166.859375 231.101562 167.078125 231.515625 167.34375 231.910156 C 167.605469 232.304688 167.90625 232.667969 168.238281 233 C 168.574219 233.335938 168.9375 233.632812 169.332031 233.898438 C 169.726562 234.160156 170.144531 234.382812 170.582031 234.5625 C 171.019531 234.742188 171.46875 234.878906 171.933594 234.972656 C 172.398438 235.066406 172.867188 235.109375 173.339844 235.109375 C 173.816406 235.109375 174.285156 235.066406 174.75 234.972656 C 175.214844 234.878906 175.664062 234.742188 176.101562 234.5625 C 176.539062 234.382812 176.957031 234.160156 177.347656 233.898438 C 177.742188 233.632812 178.109375 233.335938 178.441406 233 C 178.777344 232.667969 179.078125 232.304688 179.339844 231.910156 C 179.601562 231.515625 179.824219 231.101562 180.007812 230.664062 C 180.1875 230.226562 180.324219 229.777344 180.417969 229.3125 C 180.507812 228.847656 180.554688 228.378906 180.554688 227.90625 L 180.554688 163.074219 C 180.554688 162.601562 180.507812 162.132812 180.417969 161.667969 C 180.324219 161.203125 180.1875 160.753906 180.007812 160.316406 C 179.824219 159.878906 179.601562 159.464844 179.339844 159.070312 C 179.078125 158.675781 178.777344 158.3125 178.441406 157.980469 C 178.109375 157.644531 177.742188 157.347656 177.347656 157.082031 C 176.957031 156.820312 176.539062 156.597656 176.101562 156.417969 C 175.664062 156.238281 175.214844 156.101562 174.75 156.007812 C 174.285156 155.914062 173.816406 155.867188 173.339844 155.867188 Z M 173.339844 155.867188 " fill-opacity="1" fill-rule="nonzero"/><path fill="#000000" d="M 209.414062 155.867188 C 208.9375 155.867188 208.46875 155.914062 208.003906 156.007812 C 207.539062 156.101562 207.089844 156.238281 206.652344 156.417969 C 206.214844 156.597656 205.796875 156.820312 205.40625 157.082031 C 205.011719 157.347656 204.644531 157.644531 204.3125 157.980469 C 203.976562 158.3125 203.675781 158.675781 203.414062 159.070312 C 203.152344 159.464844 202.929688 159.878906 202.746094 160.316406 C 202.566406 160.753906 202.429688 161.203125 202.335938 161.667969 C 202.246094 162.132812 202.199219 162.601562 202.199219 163.074219 L 202.199219 227.90625 C 202.199219 228.378906 202.246094 228.847656 202.335938 229.3125 C 202.429688 229.777344 202.566406 230.226562 202.746094 230.664062 C 202.929688 231.101562 203.152344 231.515625 203.414062 231.910156 C 203.675781 232.304688 203.976562 232.667969 204.3125 233 C 204.644531 233.335938 205.011719 233.632812 205.40625 233.898438 C 205.796875 234.160156 206.214844 234.382812 206.652344 234.5625 C 207.089844 234.742188 207.539062 234.878906 208.003906 234.972656 C 208.46875 235.066406 208.9375 235.109375 209.414062 235.109375 C 209.886719 235.109375 210.355469 235.066406 210.820312 234.972656 C 211.285156 234.878906 211.734375 234.742188 212.171875 234.5625 C 212.609375 234.382812 213.027344 234.160156 213.421875 233.898438 C 213.816406 233.632812 214.179688 233.335938 214.515625 233 C 214.847656 232.667969 215.148438 232.304688 215.410156 231.910156 C 215.675781 231.515625 215.898438 231.101562 216.078125 230.664062 C 216.257812 230.226562 216.394531 229.777344 216.488281 229.3125 C 216.582031 228.847656 216.628906 228.378906 216.628906 227.90625 L 216.628906 163.074219 C 216.628906 162.601562 216.582031 162.132812 216.488281 161.667969 C 216.394531 161.203125 216.257812 160.753906 216.078125 160.316406 C 215.898438 159.878906 215.675781 159.464844 215.410156 159.070312 C 215.148438 158.675781 214.847656 158.3125 214.515625 157.980469 C 214.179688 157.644531 213.816406 157.347656 213.421875 157.082031 C 213.027344 156.820312 212.609375 156.597656 212.171875 156.417969 C 211.734375 156.238281 211.285156 156.101562 210.820312 156.007812 C 210.355469 155.914062 209.886719 155.867188 209.414062 155.867188 Z M 209.414062 155.867188 " fill-opacity="1" fill-rule="nonzero"/></svg>